M48
METRIC,LZ,000.000
;FILE_FORMAT=3:3
;TYPE=PLATED
;Layer: PTH_Through
;EasyEDA v6.4.31, 2022-02-02 03:50:30
;0b916ec405ec4e9094bbf8359c402fb2,658f5e24285b455797eae137c281a567,10
;Gerber Generator version 0.2
;Holesize 1 = 0.305 mm
T01C0.305
%
G05
G90
T01
X099035Y-002769
X096469Y-001854
X091415Y-005867
X101549Y-025349
X109449Y-021844
X047574Y001956
X043129Y-027584
X007391Y-010160
X073889Y-007798
X109398Y-018974
X088824Y-003632
X076098Y-023673
X078715Y-023724
X086284Y-003683
X104089Y-025197
X093929Y-003708
X113538Y-022835
X088824Y-023114
X102083Y-020066
X095250Y-019507
X073076Y-035179
X077597Y-035204
X070917Y-007823
X111506Y-011125
X111455Y-013665
X007417Y-012649
X007518Y-015164
X007468Y-017780
X068547Y-026441
X067183Y-028550
X065710Y-030709
X083337Y-017501
X083363Y-012421
X090170Y-015062
X093472Y-017526
M30
