G04 Layer: BottomSolderMaskLayer*
G04 EasyEDA v6.4.31, 2022-02-02 03:50:30*
G04 0b916ec405ec4e9094bbf8359c402fb2,658f5e24285b455797eae137c281a567,10*
G04 Gerber Generator version 0.2*
G04 Scale: 100 percent, Rotated: No, Reflected: No *
G04 Dimensions in millimeters *
G04 leading zeros omitted , absolute positions ,4 integer and 5 decimal *
%FSLAX45Y45*%
%MOMM*%

%ADD10C,0.0001*%

%LPD*%
G36*
X10881613Y-1409192D02*
G01*
X10881613Y-1273047D01*
X11048745Y-1273047D01*
X11048745Y-1409192D01*
G37*
G36*
X10881613Y-1205992D02*
G01*
X10881613Y-1069847D01*
X11048745Y-1069847D01*
X11048745Y-1205992D01*
G37*
G36*
X7033768Y-3605529D02*
G01*
X7033768Y-3440429D01*
X7169911Y-3440429D01*
X7169911Y-3605529D01*
G37*
G36*
X7236968Y-3605529D02*
G01*
X7236968Y-3440429D01*
X7373111Y-3440429D01*
X7373111Y-3605529D01*
G37*
G36*
X7689088Y-3602989D02*
G01*
X7689088Y-3437889D01*
X7825231Y-3437889D01*
X7825231Y-3602989D01*
G37*
G36*
X7485888Y-3602989D02*
G01*
X7485888Y-3437889D01*
X7622031Y-3437889D01*
X7622031Y-3602989D01*
G37*
G36*
X10322559Y-644905D02*
G01*
X10322559Y-96773D01*
X10495279Y-96773D01*
X10495279Y-644905D01*
G37*
G36*
X10068559Y-644905D02*
G01*
X10068559Y-96773D01*
X10241279Y-96773D01*
X10241279Y-644905D01*
G37*
G36*
X9814559Y-644905D02*
G01*
X9814559Y-96773D01*
X9987279Y-96773D01*
X9987279Y-644905D01*
G37*
G36*
X9560559Y-644905D02*
G01*
X9560559Y-96773D01*
X9733279Y-96773D01*
X9733279Y-644905D01*
G37*
G36*
X9306559Y-644905D02*
G01*
X9306559Y-96773D01*
X9479279Y-96773D01*
X9479279Y-644905D01*
G37*
G36*
X9052559Y-644905D02*
G01*
X9052559Y-96773D01*
X9225279Y-96773D01*
X9225279Y-644905D01*
G37*
G36*
X8798559Y-644905D02*
G01*
X8798559Y-96773D01*
X8971279Y-96773D01*
X8971279Y-644905D01*
G37*
G36*
X8544559Y-644905D02*
G01*
X8544559Y-96773D01*
X8717279Y-96773D01*
X8717279Y-644905D01*
G37*
G36*
X8290559Y-644905D02*
G01*
X8290559Y-96773D01*
X8463279Y-96773D01*
X8463279Y-644905D01*
G37*
G36*
X8036559Y-644905D02*
G01*
X8036559Y-96773D01*
X8209279Y-96773D01*
X8209279Y-644905D01*
G37*
G36*
X7782559Y-644905D02*
G01*
X7782559Y-96773D01*
X7955279Y-96773D01*
X7955279Y-644905D01*
G37*
G36*
X7528559Y-644905D02*
G01*
X7528559Y-96773D01*
X7701279Y-96773D01*
X7701279Y-644905D01*
G37*
G36*
X7274559Y-644905D02*
G01*
X7274559Y-96773D01*
X7447279Y-96773D01*
X7447279Y-644905D01*
G37*
G36*
X7020559Y-644905D02*
G01*
X7020559Y-96773D01*
X7193279Y-96773D01*
X7193279Y-644905D01*
G37*
G36*
X10321543Y-2643886D02*
G01*
X10321543Y-2095754D01*
X10494263Y-2095754D01*
X10494263Y-2643886D01*
G37*
G36*
X10067543Y-2643886D02*
G01*
X10067543Y-2095754D01*
X10240263Y-2095754D01*
X10240263Y-2643886D01*
G37*
G36*
X9813543Y-2643886D02*
G01*
X9813543Y-2095754D01*
X9986263Y-2095754D01*
X9986263Y-2643886D01*
G37*
G36*
X9559543Y-2643886D02*
G01*
X9559543Y-2095754D01*
X9732263Y-2095754D01*
X9732263Y-2643886D01*
G37*
G36*
X9305543Y-2643886D02*
G01*
X9305543Y-2095754D01*
X9478263Y-2095754D01*
X9478263Y-2643886D01*
G37*
G36*
X9051543Y-2643886D02*
G01*
X9051543Y-2095754D01*
X9224263Y-2095754D01*
X9224263Y-2643886D01*
G37*
G36*
X8797543Y-2643886D02*
G01*
X8797543Y-2095754D01*
X8970263Y-2095754D01*
X8970263Y-2643886D01*
G37*
G36*
X8543543Y-2643886D02*
G01*
X8543543Y-2095754D01*
X8716263Y-2095754D01*
X8716263Y-2643886D01*
G37*
G36*
X8289543Y-2643886D02*
G01*
X8289543Y-2095754D01*
X8462263Y-2095754D01*
X8462263Y-2643886D01*
G37*
G36*
X8035543Y-2643886D02*
G01*
X8035543Y-2095754D01*
X8208263Y-2095754D01*
X8208263Y-2643886D01*
G37*
G36*
X7781543Y-2643886D02*
G01*
X7781543Y-2095754D01*
X7954263Y-2095754D01*
X7954263Y-2643886D01*
G37*
G36*
X7527543Y-2643886D02*
G01*
X7527543Y-2095754D01*
X7700263Y-2095754D01*
X7700263Y-2643886D01*
G37*
G36*
X7273543Y-2643886D02*
G01*
X7273543Y-2095754D01*
X7446263Y-2095754D01*
X7446263Y-2643886D01*
G37*
G36*
X7019543Y-2643886D02*
G01*
X7019543Y-2095754D01*
X7192263Y-2095754D01*
X7192263Y-2643886D01*
G37*
G36*
X8059674Y-1836420D02*
G01*
X8059674Y-1663700D01*
X8607806Y-1663700D01*
X8607806Y-1836420D01*
G37*
G36*
X8059674Y-1582420D02*
G01*
X8059674Y-1409700D01*
X8607806Y-1409700D01*
X8607806Y-1582420D01*
G37*
G36*
X8059674Y-1328420D02*
G01*
X8059674Y-1155700D01*
X8607806Y-1155700D01*
X8607806Y-1328420D01*
G37*
G36*
X8059674Y-1074420D02*
G01*
X8059674Y-901700D01*
X8607806Y-901700D01*
X8607806Y-1074420D01*
G37*
M02*
