G04 Layer: BottomSilkscreenLayer*
G04 EasyEDA v6.4.31, 2022-02-02 03:50:30*
G04 0b916ec405ec4e9094bbf8359c402fb2,658f5e24285b455797eae137c281a567,10*
G04 Gerber Generator version 0.2*
G04 Scale: 100 percent, Rotated: No, Reflected: No *
G04 Dimensions in millimeters *
G04 leading zeros omitted , absolute positions ,4 integer and 5 decimal *
%FSLAX45Y45*%
%MOMM*%

%ADD20C,0.2030*%
%ADD21C,0.2032*%
%ADD22C,0.1999*%
%ADD23C,0.2500*%
%ADD24C,0.1524*%
%ADD25C,0.1500*%

%LPD*%
D21*
X7069373Y181729D02*
G01*
X7145736Y210820D01*
X7069373Y181729D02*
G01*
X7145736Y152638D01*
X7120282Y199910D02*
G01*
X7120282Y163548D01*
X7069373Y128638D02*
G01*
X7145736Y128638D01*
X7069373Y128638D02*
G01*
X7069373Y95910D01*
X7073008Y85001D01*
X7076645Y81366D01*
X7083917Y77729D01*
X7091189Y77729D01*
X7098464Y81366D01*
X7102099Y85001D01*
X7105736Y95910D01*
X7105736Y128638D01*
X7105736Y103184D02*
G01*
X7145736Y77729D01*
X7069373Y53728D02*
G01*
X7145736Y53728D01*
X7069373Y53728D02*
G01*
X7069373Y6456D01*
X7105736Y53728D02*
G01*
X7105736Y24637D01*
X7145736Y53728D02*
G01*
X7145736Y6456D01*
X7069373Y-17543D02*
G01*
X7145736Y-17543D01*
X7069373Y-17543D02*
G01*
X7069373Y-64815D01*
X7105736Y-17543D02*
G01*
X7105736Y-46634D01*
X7323373Y104139D02*
G01*
X7399736Y104139D01*
X7323373Y104139D02*
G01*
X7323373Y78686D01*
X7327008Y67777D01*
X7334283Y60502D01*
X7341555Y56868D01*
X7352464Y53230D01*
X7370645Y53230D01*
X7381554Y56868D01*
X7388826Y60502D01*
X7396099Y67777D01*
X7399736Y78686D01*
X7399736Y104139D01*
X7337917Y29230D02*
G01*
X7334283Y21958D01*
X7323373Y11048D01*
X7399736Y11048D01*
X7323373Y-56586D02*
G01*
X7323373Y-20223D01*
X7356099Y-16586D01*
X7352464Y-20223D01*
X7348827Y-31132D01*
X7348827Y-42042D01*
X7352464Y-52951D01*
X7359736Y-60223D01*
X7370645Y-63860D01*
X7377917Y-63860D01*
X7388826Y-60223D01*
X7396099Y-52951D01*
X7399736Y-42042D01*
X7399736Y-31132D01*
X7396099Y-20223D01*
X7392464Y-16586D01*
X7385189Y-12951D01*
X7577373Y91439D02*
G01*
X7653736Y91439D01*
X7577373Y91439D02*
G01*
X7577373Y65986D01*
X7581008Y55077D01*
X7588283Y47802D01*
X7595555Y44168D01*
X7606464Y40530D01*
X7624645Y40530D01*
X7635554Y44168D01*
X7642826Y47802D01*
X7650099Y55077D01*
X7653736Y65986D01*
X7653736Y91439D01*
X7591917Y16530D02*
G01*
X7588283Y9258D01*
X7577373Y-1651D01*
X7653736Y-1651D01*
X7588283Y-69286D02*
G01*
X7581008Y-65651D01*
X7577373Y-54742D01*
X7577373Y-47470D01*
X7581008Y-36560D01*
X7591917Y-29286D01*
X7610099Y-25651D01*
X7628282Y-25651D01*
X7642826Y-29286D01*
X7650099Y-36560D01*
X7653736Y-47470D01*
X7653736Y-51104D01*
X7650099Y-62014D01*
X7642826Y-69286D01*
X7631917Y-72923D01*
X7628282Y-72923D01*
X7617373Y-69286D01*
X7610099Y-62014D01*
X7606464Y-51104D01*
X7606464Y-47470D01*
X7610099Y-36560D01*
X7617373Y-29286D01*
X7628282Y-25651D01*
X7833913Y99060D02*
G01*
X7910276Y99060D01*
X7833913Y99060D02*
G01*
X7833913Y73606D01*
X7837548Y62697D01*
X7844823Y55422D01*
X7852095Y51788D01*
X7863004Y48150D01*
X7881185Y48150D01*
X7892094Y51788D01*
X7899366Y55422D01*
X7906638Y62697D01*
X7910276Y73606D01*
X7910276Y99060D01*
X7848457Y24150D02*
G01*
X7844823Y16878D01*
X7833913Y5969D01*
X7910276Y5969D01*
X7833913Y-68940D02*
G01*
X7910276Y-32575D01*
X7833913Y-18031D02*
G01*
X7833913Y-68940D01*
X8085373Y96520D02*
G01*
X8161736Y96520D01*
X8085373Y96520D02*
G01*
X8085373Y71066D01*
X8089008Y60157D01*
X8096283Y52882D01*
X8103555Y49248D01*
X8114464Y45610D01*
X8132645Y45610D01*
X8143554Y49248D01*
X8150826Y52882D01*
X8158099Y60157D01*
X8161736Y71066D01*
X8161736Y96520D01*
X8099917Y21610D02*
G01*
X8096283Y14338D01*
X8085373Y3429D01*
X8161736Y3429D01*
X8085373Y-38752D02*
G01*
X8089008Y-27843D01*
X8096283Y-24206D01*
X8103555Y-24206D01*
X8110827Y-27843D01*
X8114464Y-35115D01*
X8118099Y-49662D01*
X8121736Y-60571D01*
X8129008Y-67843D01*
X8136282Y-71480D01*
X8147189Y-71480D01*
X8154464Y-67843D01*
X8158099Y-64206D01*
X8161736Y-53296D01*
X8161736Y-38752D01*
X8158099Y-27843D01*
X8154464Y-24206D01*
X8147189Y-20571D01*
X8136282Y-20571D01*
X8129008Y-24206D01*
X8121736Y-31480D01*
X8118099Y-42390D01*
X8114464Y-56934D01*
X8110827Y-64206D01*
X8103555Y-67843D01*
X8096283Y-67843D01*
X8089008Y-64206D01*
X8085373Y-53296D01*
X8085373Y-38752D01*
X8334293Y91439D02*
G01*
X8410656Y91439D01*
X8334293Y91439D02*
G01*
X8334293Y65986D01*
X8337928Y55077D01*
X8345203Y47802D01*
X8352475Y44168D01*
X8363384Y40530D01*
X8381565Y40530D01*
X8392474Y44168D01*
X8399746Y47802D01*
X8407018Y55077D01*
X8410656Y65986D01*
X8410656Y91439D01*
X8348837Y16530D02*
G01*
X8345203Y9258D01*
X8334293Y-1651D01*
X8410656Y-1651D01*
X8359747Y-72923D02*
G01*
X8370656Y-69286D01*
X8377928Y-62014D01*
X8381565Y-51104D01*
X8381565Y-47470D01*
X8377928Y-36560D01*
X8370656Y-29286D01*
X8359747Y-25651D01*
X8356109Y-25651D01*
X8345203Y-29286D01*
X8337928Y-36560D01*
X8334293Y-47470D01*
X8334293Y-51104D01*
X8337928Y-62014D01*
X8345203Y-69286D01*
X8359747Y-72923D01*
X8377928Y-72923D01*
X8396109Y-69286D01*
X8407018Y-62014D01*
X8410656Y-51104D01*
X8410656Y-43832D01*
X8407018Y-32923D01*
X8399746Y-29286D01*
X8590833Y134620D02*
G01*
X8667196Y134620D01*
X8590833Y134620D02*
G01*
X8590833Y109166D01*
X8594468Y98257D01*
X8601743Y90982D01*
X8609015Y87348D01*
X8619924Y83710D01*
X8638105Y83710D01*
X8649014Y87348D01*
X8656286Y90982D01*
X8663559Y98257D01*
X8667196Y109166D01*
X8667196Y134620D01*
X8609015Y56075D02*
G01*
X8605377Y56075D01*
X8598105Y52438D01*
X8594468Y48801D01*
X8590833Y41529D01*
X8590833Y26984D01*
X8594468Y19710D01*
X8598105Y16075D01*
X8605377Y12438D01*
X8612649Y12438D01*
X8619924Y16075D01*
X8630833Y23347D01*
X8667196Y59710D01*
X8667196Y8801D01*
X8590833Y-37015D02*
G01*
X8594468Y-26106D01*
X8605377Y-18834D01*
X8623559Y-15196D01*
X8634468Y-15196D01*
X8652649Y-18834D01*
X8663559Y-26106D01*
X8667196Y-37015D01*
X8667196Y-44289D01*
X8663559Y-55196D01*
X8652649Y-62471D01*
X8634468Y-66106D01*
X8623559Y-66106D01*
X8605377Y-62471D01*
X8594468Y-55196D01*
X8590833Y-44289D01*
X8590833Y-37015D01*
X8837213Y101600D02*
G01*
X8913576Y101600D01*
X8837213Y101600D02*
G01*
X8837213Y76146D01*
X8840848Y65237D01*
X8848123Y57962D01*
X8855395Y54328D01*
X8866304Y50690D01*
X8884485Y50690D01*
X8895394Y54328D01*
X8902666Y57962D01*
X8909938Y65237D01*
X8913576Y76146D01*
X8913576Y101600D01*
X8855395Y23055D02*
G01*
X8851757Y23055D01*
X8844485Y19418D01*
X8840848Y15781D01*
X8837213Y8509D01*
X8837213Y-6035D01*
X8840848Y-13309D01*
X8844485Y-16944D01*
X8851757Y-20581D01*
X8859029Y-20581D01*
X8866304Y-16944D01*
X8877213Y-9672D01*
X8913576Y26690D01*
X8913576Y-24218D01*
X8851757Y-48216D02*
G01*
X8848123Y-55491D01*
X8837213Y-66400D01*
X8913576Y-66400D01*
X9096293Y55879D02*
G01*
X9172656Y55879D01*
X9096293Y55879D02*
G01*
X9096293Y30426D01*
X9099928Y19517D01*
X9107203Y12242D01*
X9114475Y8608D01*
X9125384Y4970D01*
X9143565Y4970D01*
X9154474Y8608D01*
X9161746Y12242D01*
X9169018Y19517D01*
X9172656Y30426D01*
X9172656Y55879D01*
X9096293Y-40848D02*
G01*
X9099928Y-29938D01*
X9110837Y-22664D01*
X9129019Y-19029D01*
X9139928Y-19029D01*
X9158109Y-22664D01*
X9169018Y-29938D01*
X9172656Y-40848D01*
X9172656Y-48120D01*
X9169018Y-59029D01*
X9158109Y-66301D01*
X9139928Y-69938D01*
X9129019Y-69938D01*
X9110837Y-66301D01*
X9099928Y-59029D01*
X9096293Y-48120D01*
X9096293Y-40848D01*
X9350293Y27939D02*
G01*
X9426656Y27939D01*
X9350293Y27939D02*
G01*
X9350293Y2486D01*
X9353928Y-8422D01*
X9361203Y-15697D01*
X9368475Y-19331D01*
X9379384Y-22969D01*
X9397565Y-22969D01*
X9408474Y-19331D01*
X9415746Y-15697D01*
X9423018Y-8422D01*
X9426656Y2486D01*
X9426656Y27939D01*
X9364837Y-46969D02*
G01*
X9361203Y-54241D01*
X9350293Y-65151D01*
X9426656Y-65151D01*
X9609373Y53339D02*
G01*
X9685736Y53339D01*
X9609373Y53339D02*
G01*
X9609373Y27886D01*
X9613008Y16977D01*
X9620283Y9702D01*
X9627555Y6068D01*
X9638464Y2430D01*
X9656645Y2430D01*
X9667554Y6068D01*
X9674826Y9702D01*
X9682099Y16977D01*
X9685736Y27886D01*
X9685736Y53339D01*
X9627555Y-25204D02*
G01*
X9623917Y-25204D01*
X9616645Y-28841D01*
X9613008Y-32478D01*
X9609373Y-39751D01*
X9609373Y-54295D01*
X9613008Y-61569D01*
X9616645Y-65204D01*
X9623917Y-68841D01*
X9631189Y-68841D01*
X9638464Y-65204D01*
X9649373Y-57932D01*
X9685736Y-21569D01*
X9685736Y-72478D01*
X9863373Y55879D02*
G01*
X9939736Y55879D01*
X9863373Y55879D02*
G01*
X9863373Y30426D01*
X9867008Y19517D01*
X9874283Y12242D01*
X9881555Y8608D01*
X9892464Y4970D01*
X9910645Y4970D01*
X9921554Y8608D01*
X9928826Y12242D01*
X9936099Y19517D01*
X9939736Y30426D01*
X9939736Y55879D01*
X9863373Y-26301D02*
G01*
X9863373Y-66301D01*
X9892464Y-44483D01*
X9892464Y-55392D01*
X9896099Y-62664D01*
X9899736Y-66301D01*
X9910645Y-69938D01*
X9917917Y-69938D01*
X9928826Y-66301D01*
X9936099Y-59029D01*
X9939736Y-48120D01*
X9939736Y-37211D01*
X9936099Y-26301D01*
X9932464Y-22664D01*
X9925189Y-19029D01*
X10119913Y53339D02*
G01*
X10196276Y53339D01*
X10119913Y53339D02*
G01*
X10119913Y27886D01*
X10123548Y16977D01*
X10130823Y9702D01*
X10138095Y6068D01*
X10149004Y2430D01*
X10167185Y2430D01*
X10178094Y6068D01*
X10185366Y9702D01*
X10192638Y16977D01*
X10196276Y27886D01*
X10196276Y53339D01*
X10119913Y-57932D02*
G01*
X10170822Y-21569D01*
X10170822Y-76113D01*
X10119913Y-57932D02*
G01*
X10196276Y-57932D01*
X10373913Y53339D02*
G01*
X10450276Y53339D01*
X10373913Y53339D02*
G01*
X10373913Y27886D01*
X10377548Y16977D01*
X10384823Y9702D01*
X10392095Y6068D01*
X10403004Y2430D01*
X10421185Y2430D01*
X10432094Y6068D01*
X10439366Y9702D01*
X10446638Y16977D01*
X10450276Y27886D01*
X10450276Y53339D01*
X10373913Y-65204D02*
G01*
X10373913Y-28841D01*
X10406639Y-25204D01*
X10403004Y-28841D01*
X10399367Y-39751D01*
X10399367Y-50660D01*
X10403004Y-61569D01*
X10410276Y-68841D01*
X10421185Y-72478D01*
X10428457Y-72478D01*
X10439366Y-68841D01*
X10446638Y-61569D01*
X10450276Y-50660D01*
X10450276Y-39751D01*
X10446638Y-28841D01*
X10443004Y-25204D01*
X10435729Y-21569D01*
X7075203Y-2692107D02*
G01*
X7140656Y-2692107D01*
X7107928Y-2659379D02*
G01*
X7107928Y-2724833D01*
X7064293Y-2792470D02*
G01*
X7064293Y-2756108D01*
X7097019Y-2752470D01*
X7093384Y-2756108D01*
X7089747Y-2767015D01*
X7089747Y-2777924D01*
X7093384Y-2788833D01*
X7100656Y-2796108D01*
X7111565Y-2799742D01*
X7118837Y-2799742D01*
X7129746Y-2796108D01*
X7137018Y-2788833D01*
X7140656Y-2777924D01*
X7140656Y-2767015D01*
X7137018Y-2756108D01*
X7133384Y-2752470D01*
X7126109Y-2748833D01*
X7064293Y-2823743D02*
G01*
X7140656Y-2852834D01*
X7064293Y-2881924D02*
G01*
X7140656Y-2852834D01*
X7318293Y-2674620D02*
G01*
X7394656Y-2703710D01*
X7318293Y-2732801D02*
G01*
X7394656Y-2703710D01*
X7318293Y-2756801D02*
G01*
X7394656Y-2756801D01*
X7318293Y-2780802D02*
G01*
X7394656Y-2780802D01*
X7318293Y-2780802D02*
G01*
X7394656Y-2831711D01*
X7318293Y-2831711D02*
G01*
X7394656Y-2831711D01*
X7572293Y-2686972D02*
G01*
X7572293Y-2726971D01*
X7601384Y-2705153D01*
X7601384Y-2716062D01*
X7605019Y-2723337D01*
X7608656Y-2726971D01*
X7619565Y-2730609D01*
X7626837Y-2730609D01*
X7637746Y-2726971D01*
X7645018Y-2719699D01*
X7648656Y-2708790D01*
X7648656Y-2697881D01*
X7645018Y-2686972D01*
X7641384Y-2683337D01*
X7634109Y-2679700D01*
X7572293Y-2754609D02*
G01*
X7648656Y-2783700D01*
X7572293Y-2812790D02*
G01*
X7648656Y-2783700D01*
X7572293Y-2844063D02*
G01*
X7572293Y-2884063D01*
X7601384Y-2862244D01*
X7601384Y-2873154D01*
X7605019Y-2880426D01*
X7608656Y-2884063D01*
X7619565Y-2887700D01*
X7626837Y-2887700D01*
X7637746Y-2884063D01*
X7645018Y-2876791D01*
X7648656Y-2865881D01*
X7648656Y-2854972D01*
X7645018Y-2844063D01*
X7641384Y-2840426D01*
X7634109Y-2836791D01*
X7852095Y-2721546D02*
G01*
X7844823Y-2717909D01*
X7837548Y-2710637D01*
X7833913Y-2703362D01*
X7833913Y-2688818D01*
X7837548Y-2681546D01*
X7844823Y-2674272D01*
X7852095Y-2670637D01*
X7863004Y-2667000D01*
X7881185Y-2667000D01*
X7892094Y-2670637D01*
X7899366Y-2674272D01*
X7906638Y-2681546D01*
X7910276Y-2688818D01*
X7910276Y-2703362D01*
X7906638Y-2710637D01*
X7899366Y-2717909D01*
X7892094Y-2721546D01*
X7881185Y-2721546D01*
X7881185Y-2703362D02*
G01*
X7881185Y-2721546D01*
X7833913Y-2745544D02*
G01*
X7910276Y-2745544D01*
X7833913Y-2745544D02*
G01*
X7910276Y-2796453D01*
X7833913Y-2796453D02*
G01*
X7910276Y-2796453D01*
X7833913Y-2820454D02*
G01*
X7910276Y-2820454D01*
X7833913Y-2820454D02*
G01*
X7833913Y-2845909D01*
X7837548Y-2856816D01*
X7844823Y-2864091D01*
X7852095Y-2867726D01*
X7863004Y-2871363D01*
X7881185Y-2871363D01*
X7892094Y-2867726D01*
X7899366Y-2864091D01*
X7906638Y-2856816D01*
X7910276Y-2845909D01*
X7910276Y-2820454D01*
X8090453Y-2672079D02*
G01*
X8166816Y-2672079D01*
X8090453Y-2672079D02*
G01*
X8090453Y-2704807D01*
X8094088Y-2715717D01*
X8097725Y-2719351D01*
X8104997Y-2722989D01*
X8112269Y-2722989D01*
X8119544Y-2719351D01*
X8123179Y-2715717D01*
X8126816Y-2704807D01*
X8126816Y-2672079D01*
X8126816Y-2697533D02*
G01*
X8166816Y-2722989D01*
X8101363Y-2797898D02*
G01*
X8094088Y-2790624D01*
X8090453Y-2779715D01*
X8090453Y-2765170D01*
X8094088Y-2754261D01*
X8101363Y-2746989D01*
X8108635Y-2746989D01*
X8115907Y-2750624D01*
X8119544Y-2754261D01*
X8123179Y-2761533D01*
X8130453Y-2783352D01*
X8134088Y-2790624D01*
X8137725Y-2794261D01*
X8144997Y-2797898D01*
X8155906Y-2797898D01*
X8163179Y-2790624D01*
X8166816Y-2779715D01*
X8166816Y-2765170D01*
X8163179Y-2754261D01*
X8155906Y-2746989D01*
X8090453Y-2847352D02*
G01*
X8166816Y-2847352D01*
X8090453Y-2821896D02*
G01*
X8090453Y-2872806D01*
X8339373Y-2674620D02*
G01*
X8415736Y-2674620D01*
X8339373Y-2674620D02*
G01*
X8339373Y-2700073D01*
X8343008Y-2710982D01*
X8350283Y-2718257D01*
X8357555Y-2721891D01*
X8368464Y-2725529D01*
X8386645Y-2725529D01*
X8397554Y-2721891D01*
X8404826Y-2718257D01*
X8412099Y-2710982D01*
X8415736Y-2700073D01*
X8415736Y-2674620D01*
X8353917Y-2749529D02*
G01*
X8350283Y-2756801D01*
X8339373Y-2767711D01*
X8415736Y-2767711D01*
X8339373Y-2828074D02*
G01*
X8390282Y-2791711D01*
X8390282Y-2846255D01*
X8339373Y-2828074D02*
G01*
X8415736Y-2828074D01*
X8595913Y-2669539D02*
G01*
X8672276Y-2669539D01*
X8595913Y-2669539D02*
G01*
X8595913Y-2694993D01*
X8599548Y-2705902D01*
X8606823Y-2713177D01*
X8614095Y-2716811D01*
X8625004Y-2720449D01*
X8643185Y-2720449D01*
X8654094Y-2716811D01*
X8661366Y-2713177D01*
X8668638Y-2705902D01*
X8672276Y-2694993D01*
X8672276Y-2669539D01*
X8610457Y-2744449D02*
G01*
X8606823Y-2751721D01*
X8595913Y-2762630D01*
X8672276Y-2762630D01*
X8595913Y-2793903D02*
G01*
X8595913Y-2833903D01*
X8625004Y-2812084D01*
X8625004Y-2822994D01*
X8628639Y-2830266D01*
X8632276Y-2833903D01*
X8643185Y-2837540D01*
X8650457Y-2837540D01*
X8661366Y-2833903D01*
X8668638Y-2826631D01*
X8672276Y-2815722D01*
X8672276Y-2804812D01*
X8668638Y-2793903D01*
X8665004Y-2790266D01*
X8657729Y-2786631D01*
X8839753Y-2674620D02*
G01*
X8916116Y-2674620D01*
X8839753Y-2674620D02*
G01*
X8839753Y-2700073D01*
X8843388Y-2710982D01*
X8850663Y-2718257D01*
X8857935Y-2721891D01*
X8868844Y-2725529D01*
X8887025Y-2725529D01*
X8897934Y-2721891D01*
X8905206Y-2718257D01*
X8912479Y-2710982D01*
X8916116Y-2700073D01*
X8916116Y-2674620D01*
X8854297Y-2749529D02*
G01*
X8850663Y-2756801D01*
X8839753Y-2767711D01*
X8916116Y-2767711D01*
X8857935Y-2795346D02*
G01*
X8854297Y-2795346D01*
X8847025Y-2798983D01*
X8843388Y-2802620D01*
X8839753Y-2809892D01*
X8839753Y-2824436D01*
X8843388Y-2831711D01*
X8847025Y-2835346D01*
X8854297Y-2838983D01*
X8861569Y-2838983D01*
X8868844Y-2835346D01*
X8879753Y-2828074D01*
X8916116Y-2791711D01*
X8916116Y-2842620D01*
X8850663Y-2973529D02*
G01*
X8843388Y-2966255D01*
X8839753Y-2955345D01*
X8839753Y-2940801D01*
X8843388Y-2929892D01*
X8850663Y-2922620D01*
X8857935Y-2922620D01*
X8865207Y-2926255D01*
X8868844Y-2929892D01*
X8872479Y-2937164D01*
X8879753Y-2958983D01*
X8883388Y-2966255D01*
X8887025Y-2969892D01*
X8894297Y-2973529D01*
X8905206Y-2973529D01*
X8912479Y-2966255D01*
X8916116Y-2955345D01*
X8916116Y-2940801D01*
X8912479Y-2929892D01*
X8905206Y-2922620D01*
X8857935Y-3052074D02*
G01*
X8850663Y-3048436D01*
X8843388Y-3041164D01*
X8839753Y-3033892D01*
X8839753Y-3019346D01*
X8843388Y-3012074D01*
X8850663Y-3004802D01*
X8857935Y-3001164D01*
X8868844Y-2997527D01*
X8887025Y-2997527D01*
X8897934Y-3001164D01*
X8905206Y-3004802D01*
X8912479Y-3012074D01*
X8916116Y-3019346D01*
X8916116Y-3033892D01*
X8912479Y-3041164D01*
X8905206Y-3048436D01*
X8897934Y-3052074D01*
X8839753Y-3076074D02*
G01*
X8916116Y-3076074D01*
X8916116Y-3076074D02*
G01*
X8916116Y-3119709D01*
X9103913Y-2672079D02*
G01*
X9180276Y-2672079D01*
X9103913Y-2672079D02*
G01*
X9103913Y-2697533D01*
X9107548Y-2708442D01*
X9114823Y-2715717D01*
X9122095Y-2719351D01*
X9133004Y-2722989D01*
X9151185Y-2722989D01*
X9162094Y-2719351D01*
X9169366Y-2715717D01*
X9176638Y-2708442D01*
X9180276Y-2697533D01*
X9180276Y-2672079D01*
X9118457Y-2746989D02*
G01*
X9114823Y-2754261D01*
X9103913Y-2765170D01*
X9180276Y-2765170D01*
X9118457Y-2789171D02*
G01*
X9114823Y-2796443D01*
X9103913Y-2807352D01*
X9180276Y-2807352D01*
X9114823Y-2938261D02*
G01*
X9107548Y-2930989D01*
X9103913Y-2920080D01*
X9103913Y-2905533D01*
X9107548Y-2894624D01*
X9114823Y-2887352D01*
X9122095Y-2887352D01*
X9129367Y-2890989D01*
X9133004Y-2894624D01*
X9136639Y-2901896D01*
X9143913Y-2923715D01*
X9147548Y-2930989D01*
X9151185Y-2934624D01*
X9158457Y-2938261D01*
X9169366Y-2938261D01*
X9176638Y-2930989D01*
X9180276Y-2920080D01*
X9180276Y-2905533D01*
X9176638Y-2894624D01*
X9169366Y-2887352D01*
X9103913Y-2962262D02*
G01*
X9180276Y-2962262D01*
X9103913Y-2962262D02*
G01*
X9103913Y-2987715D01*
X9107548Y-2998624D01*
X9114823Y-3005896D01*
X9122095Y-3009534D01*
X9133004Y-3013168D01*
X9151185Y-3013168D01*
X9162094Y-3009534D01*
X9169366Y-3005896D01*
X9176638Y-2998624D01*
X9180276Y-2987715D01*
X9180276Y-2962262D01*
X9103913Y-3066260D02*
G01*
X9180276Y-3037169D01*
X9103913Y-3066260D02*
G01*
X9180276Y-3095350D01*
X9154822Y-3048078D02*
G01*
X9154822Y-3084443D01*
X9350293Y-2664460D02*
G01*
X9426656Y-2664460D01*
X9350293Y-2664460D02*
G01*
X9350293Y-2689913D01*
X9353928Y-2700822D01*
X9361203Y-2708097D01*
X9368475Y-2711731D01*
X9379384Y-2715369D01*
X9397565Y-2715369D01*
X9408474Y-2711731D01*
X9415746Y-2708097D01*
X9423018Y-2700822D01*
X9426656Y-2689913D01*
X9426656Y-2664460D01*
X9364837Y-2739369D02*
G01*
X9361203Y-2746641D01*
X9350293Y-2757551D01*
X9426656Y-2757551D01*
X9350293Y-2803370D02*
G01*
X9353928Y-2792460D01*
X9364837Y-2785186D01*
X9383019Y-2781551D01*
X9393928Y-2781551D01*
X9412109Y-2785186D01*
X9423018Y-2792460D01*
X9426656Y-2803370D01*
X9426656Y-2810642D01*
X9423018Y-2821551D01*
X9412109Y-2828823D01*
X9393928Y-2832460D01*
X9383019Y-2832460D01*
X9364837Y-2828823D01*
X9353928Y-2821551D01*
X9350293Y-2810642D01*
X9350293Y-2803370D01*
X9606833Y-2672079D02*
G01*
X9683196Y-2672079D01*
X9606833Y-2672079D02*
G01*
X9606833Y-2697533D01*
X9610468Y-2708442D01*
X9617743Y-2715717D01*
X9625015Y-2719351D01*
X9635924Y-2722989D01*
X9654105Y-2722989D01*
X9665014Y-2719351D01*
X9672286Y-2715717D01*
X9679559Y-2708442D01*
X9683196Y-2697533D01*
X9683196Y-2672079D01*
X9632287Y-2794261D02*
G01*
X9643196Y-2790624D01*
X9650468Y-2783352D01*
X9654105Y-2772443D01*
X9654105Y-2768808D01*
X9650468Y-2757898D01*
X9643196Y-2750624D01*
X9632287Y-2746989D01*
X9628649Y-2746989D01*
X9617743Y-2750624D01*
X9610468Y-2757898D01*
X9606833Y-2768808D01*
X9606833Y-2772443D01*
X9610468Y-2783352D01*
X9617743Y-2790624D01*
X9632287Y-2794261D01*
X9650468Y-2794261D01*
X9668649Y-2790624D01*
X9679559Y-2783352D01*
X9683196Y-2772443D01*
X9683196Y-2765170D01*
X9679559Y-2754261D01*
X9672286Y-2750624D01*
X9863373Y-2672079D02*
G01*
X9939736Y-2672079D01*
X9863373Y-2672079D02*
G01*
X9863373Y-2697533D01*
X9867008Y-2708442D01*
X9874283Y-2715717D01*
X9881555Y-2719351D01*
X9892464Y-2722989D01*
X9910645Y-2722989D01*
X9921554Y-2719351D01*
X9928826Y-2715717D01*
X9936099Y-2708442D01*
X9939736Y-2697533D01*
X9939736Y-2672079D01*
X9863373Y-2765170D02*
G01*
X9867008Y-2754261D01*
X9874283Y-2750624D01*
X9881555Y-2750624D01*
X9888827Y-2754261D01*
X9892464Y-2761533D01*
X9896099Y-2776080D01*
X9899736Y-2786989D01*
X9907008Y-2794261D01*
X9914282Y-2797898D01*
X9925189Y-2797898D01*
X9932464Y-2794261D01*
X9936099Y-2790624D01*
X9939736Y-2779715D01*
X9939736Y-2765170D01*
X9936099Y-2754261D01*
X9932464Y-2750624D01*
X9925189Y-2746989D01*
X9914282Y-2746989D01*
X9907008Y-2750624D01*
X9899736Y-2757898D01*
X9896099Y-2768808D01*
X9892464Y-2783352D01*
X9888827Y-2790624D01*
X9881555Y-2794261D01*
X9874283Y-2794261D01*
X9867008Y-2790624D01*
X9863373Y-2779715D01*
X9863373Y-2765170D01*
X10117373Y-2679700D02*
G01*
X10193736Y-2679700D01*
X10117373Y-2679700D02*
G01*
X10117373Y-2705153D01*
X10121008Y-2716062D01*
X10128283Y-2723337D01*
X10135555Y-2726971D01*
X10146464Y-2730609D01*
X10164645Y-2730609D01*
X10175554Y-2726971D01*
X10182826Y-2723337D01*
X10190099Y-2716062D01*
X10193736Y-2705153D01*
X10193736Y-2679700D01*
X10117373Y-2805518D02*
G01*
X10193736Y-2769153D01*
X10117373Y-2754609D02*
G01*
X10117373Y-2805518D01*
X10371373Y-2672079D02*
G01*
X10447736Y-2672079D01*
X10371373Y-2672079D02*
G01*
X10371373Y-2697533D01*
X10375008Y-2708442D01*
X10382283Y-2715717D01*
X10389555Y-2719351D01*
X10400464Y-2722989D01*
X10418645Y-2722989D01*
X10429554Y-2719351D01*
X10436826Y-2715717D01*
X10444099Y-2708442D01*
X10447736Y-2697533D01*
X10447736Y-2672079D01*
X10382283Y-2790624D02*
G01*
X10375008Y-2786989D01*
X10371373Y-2776080D01*
X10371373Y-2768808D01*
X10375008Y-2757898D01*
X10385917Y-2750624D01*
X10404099Y-2746989D01*
X10422282Y-2746989D01*
X10436826Y-2750624D01*
X10444099Y-2757898D01*
X10447736Y-2768808D01*
X10447736Y-2772443D01*
X10444099Y-2783352D01*
X10436826Y-2790624D01*
X10425917Y-2794261D01*
X10422282Y-2794261D01*
X10411373Y-2790624D01*
X10404099Y-2783352D01*
X10400464Y-2772443D01*
X10400464Y-2768808D01*
X10404099Y-2757898D01*
X10411373Y-2750624D01*
X10422282Y-2746989D01*
X9743671Y-3397595D02*
G01*
X9752906Y-3402215D01*
X9762144Y-3411451D01*
X9766762Y-3420686D01*
X9771379Y-3434542D01*
X9771379Y-3457633D01*
X9766762Y-3471486D01*
X9762144Y-3480724D01*
X9752906Y-3489960D01*
X9743671Y-3494577D01*
X9725197Y-3494577D01*
X9715962Y-3489960D01*
X9706724Y-3480724D01*
X9702106Y-3471486D01*
X9697488Y-3457633D01*
X9697488Y-3434542D01*
X9702106Y-3420686D01*
X9706724Y-3411451D01*
X9715962Y-3402215D01*
X9725197Y-3397595D01*
X9743671Y-3397595D01*
X9729815Y-3476104D02*
G01*
X9702106Y-3503815D01*
X9667008Y-3397595D02*
G01*
X9667008Y-3494577D01*
X9667008Y-3397595D02*
G01*
X9625444Y-3397595D01*
X9611591Y-3402215D01*
X9606973Y-3406833D01*
X9602355Y-3416068D01*
X9602355Y-3425304D01*
X9606973Y-3434542D01*
X9611591Y-3439160D01*
X9625444Y-3443777D01*
X9667008Y-3443777D01*
X9634682Y-3443777D02*
G01*
X9602355Y-3494577D01*
X9521075Y-3443777D02*
G01*
X9525693Y-3434542D01*
X9539546Y-3429924D01*
X9553402Y-3429924D01*
X9567255Y-3434542D01*
X9571875Y-3443777D01*
X9567255Y-3453015D01*
X9558020Y-3457633D01*
X9534928Y-3462251D01*
X9525693Y-3466868D01*
X9521075Y-3476104D01*
X9521075Y-3480724D01*
X9525693Y-3489960D01*
X9539546Y-3494577D01*
X9553402Y-3494577D01*
X9567255Y-3489960D01*
X9571875Y-3480724D01*
X9435175Y-3443777D02*
G01*
X9444413Y-3434542D01*
X9453648Y-3429924D01*
X9467504Y-3429924D01*
X9476740Y-3434542D01*
X9485975Y-3443777D01*
X9490595Y-3457633D01*
X9490595Y-3466868D01*
X9485975Y-3480724D01*
X9476740Y-3489960D01*
X9467504Y-3494577D01*
X9453648Y-3494577D01*
X9444413Y-3489960D01*
X9435175Y-3480724D01*
X9349277Y-3429924D02*
G01*
X9349277Y-3494577D01*
X9349277Y-3443777D02*
G01*
X9358515Y-3434542D01*
X9367751Y-3429924D01*
X9381604Y-3429924D01*
X9390842Y-3434542D01*
X9400077Y-3443777D01*
X9404695Y-3457633D01*
X9404695Y-3466868D01*
X9400077Y-3480724D01*
X9390842Y-3489960D01*
X9381604Y-3494577D01*
X9367751Y-3494577D01*
X9358515Y-3489960D01*
X9349277Y-3480724D01*
X9318797Y-3429924D02*
G01*
X9318797Y-3494577D01*
X9318797Y-3448395D02*
G01*
X9304944Y-3434542D01*
X9295706Y-3429924D01*
X9281853Y-3429924D01*
X9272615Y-3434542D01*
X9267997Y-3448395D01*
X9267997Y-3494577D01*
X9166397Y-3397595D02*
G01*
X9129453Y-3494577D01*
X9092506Y-3397595D02*
G01*
X9129453Y-3494577D01*
X9052791Y-3397595D02*
G01*
X9001991Y-3397595D01*
X9029700Y-3434542D01*
X9015844Y-3434542D01*
X9006608Y-3439160D01*
X9001991Y-3443777D01*
X8997373Y-3457633D01*
X8997373Y-3466868D01*
X9001991Y-3480724D01*
X9011226Y-3489960D01*
X9025082Y-3494577D01*
X9038935Y-3494577D01*
X9052791Y-3489960D01*
X9057408Y-3485342D01*
X9062026Y-3476104D01*
X8895773Y-3397595D02*
G01*
X8895773Y-3494577D01*
X8895773Y-3443777D02*
G01*
X8886535Y-3434542D01*
X8877300Y-3429924D01*
X8863444Y-3429924D01*
X8854208Y-3434542D01*
X8844973Y-3443777D01*
X8840355Y-3457633D01*
X8840355Y-3466868D01*
X8844973Y-3480724D01*
X8854208Y-3489960D01*
X8863444Y-3494577D01*
X8877300Y-3494577D01*
X8886535Y-3489960D01*
X8895773Y-3480724D01*
X8805255Y-3429924D02*
G01*
X8777546Y-3494577D01*
X8749837Y-3429924D02*
G01*
X8777546Y-3494577D01*
X8786784Y-3513051D01*
X8796020Y-3522286D01*
X8805255Y-3526904D01*
X8809875Y-3526904D01*
X8648237Y-3397595D02*
G01*
X8648237Y-3494577D01*
X8648237Y-3397595D02*
G01*
X8606675Y-3397595D01*
X8592820Y-3402215D01*
X8588202Y-3406833D01*
X8583584Y-3416068D01*
X8583584Y-3425304D01*
X8588202Y-3434542D01*
X8592820Y-3439160D01*
X8606675Y-3443777D01*
X8648237Y-3443777D02*
G01*
X8606675Y-3443777D01*
X8592820Y-3448395D01*
X8588202Y-3453015D01*
X8583584Y-3462251D01*
X8583584Y-3476104D01*
X8588202Y-3485342D01*
X8592820Y-3489960D01*
X8606675Y-3494577D01*
X8648237Y-3494577D01*
X8553104Y-3397595D02*
G01*
X8548484Y-3402215D01*
X8543866Y-3397595D01*
X8548484Y-3392977D01*
X8553104Y-3397595D01*
X8548484Y-3429924D02*
G01*
X8548484Y-3494577D01*
X8462586Y-3429924D02*
G01*
X8513386Y-3494577D01*
X8513386Y-3429924D02*
G01*
X8462586Y-3429924D01*
X8513386Y-3494577D02*
G01*
X8462586Y-3494577D01*
X8432106Y-3397595D02*
G01*
X8432106Y-3494577D01*
X8367453Y-3397595D02*
G01*
X8432106Y-3462251D01*
X8409015Y-3439160D02*
G01*
X8367453Y-3494577D01*
X8336973Y-3397595D02*
G01*
X8332355Y-3402215D01*
X8327735Y-3397595D01*
X8332355Y-3392977D01*
X8336973Y-3397595D01*
X8332355Y-3429924D02*
G01*
X8332355Y-3494577D01*
X8297255Y-3429924D02*
G01*
X8278784Y-3494577D01*
X8260311Y-3429924D02*
G01*
X8278784Y-3494577D01*
X8260311Y-3429924D02*
G01*
X8241837Y-3494577D01*
X8223364Y-3429924D02*
G01*
X8241837Y-3494577D01*
X8192884Y-3397595D02*
G01*
X8188266Y-3402215D01*
X8183648Y-3397595D01*
X8188266Y-3392977D01*
X8192884Y-3397595D01*
X8188266Y-3429924D02*
G01*
X8188266Y-3494577D01*
X8148551Y-3471486D02*
G01*
X8153168Y-3476104D01*
X8148551Y-3480724D01*
X8143933Y-3476104D01*
X8148551Y-3471486D01*
X8113453Y-3397595D02*
G01*
X8113453Y-3494577D01*
X8113453Y-3397595D02*
G01*
X8048797Y-3494577D01*
X8048797Y-3397595D02*
G01*
X8048797Y-3494577D01*
X7953664Y-3397595D02*
G01*
X8018317Y-3494577D01*
X8018317Y-3397595D02*
G01*
X7953664Y-3397595D01*
X8018317Y-3494577D02*
G01*
X7953664Y-3494577D01*
X11169995Y-527164D02*
G01*
X11266977Y-490220D01*
X11169995Y-527164D02*
G01*
X11266977Y-564111D01*
X11234651Y-504075D02*
G01*
X11234651Y-550255D01*
X11202324Y-594591D02*
G01*
X11266977Y-594591D01*
X11230033Y-594591D02*
G01*
X11216177Y-599208D01*
X11206942Y-608444D01*
X11202324Y-617682D01*
X11202324Y-631535D01*
X11169995Y-717435D02*
G01*
X11266977Y-717435D01*
X11216177Y-717435D02*
G01*
X11206942Y-708197D01*
X11202324Y-698962D01*
X11202324Y-685106D01*
X11206942Y-675871D01*
X11216177Y-666635D01*
X11230033Y-662015D01*
X11239268Y-662015D01*
X11253124Y-666635D01*
X11262359Y-675871D01*
X11266977Y-685106D01*
X11266977Y-698962D01*
X11262359Y-708197D01*
X11253124Y-717435D01*
X11202324Y-747915D02*
G01*
X11248504Y-747915D01*
X11262359Y-752533D01*
X11266977Y-761768D01*
X11266977Y-775624D01*
X11262359Y-784860D01*
X11248504Y-798715D01*
X11202324Y-798715D02*
G01*
X11266977Y-798715D01*
X11169995Y-829195D02*
G01*
X11174615Y-833813D01*
X11169995Y-838431D01*
X11165377Y-833813D01*
X11169995Y-829195D01*
X11202324Y-833813D02*
G01*
X11266977Y-833813D01*
X11202324Y-868911D02*
G01*
X11266977Y-868911D01*
X11220795Y-868911D02*
G01*
X11206942Y-882764D01*
X11202324Y-892002D01*
X11202324Y-905855D01*
X11206942Y-915093D01*
X11220795Y-919711D01*
X11266977Y-919711D01*
X11202324Y-973282D02*
G01*
X11206942Y-964044D01*
X11216177Y-954808D01*
X11230033Y-950191D01*
X11239268Y-950191D01*
X11253124Y-954808D01*
X11262359Y-964044D01*
X11266977Y-973282D01*
X11266977Y-987135D01*
X11262359Y-996373D01*
X11253124Y-1005608D01*
X11239268Y-1010226D01*
X11230033Y-1010226D01*
X11216177Y-1005608D01*
X11206942Y-996373D01*
X11202324Y-987135D01*
X11202324Y-973282D01*
X11169995Y-1111826D02*
G01*
X11266977Y-1111826D01*
X11169995Y-1111826D02*
G01*
X11266977Y-1148773D01*
X11169995Y-1185717D02*
G01*
X11266977Y-1148773D01*
X11169995Y-1185717D02*
G01*
X11266977Y-1185717D01*
X11169995Y-1216197D02*
G01*
X11266977Y-1216197D01*
X11169995Y-1280853D02*
G01*
X11234651Y-1216197D01*
X11211559Y-1239288D02*
G01*
X11266977Y-1280853D01*
X11169995Y-1311333D02*
G01*
X11266977Y-1311333D01*
X11169995Y-1311333D02*
G01*
X11169995Y-1352895D01*
X11174615Y-1366751D01*
X11179233Y-1371368D01*
X11188468Y-1375986D01*
X11197704Y-1375986D01*
X11206942Y-1371368D01*
X11211559Y-1366751D01*
X11216177Y-1352895D01*
X11216177Y-1311333D01*
X11216177Y-1343660D02*
G01*
X11266977Y-1375986D01*
X11183851Y-1542242D02*
G01*
X11174615Y-1533004D01*
X11169995Y-1519151D01*
X11169995Y-1500677D01*
X11174615Y-1486824D01*
X11183851Y-1477586D01*
X11193086Y-1477586D01*
X11202324Y-1482204D01*
X11206942Y-1486824D01*
X11211559Y-1496060D01*
X11220795Y-1523768D01*
X11225415Y-1533004D01*
X11230033Y-1537624D01*
X11239268Y-1542242D01*
X11253124Y-1542242D01*
X11262359Y-1533004D01*
X11266977Y-1519151D01*
X11266977Y-1500677D01*
X11262359Y-1486824D01*
X11253124Y-1477586D01*
X11230033Y-1572722D02*
G01*
X11230033Y-1628139D01*
X11220795Y-1628139D01*
X11211559Y-1623522D01*
X11206942Y-1618904D01*
X11202324Y-1609666D01*
X11202324Y-1595813D01*
X11206942Y-1586575D01*
X11216177Y-1577339D01*
X11230033Y-1572722D01*
X11239268Y-1572722D01*
X11253124Y-1577339D01*
X11262359Y-1586575D01*
X11266977Y-1595813D01*
X11266977Y-1609666D01*
X11262359Y-1618904D01*
X11253124Y-1628139D01*
X11202324Y-1658620D02*
G01*
X11266977Y-1658620D01*
X11230033Y-1658620D02*
G01*
X11216177Y-1663237D01*
X11206942Y-1672475D01*
X11202324Y-1681711D01*
X11202324Y-1695564D01*
X11169995Y-1726044D02*
G01*
X11174615Y-1730664D01*
X11169995Y-1735282D01*
X11165377Y-1730664D01*
X11169995Y-1726044D01*
X11202324Y-1730664D02*
G01*
X11266977Y-1730664D01*
X11230033Y-1765762D02*
G01*
X11230033Y-1821179D01*
X11220795Y-1821179D01*
X11211559Y-1816562D01*
X11206942Y-1811944D01*
X11202324Y-1802706D01*
X11202324Y-1788853D01*
X11206942Y-1779615D01*
X11216177Y-1770379D01*
X11230033Y-1765762D01*
X11239268Y-1765762D01*
X11253124Y-1770379D01*
X11262359Y-1779615D01*
X11266977Y-1788853D01*
X11266977Y-1802706D01*
X11262359Y-1811944D01*
X11253124Y-1821179D01*
X11216177Y-1902460D02*
G01*
X11206942Y-1897842D01*
X11202324Y-1883986D01*
X11202324Y-1870133D01*
X11206942Y-1856277D01*
X11216177Y-1851660D01*
X11225415Y-1856277D01*
X11230033Y-1865515D01*
X11234651Y-1888604D01*
X11239268Y-1897842D01*
X11248504Y-1902460D01*
X11253124Y-1902460D01*
X11262359Y-1897842D01*
X11266977Y-1883986D01*
X11266977Y-1870133D01*
X11262359Y-1856277D01*
X11253124Y-1851660D01*
X11169995Y-2004060D02*
G01*
X11266977Y-2004060D01*
X11169995Y-2004060D02*
G01*
X11266977Y-2041004D01*
X11169995Y-2077951D02*
G01*
X11266977Y-2041004D01*
X11169995Y-2077951D02*
G01*
X11266977Y-2077951D01*
X11193086Y-2177704D02*
G01*
X11183851Y-2173084D01*
X11174615Y-2163848D01*
X11169995Y-2154613D01*
X11169995Y-2136139D01*
X11174615Y-2126904D01*
X11183851Y-2117666D01*
X11193086Y-2113048D01*
X11206942Y-2108431D01*
X11230033Y-2108431D01*
X11243886Y-2113048D01*
X11253124Y-2117666D01*
X11262359Y-2126904D01*
X11266977Y-2136139D01*
X11266977Y-2154613D01*
X11262359Y-2163848D01*
X11253124Y-2173084D01*
X11243886Y-2177704D01*
X11169995Y-2208184D02*
G01*
X11239268Y-2208184D01*
X11253124Y-2212802D01*
X11262359Y-2222037D01*
X11266977Y-2235893D01*
X11266977Y-2245128D01*
X11262359Y-2258984D01*
X11253124Y-2268220D01*
X11239268Y-2272837D01*
X11169995Y-2272837D01*
X712815Y-220055D02*
G01*
X712815Y-270855D01*
X749762Y-243146D01*
X749762Y-257002D01*
X754379Y-266237D01*
X758997Y-270855D01*
X772853Y-275475D01*
X782088Y-275475D01*
X795944Y-270855D01*
X805179Y-261620D01*
X809797Y-247764D01*
X809797Y-233911D01*
X805179Y-220055D01*
X800562Y-215437D01*
X791324Y-210820D01*
X786706Y-310573D02*
G01*
X791324Y-305955D01*
X795944Y-310573D01*
X791324Y-315191D01*
X786706Y-310573D01*
X712815Y-410324D02*
G01*
X809797Y-364144D01*
X712815Y-345671D02*
G01*
X712815Y-410324D01*
X712815Y-440804D02*
G01*
X809797Y-477751D01*
X712815Y-514695D02*
G01*
X809797Y-477751D01*
X712815Y-616295D02*
G01*
X809797Y-616295D01*
X809797Y-616295D02*
G01*
X809797Y-671715D01*
X712815Y-702195D02*
G01*
X717435Y-706813D01*
X712815Y-711431D01*
X708197Y-706813D01*
X712815Y-702195D01*
X745144Y-706813D02*
G01*
X809797Y-706813D01*
X712815Y-755764D02*
G01*
X791324Y-755764D01*
X805179Y-760384D01*
X809797Y-769620D01*
X809797Y-778855D01*
X745144Y-741911D02*
G01*
X745144Y-774237D01*
X712815Y-809335D02*
G01*
X809797Y-809335D01*
X763615Y-809335D02*
G01*
X749762Y-823191D01*
X745144Y-832426D01*
X745144Y-846282D01*
X749762Y-855517D01*
X763615Y-860135D01*
X809797Y-860135D01*
X712815Y-890615D02*
G01*
X717435Y-895235D01*
X712815Y-899853D01*
X708197Y-895235D01*
X712815Y-890615D01*
X745144Y-895235D02*
G01*
X809797Y-895235D01*
X745144Y-930333D02*
G01*
X791324Y-930333D01*
X805179Y-934951D01*
X809797Y-944186D01*
X809797Y-958042D01*
X805179Y-967277D01*
X791324Y-981133D01*
X745144Y-981133D02*
G01*
X809797Y-981133D01*
X745144Y-1011613D02*
G01*
X809797Y-1011613D01*
X763615Y-1011613D02*
G01*
X749762Y-1025466D01*
X745144Y-1034704D01*
X745144Y-1048557D01*
X749762Y-1057795D01*
X763615Y-1062413D01*
X809797Y-1062413D01*
X763615Y-1062413D02*
G01*
X749762Y-1076266D01*
X745144Y-1085504D01*
X745144Y-1099357D01*
X749762Y-1108595D01*
X763615Y-1113213D01*
X809797Y-1113213D01*
X712815Y-1214813D02*
G01*
X809797Y-1214813D01*
X712815Y-1214813D02*
G01*
X712815Y-1256375D01*
X717435Y-1270231D01*
X722053Y-1274848D01*
X731288Y-1279466D01*
X745144Y-1279466D01*
X754379Y-1274848D01*
X758997Y-1270231D01*
X763615Y-1256375D01*
X763615Y-1214813D01*
X745144Y-1333037D02*
G01*
X749762Y-1323802D01*
X758997Y-1314564D01*
X772853Y-1309946D01*
X782088Y-1309946D01*
X795944Y-1314564D01*
X805179Y-1323802D01*
X809797Y-1333037D01*
X809797Y-1346893D01*
X805179Y-1356128D01*
X795944Y-1365364D01*
X782088Y-1369984D01*
X772853Y-1369984D01*
X758997Y-1365364D01*
X749762Y-1356128D01*
X745144Y-1346893D01*
X745144Y-1333037D01*
X712815Y-1400464D02*
G01*
X809797Y-1400464D01*
X745144Y-1435562D02*
G01*
X809797Y-1463271D01*
X745144Y-1490979D02*
G01*
X809797Y-1463271D01*
X828271Y-1454035D01*
X837506Y-1444797D01*
X842124Y-1435562D01*
X842124Y-1430944D01*
X745144Y-1521460D02*
G01*
X809797Y-1521460D01*
X763615Y-1521460D02*
G01*
X749762Y-1535315D01*
X745144Y-1544551D01*
X745144Y-1558404D01*
X749762Y-1567642D01*
X763615Y-1572260D01*
X809797Y-1572260D01*
X763615Y-1572260D02*
G01*
X749762Y-1586115D01*
X745144Y-1595351D01*
X745144Y-1609204D01*
X749762Y-1618442D01*
X763615Y-1623060D01*
X809797Y-1623060D01*
X772853Y-1653539D02*
G01*
X772853Y-1708957D01*
X763615Y-1708957D01*
X754379Y-1704339D01*
X749762Y-1699722D01*
X745144Y-1690484D01*
X745144Y-1676631D01*
X749762Y-1667395D01*
X758997Y-1658157D01*
X772853Y-1653539D01*
X782088Y-1653539D01*
X795944Y-1658157D01*
X805179Y-1667395D01*
X809797Y-1676631D01*
X809797Y-1690484D01*
X805179Y-1699722D01*
X795944Y-1708957D01*
X745144Y-1739437D02*
G01*
X809797Y-1739437D01*
X772853Y-1739437D02*
G01*
X758997Y-1744055D01*
X749762Y-1753293D01*
X745144Y-1762528D01*
X745144Y-1776384D01*
X712815Y-1877984D02*
G01*
X809797Y-1877984D01*
X712815Y-1877984D02*
G01*
X712815Y-1919546D01*
X717435Y-1933402D01*
X722053Y-1938020D01*
X731288Y-1942637D01*
X740524Y-1942637D01*
X749762Y-1938020D01*
X754379Y-1933402D01*
X758997Y-1919546D01*
X758997Y-1877984D02*
G01*
X758997Y-1919546D01*
X763615Y-1933402D01*
X768235Y-1938020D01*
X777471Y-1942637D01*
X791324Y-1942637D01*
X800562Y-1938020D01*
X805179Y-1933402D01*
X809797Y-1919546D01*
X809797Y-1877984D01*
X745144Y-2028535D02*
G01*
X809797Y-2028535D01*
X758997Y-2028535D02*
G01*
X749762Y-2019300D01*
X745144Y-2010064D01*
X745144Y-1996208D01*
X749762Y-1986973D01*
X758997Y-1977735D01*
X772853Y-1973117D01*
X782088Y-1973117D01*
X795944Y-1977735D01*
X805179Y-1986973D01*
X809797Y-1996208D01*
X809797Y-2010064D01*
X805179Y-2019300D01*
X795944Y-2028535D01*
X712815Y-2072871D02*
G01*
X791324Y-2072871D01*
X805179Y-2077488D01*
X809797Y-2086724D01*
X809797Y-2095962D01*
X745144Y-2059015D02*
G01*
X745144Y-2091344D01*
X712815Y-2140295D02*
G01*
X791324Y-2140295D01*
X805179Y-2144915D01*
X809797Y-2154151D01*
X809797Y-2163386D01*
X745144Y-2126442D02*
G01*
X745144Y-2158768D01*
X772853Y-2193866D02*
G01*
X772853Y-2249284D01*
X763615Y-2249284D01*
X754379Y-2244666D01*
X749762Y-2240048D01*
X745144Y-2230813D01*
X745144Y-2216957D01*
X749762Y-2207722D01*
X758997Y-2198484D01*
X772853Y-2193866D01*
X782088Y-2193866D01*
X795944Y-2198484D01*
X805179Y-2207722D01*
X809797Y-2216957D01*
X809797Y-2230813D01*
X805179Y-2240048D01*
X795944Y-2249284D01*
X745144Y-2279764D02*
G01*
X809797Y-2279764D01*
X772853Y-2279764D02*
G01*
X758997Y-2284384D01*
X749762Y-2293620D01*
X745144Y-2302855D01*
X745144Y-2316711D01*
X745144Y-2351808D02*
G01*
X809797Y-2379517D01*
X745144Y-2407226D02*
G01*
X809797Y-2379517D01*
X828271Y-2370282D01*
X837506Y-2361044D01*
X842124Y-2351808D01*
X842124Y-2347191D01*
X922502Y502920D02*
G01*
X989322Y487011D01*
X922502Y471101D02*
G01*
X989322Y487011D01*
X922502Y471101D02*
G01*
X989322Y455193D01*
X922502Y439282D02*
G01*
X989322Y455193D01*
X922502Y392828D02*
G01*
X989322Y418284D01*
X922502Y392828D02*
G01*
X989322Y367375D01*
X967049Y408739D02*
G01*
X967049Y376920D01*
X922502Y346374D02*
G01*
X989322Y346374D01*
X922502Y346374D02*
G01*
X922502Y317738D01*
X925685Y308193D01*
X928867Y305010D01*
X935230Y301828D01*
X941595Y301828D01*
X947958Y305010D01*
X951141Y308193D01*
X954321Y317738D01*
X954321Y346374D01*
X954321Y324101D02*
G01*
X989322Y301828D01*
X922502Y280830D02*
G01*
X989322Y280830D01*
X922502Y280830D02*
G01*
X989322Y236283D01*
X922502Y236283D02*
G01*
X989322Y236283D01*
X922502Y215282D02*
G01*
X989322Y215282D01*
X922502Y194284D02*
G01*
X989322Y194284D01*
X922502Y194284D02*
G01*
X989322Y149738D01*
X922502Y149738D02*
G01*
X989322Y149738D01*
X938413Y81010D02*
G01*
X932047Y84193D01*
X925685Y90556D01*
X922502Y96918D01*
X922502Y109646D01*
X925685Y116011D01*
X932047Y122374D01*
X938413Y125557D01*
X947958Y128737D01*
X963866Y128737D01*
X973411Y125557D01*
X979777Y122374D01*
X986139Y116011D01*
X989322Y109646D01*
X989322Y96918D01*
X986139Y90556D01*
X979777Y84193D01*
X973411Y81010D01*
X963866Y81010D01*
X963866Y96918D02*
G01*
X963866Y81010D01*
X951141Y56829D02*
G01*
X954321Y60010D01*
X957503Y56829D01*
X954321Y53647D01*
X951141Y56829D01*
X973411Y56829D02*
G01*
X976594Y60010D01*
X979777Y56829D01*
X976594Y53647D01*
X973411Y56829D01*
X938413Y-64079D02*
G01*
X932047Y-60899D01*
X925685Y-54533D01*
X922502Y-48171D01*
X922502Y-35443D01*
X925685Y-29080D01*
X932047Y-22715D01*
X938413Y-19535D01*
X947958Y-16352D01*
X963866Y-16352D01*
X973411Y-19535D01*
X979777Y-22715D01*
X986139Y-29080D01*
X989322Y-35443D01*
X989322Y-48171D01*
X986139Y-54533D01*
X979777Y-60899D01*
X973411Y-64079D01*
X922502Y-85079D02*
G01*
X989322Y-85079D01*
X957503Y-85079D02*
G01*
X947958Y-94625D01*
X944775Y-100987D01*
X944775Y-110535D01*
X947958Y-116898D01*
X957503Y-120081D01*
X989322Y-120081D01*
X963866Y-141079D02*
G01*
X963866Y-179263D01*
X957503Y-179263D01*
X951141Y-176080D01*
X947958Y-172897D01*
X944775Y-166535D01*
X944775Y-156989D01*
X947958Y-150624D01*
X954321Y-144261D01*
X963866Y-141079D01*
X970231Y-141079D01*
X979777Y-144261D01*
X986139Y-150624D01*
X989322Y-156989D01*
X989322Y-166535D01*
X986139Y-172897D01*
X979777Y-179263D01*
X954321Y-238442D02*
G01*
X947958Y-232079D01*
X944775Y-225717D01*
X944775Y-216171D01*
X947958Y-209806D01*
X954321Y-203443D01*
X963866Y-200261D01*
X970231Y-200261D01*
X979777Y-203443D01*
X986139Y-209806D01*
X989322Y-216171D01*
X989322Y-225717D01*
X986139Y-232079D01*
X979777Y-238442D01*
X922502Y-259443D02*
G01*
X989322Y-259443D01*
X944775Y-291261D02*
G01*
X976594Y-259443D01*
X963866Y-272171D02*
G01*
X989322Y-294444D01*
X922502Y-364444D02*
G01*
X989322Y-364444D01*
X922502Y-364444D02*
G01*
X989322Y-389897D01*
X922502Y-415353D02*
G01*
X989322Y-389897D01*
X922502Y-415353D02*
G01*
X989322Y-415353D01*
X922502Y-436351D02*
G01*
X989322Y-436351D01*
X922502Y-480898D02*
G01*
X967049Y-436351D01*
X951141Y-452262D02*
G01*
X989322Y-480898D01*
X922502Y-501898D02*
G01*
X989322Y-501898D01*
X922502Y-501898D02*
G01*
X922502Y-530534D01*
X925685Y-540080D01*
X928867Y-543262D01*
X935230Y-546442D01*
X941595Y-546442D01*
X947958Y-543262D01*
X951141Y-540080D01*
X954321Y-530534D01*
X954321Y-501898D01*
X954321Y-524169D02*
G01*
X989322Y-546442D01*
X922502Y-654626D02*
G01*
X989322Y-654626D01*
X954321Y-654626D02*
G01*
X947958Y-648261D01*
X944775Y-641898D01*
X944775Y-632353D01*
X947958Y-625988D01*
X954321Y-619625D01*
X963866Y-616442D01*
X970231Y-616442D01*
X979777Y-619625D01*
X986139Y-625988D01*
X989322Y-632353D01*
X989322Y-641898D01*
X986139Y-648261D01*
X979777Y-654626D01*
X944775Y-691535D02*
G01*
X947958Y-685170D01*
X954321Y-678807D01*
X963866Y-675624D01*
X970231Y-675624D01*
X979777Y-678807D01*
X986139Y-685170D01*
X989322Y-691535D01*
X989322Y-701080D01*
X986139Y-707443D01*
X979777Y-713806D01*
X970231Y-716988D01*
X963866Y-716988D01*
X954321Y-713806D01*
X947958Y-707443D01*
X944775Y-701080D01*
X944775Y-691535D01*
X954321Y-776170D02*
G01*
X947958Y-769807D01*
X944775Y-763442D01*
X944775Y-753897D01*
X947958Y-747534D01*
X954321Y-741171D01*
X963866Y-737989D01*
X970231Y-737989D01*
X979777Y-741171D01*
X986139Y-747534D01*
X989322Y-753897D01*
X989322Y-763442D01*
X986139Y-769807D01*
X979777Y-776170D01*
X944775Y-797171D02*
G01*
X976594Y-797171D01*
X986139Y-800351D01*
X989322Y-806716D01*
X989322Y-816262D01*
X986139Y-822624D01*
X976594Y-832170D01*
X944775Y-832170D02*
G01*
X989322Y-832170D01*
X944775Y-853170D02*
G01*
X989322Y-853170D01*
X957503Y-853170D02*
G01*
X947958Y-862716D01*
X944775Y-869078D01*
X944775Y-878626D01*
X947958Y-884989D01*
X957503Y-888171D01*
X989322Y-888171D01*
X957503Y-888171D02*
G01*
X947958Y-897717D01*
X944775Y-904079D01*
X944775Y-913625D01*
X947958Y-919987D01*
X957503Y-923170D01*
X989322Y-923170D01*
X963866Y-944171D02*
G01*
X963866Y-982352D01*
X957503Y-982352D01*
X951141Y-979170D01*
X947958Y-975989D01*
X944775Y-969624D01*
X944775Y-960079D01*
X947958Y-953716D01*
X954321Y-947353D01*
X963866Y-944171D01*
X970231Y-944171D01*
X979777Y-947353D01*
X986139Y-953716D01*
X989322Y-960079D01*
X989322Y-969624D01*
X986139Y-975989D01*
X979777Y-982352D01*
X944775Y-1003353D02*
G01*
X989322Y-1003353D01*
X957503Y-1003353D02*
G01*
X947958Y-1012898D01*
X944775Y-1019261D01*
X944775Y-1028806D01*
X947958Y-1035171D01*
X957503Y-1038352D01*
X989322Y-1038352D01*
X922502Y-1068898D02*
G01*
X976594Y-1068898D01*
X986139Y-1072080D01*
X989322Y-1078443D01*
X989322Y-1084806D01*
X944775Y-1059352D02*
G01*
X944775Y-1081625D01*
X944775Y-1143988D02*
G01*
X989322Y-1143988D01*
X954321Y-1143988D02*
G01*
X947958Y-1137625D01*
X944775Y-1131262D01*
X944775Y-1121717D01*
X947958Y-1115352D01*
X954321Y-1108989D01*
X963866Y-1105806D01*
X970231Y-1105806D01*
X979777Y-1108989D01*
X986139Y-1115352D01*
X989322Y-1121717D01*
X989322Y-1131262D01*
X986139Y-1137625D01*
X979777Y-1143988D01*
X922502Y-1174534D02*
G01*
X976594Y-1174534D01*
X986139Y-1177716D01*
X989322Y-1184079D01*
X989322Y-1190444D01*
X944775Y-1164988D02*
G01*
X944775Y-1187262D01*
X922502Y-1211442D02*
G01*
X925685Y-1214625D01*
X922502Y-1217808D01*
X919322Y-1214625D01*
X922502Y-1211442D01*
X944775Y-1214625D02*
G01*
X989322Y-1214625D01*
X944775Y-1254716D02*
G01*
X947958Y-1248351D01*
X954321Y-1241988D01*
X963866Y-1238806D01*
X970231Y-1238806D01*
X979777Y-1241988D01*
X986139Y-1248351D01*
X989322Y-1254716D01*
X989322Y-1264262D01*
X986139Y-1270624D01*
X979777Y-1276990D01*
X970231Y-1280170D01*
X963866Y-1280170D01*
X954321Y-1276990D01*
X947958Y-1270624D01*
X944775Y-1264262D01*
X944775Y-1254716D01*
X944775Y-1301170D02*
G01*
X989322Y-1301170D01*
X957503Y-1301170D02*
G01*
X947958Y-1310716D01*
X944775Y-1317078D01*
X944775Y-1326624D01*
X947958Y-1332989D01*
X957503Y-1336172D01*
X989322Y-1336172D01*
X922502Y-1431625D02*
G01*
X922502Y-1425262D01*
X925685Y-1418897D01*
X935230Y-1415717D01*
X989322Y-1415717D01*
X944775Y-1406171D02*
G01*
X944775Y-1428442D01*
X944775Y-1468534D02*
G01*
X947958Y-1462171D01*
X954321Y-1455806D01*
X963866Y-1452626D01*
X970231Y-1452626D01*
X979777Y-1455806D01*
X986139Y-1462171D01*
X989322Y-1468534D01*
X989322Y-1478079D01*
X986139Y-1484444D01*
X979777Y-1490807D01*
X970231Y-1493989D01*
X963866Y-1493989D01*
X954321Y-1490807D01*
X947958Y-1484444D01*
X944775Y-1478079D01*
X944775Y-1468534D01*
X944775Y-1514988D02*
G01*
X989322Y-1514988D01*
X963866Y-1514988D02*
G01*
X954321Y-1518170D01*
X947958Y-1524533D01*
X944775Y-1530898D01*
X944775Y-1540443D01*
X944775Y-1610443D02*
G01*
X989322Y-1610443D01*
X963866Y-1610443D02*
G01*
X954321Y-1613626D01*
X947958Y-1619989D01*
X944775Y-1626351D01*
X944775Y-1635897D01*
X963866Y-1656897D02*
G01*
X963866Y-1695079D01*
X957503Y-1695079D01*
X951141Y-1691899D01*
X947958Y-1688716D01*
X944775Y-1682353D01*
X944775Y-1672808D01*
X947958Y-1666443D01*
X954321Y-1660080D01*
X963866Y-1656897D01*
X970231Y-1656897D01*
X979777Y-1660080D01*
X986139Y-1666443D01*
X989322Y-1672808D01*
X989322Y-1682353D01*
X986139Y-1688716D01*
X979777Y-1695079D01*
X944775Y-1754261D02*
G01*
X1011595Y-1754261D01*
X954321Y-1754261D02*
G01*
X947958Y-1747898D01*
X944775Y-1741535D01*
X944775Y-1731987D01*
X947958Y-1725625D01*
X954321Y-1719262D01*
X963866Y-1716079D01*
X970231Y-1716079D01*
X979777Y-1719262D01*
X986139Y-1725625D01*
X989322Y-1731987D01*
X989322Y-1741535D01*
X986139Y-1747898D01*
X979777Y-1754261D01*
X944775Y-1775261D02*
G01*
X976594Y-1775261D01*
X986139Y-1778444D01*
X989322Y-1784807D01*
X989322Y-1794352D01*
X986139Y-1800715D01*
X976594Y-1810263D01*
X944775Y-1810263D02*
G01*
X989322Y-1810263D01*
X922502Y-1831261D02*
G01*
X925685Y-1834443D01*
X922502Y-1837626D01*
X919322Y-1834443D01*
X922502Y-1831261D01*
X944775Y-1834443D02*
G01*
X989322Y-1834443D01*
X944775Y-1858624D02*
G01*
X989322Y-1858624D01*
X963866Y-1858624D02*
G01*
X954321Y-1861807D01*
X947958Y-1868170D01*
X944775Y-1874535D01*
X944775Y-1884080D01*
X963866Y-1905078D02*
G01*
X963866Y-1943262D01*
X957503Y-1943262D01*
X951141Y-1940079D01*
X947958Y-1936897D01*
X944775Y-1930534D01*
X944775Y-1920989D01*
X947958Y-1914626D01*
X954321Y-1908261D01*
X963866Y-1905078D01*
X970231Y-1905078D01*
X979777Y-1908261D01*
X986139Y-1914626D01*
X989322Y-1920989D01*
X989322Y-1930534D01*
X986139Y-1936897D01*
X979777Y-1943262D01*
X922502Y-2002444D02*
G01*
X989322Y-2002444D01*
X954321Y-2002444D02*
G01*
X947958Y-1996079D01*
X944775Y-1989716D01*
X944775Y-1980171D01*
X947958Y-1973806D01*
X954321Y-1967443D01*
X963866Y-1964260D01*
X970231Y-1964260D01*
X979777Y-1967443D01*
X986139Y-1973806D01*
X989322Y-1980171D01*
X989322Y-1989716D01*
X986139Y-1996079D01*
X979777Y-2002444D01*
X922502Y-2072444D02*
G01*
X989322Y-2072444D01*
X954321Y-2072444D02*
G01*
X947958Y-2078807D01*
X944775Y-2085169D01*
X944775Y-2094715D01*
X947958Y-2101080D01*
X954321Y-2107443D01*
X963866Y-2110625D01*
X970231Y-2110625D01*
X979777Y-2107443D01*
X986139Y-2101080D01*
X989322Y-2094715D01*
X989322Y-2085169D01*
X986139Y-2078807D01*
X979777Y-2072444D01*
X944775Y-2169807D02*
G01*
X989322Y-2169807D01*
X954321Y-2169807D02*
G01*
X947958Y-2163442D01*
X944775Y-2157079D01*
X944775Y-2147534D01*
X947958Y-2141171D01*
X954321Y-2134806D01*
X963866Y-2131626D01*
X970231Y-2131626D01*
X979777Y-2134806D01*
X986139Y-2141171D01*
X989322Y-2147534D01*
X989322Y-2157079D01*
X986139Y-2163442D01*
X979777Y-2169807D01*
X922502Y-2200353D02*
G01*
X976594Y-2200353D01*
X986139Y-2203533D01*
X989322Y-2209899D01*
X989322Y-2216261D01*
X944775Y-2190808D02*
G01*
X944775Y-2213079D01*
X922502Y-2246807D02*
G01*
X976594Y-2246807D01*
X986139Y-2249987D01*
X989322Y-2256353D01*
X989322Y-2262715D01*
X944775Y-2237262D02*
G01*
X944775Y-2259535D01*
X963866Y-2283716D02*
G01*
X963866Y-2321897D01*
X957503Y-2321897D01*
X951141Y-2318715D01*
X947958Y-2315535D01*
X944775Y-2309169D01*
X944775Y-2299624D01*
X947958Y-2293261D01*
X954321Y-2286899D01*
X963866Y-2283716D01*
X970231Y-2283716D01*
X979777Y-2286899D01*
X986139Y-2293261D01*
X989322Y-2299624D01*
X989322Y-2309169D01*
X986139Y-2315535D01*
X979777Y-2321897D01*
X944775Y-2342898D02*
G01*
X989322Y-2342898D01*
X963866Y-2342898D02*
G01*
X954321Y-2346081D01*
X947958Y-2352443D01*
X944775Y-2358806D01*
X944775Y-2368351D01*
X944775Y-2392535D02*
G01*
X989322Y-2411625D01*
X944775Y-2430716D02*
G01*
X989322Y-2411625D01*
X1002050Y-2405260D01*
X1008413Y-2398897D01*
X1011595Y-2392535D01*
X1011595Y-2389352D01*
X954321Y-2535717D02*
G01*
X947958Y-2532534D01*
X944775Y-2522989D01*
X944775Y-2513444D01*
X947958Y-2503898D01*
X954321Y-2500716D01*
X960686Y-2503898D01*
X963866Y-2510261D01*
X967049Y-2526169D01*
X970231Y-2532534D01*
X976594Y-2535717D01*
X979777Y-2535717D01*
X986139Y-2532534D01*
X989322Y-2522989D01*
X989322Y-2513444D01*
X986139Y-2503898D01*
X979777Y-2500716D01*
X944775Y-2556715D02*
G01*
X1011595Y-2556715D01*
X954321Y-2556715D02*
G01*
X947958Y-2563080D01*
X944775Y-2569443D01*
X944775Y-2578988D01*
X947958Y-2585351D01*
X954321Y-2591716D01*
X963866Y-2594897D01*
X970231Y-2594897D01*
X979777Y-2591716D01*
X986139Y-2585351D01*
X989322Y-2578988D01*
X989322Y-2569443D01*
X986139Y-2563080D01*
X979777Y-2556715D01*
X963866Y-2615897D02*
G01*
X963866Y-2654079D01*
X957503Y-2654079D01*
X951141Y-2650898D01*
X947958Y-2647716D01*
X944775Y-2641353D01*
X944775Y-2631808D01*
X947958Y-2625443D01*
X954321Y-2619080D01*
X963866Y-2615897D01*
X970231Y-2615897D01*
X979777Y-2619080D01*
X986139Y-2625443D01*
X989322Y-2631808D01*
X989322Y-2641353D01*
X986139Y-2647716D01*
X979777Y-2654079D01*
X954321Y-2713261D02*
G01*
X947958Y-2706898D01*
X944775Y-2700535D01*
X944775Y-2690990D01*
X947958Y-2684625D01*
X954321Y-2678262D01*
X963866Y-2675079D01*
X970231Y-2675079D01*
X979777Y-2678262D01*
X986139Y-2684625D01*
X989322Y-2690990D01*
X989322Y-2700535D01*
X986139Y-2706898D01*
X979777Y-2713261D01*
X922502Y-2734261D02*
G01*
X925685Y-2737444D01*
X922502Y-2740624D01*
X919322Y-2737444D01*
X922502Y-2734261D01*
X944775Y-2737444D02*
G01*
X989322Y-2737444D01*
X922502Y-2787081D02*
G01*
X922502Y-2780715D01*
X925685Y-2774353D01*
X935230Y-2771170D01*
X989322Y-2771170D01*
X944775Y-2761625D02*
G01*
X944775Y-2783898D01*
X922502Y-2808079D02*
G01*
X925685Y-2811261D01*
X922502Y-2814444D01*
X919322Y-2811261D01*
X922502Y-2808079D01*
X944775Y-2811261D02*
G01*
X989322Y-2811261D01*
X954321Y-2873626D02*
G01*
X947958Y-2867261D01*
X944775Y-2860898D01*
X944775Y-2851353D01*
X947958Y-2844987D01*
X954321Y-2838625D01*
X963866Y-2835442D01*
X970231Y-2835442D01*
X979777Y-2838625D01*
X986139Y-2844987D01*
X989322Y-2851353D01*
X989322Y-2860898D01*
X986139Y-2867261D01*
X979777Y-2873626D01*
X944775Y-2932808D02*
G01*
X989322Y-2932808D01*
X954321Y-2932808D02*
G01*
X947958Y-2926443D01*
X944775Y-2920080D01*
X944775Y-2910535D01*
X947958Y-2904169D01*
X954321Y-2897807D01*
X963866Y-2894624D01*
X970231Y-2894624D01*
X979777Y-2897807D01*
X986139Y-2904169D01*
X989322Y-2910535D01*
X989322Y-2920080D01*
X986139Y-2926443D01*
X979777Y-2932808D01*
X922502Y-2963351D02*
G01*
X976594Y-2963351D01*
X986139Y-2966534D01*
X989322Y-2972897D01*
X989322Y-2979262D01*
X944775Y-2953806D02*
G01*
X944775Y-2976079D01*
X922502Y-3000260D02*
G01*
X925685Y-3003443D01*
X922502Y-3006625D01*
X919322Y-3003443D01*
X922502Y-3000260D01*
X944775Y-3003443D02*
G01*
X989322Y-3003443D01*
X944775Y-3043534D02*
G01*
X947958Y-3037171D01*
X954321Y-3030806D01*
X963866Y-3027626D01*
X970231Y-3027626D01*
X979777Y-3030806D01*
X986139Y-3037171D01*
X989322Y-3043534D01*
X989322Y-3053079D01*
X986139Y-3059442D01*
X979777Y-3065807D01*
X970231Y-3068988D01*
X963866Y-3068988D01*
X954321Y-3065807D01*
X947958Y-3059442D01*
X944775Y-3053079D01*
X944775Y-3043534D01*
X944775Y-3089988D02*
G01*
X989322Y-3089988D01*
X957503Y-3089988D02*
G01*
X947958Y-3099534D01*
X944775Y-3105899D01*
X944775Y-3115444D01*
X947958Y-3121807D01*
X957503Y-3124989D01*
X989322Y-3124989D01*
X954321Y-3180989D02*
G01*
X947958Y-3177806D01*
X944775Y-3168261D01*
X944775Y-3158716D01*
X947958Y-3149170D01*
X954321Y-3145988D01*
X960686Y-3149170D01*
X963866Y-3155533D01*
X967049Y-3171444D01*
X970231Y-3177806D01*
X976594Y-3180989D01*
X979777Y-3180989D01*
X986139Y-3177806D01*
X989322Y-3168261D01*
X989322Y-3158716D01*
X986139Y-3149170D01*
X979777Y-3145988D01*
X973411Y-3205170D02*
G01*
X976594Y-3201990D01*
X979777Y-3205170D01*
X976594Y-3208352D01*
X973411Y-3205170D01*
D24*
X11023600Y-1473707D02*
G01*
X11023600Y-1550162D01*
X11023600Y-1473707D02*
G01*
X10990834Y-1473707D01*
X10979911Y-1477263D01*
X10976356Y-1481073D01*
X10972800Y-1488186D01*
X10972800Y-1495552D01*
X10976356Y-1502918D01*
X10979911Y-1506473D01*
X10990834Y-1510029D01*
X11023600Y-1510029D01*
X10998200Y-1510029D02*
G01*
X10972800Y-1550162D01*
X10945113Y-1491995D02*
G01*
X10945113Y-1488186D01*
X10941304Y-1481073D01*
X10937747Y-1477263D01*
X10930636Y-1473707D01*
X10915904Y-1473707D01*
X10908791Y-1477263D01*
X10904981Y-1481073D01*
X10901425Y-1488186D01*
X10901425Y-1495552D01*
X10904981Y-1502918D01*
X10912347Y-1513839D01*
X10948670Y-1550162D01*
X10897870Y-1550162D01*
X7305040Y-3292393D02*
G01*
X7305040Y-3368756D01*
X7305040Y-3292393D02*
G01*
X7257768Y-3292393D01*
X7305040Y-3328756D02*
G01*
X7275949Y-3328756D01*
X7233767Y-3292393D02*
G01*
X7233767Y-3368756D01*
X7233767Y-3292393D02*
G01*
X7201039Y-3292393D01*
X7190130Y-3296028D01*
X7186495Y-3299665D01*
X7182858Y-3306937D01*
X7182858Y-3314209D01*
X7186495Y-3321484D01*
X7190130Y-3325119D01*
X7201039Y-3328756D01*
X7233767Y-3328756D02*
G01*
X7201039Y-3328756D01*
X7190130Y-3332393D01*
X7186495Y-3336028D01*
X7182858Y-3343302D01*
X7182858Y-3354209D01*
X7186495Y-3361484D01*
X7190130Y-3365119D01*
X7201039Y-3368756D01*
X7233767Y-3368756D01*
X7151585Y-3292393D02*
G01*
X7111585Y-3292393D01*
X7133404Y-3321484D01*
X7122495Y-3321484D01*
X7115220Y-3325119D01*
X7111585Y-3328756D01*
X7107948Y-3339665D01*
X7107948Y-3346937D01*
X7111585Y-3357846D01*
X7118858Y-3365119D01*
X7129767Y-3368756D01*
X7140676Y-3368756D01*
X7151585Y-3365119D01*
X7155220Y-3361484D01*
X7158857Y-3354209D01*
X7667053Y-3305495D02*
G01*
X7670690Y-3298223D01*
X7677962Y-3290948D01*
X7685237Y-3287313D01*
X7699781Y-3287313D01*
X7707053Y-3290948D01*
X7714327Y-3298223D01*
X7717962Y-3305495D01*
X7721600Y-3316404D01*
X7721600Y-3334585D01*
X7717962Y-3345494D01*
X7714327Y-3352766D01*
X7707053Y-3360038D01*
X7699781Y-3363676D01*
X7685237Y-3363676D01*
X7677962Y-3360038D01*
X7670690Y-3352766D01*
X7667053Y-3345494D01*
X7635781Y-3287313D02*
G01*
X7595781Y-3287313D01*
X7617599Y-3316404D01*
X7606690Y-3316404D01*
X7599418Y-3320039D01*
X7595781Y-3323676D01*
X7592146Y-3334585D01*
X7592146Y-3341857D01*
X7595781Y-3352766D01*
X7603055Y-3360038D01*
X7613962Y-3363676D01*
X7624871Y-3363676D01*
X7635781Y-3360038D01*
X7639418Y-3356404D01*
X7643055Y-3349129D01*
D23*
X10593301Y-309879D02*
G01*
X10702404Y-309879D01*
X10593301Y-382615D02*
G01*
X10702404Y-382615D01*
X10645254Y-309879D02*
G01*
X10645254Y-382615D01*
X10614083Y-416905D02*
G01*
X10608886Y-427296D01*
X10593301Y-442884D01*
X10702404Y-442884D01*
X10590761Y-2288539D02*
G01*
X10699864Y-2288539D01*
X10590761Y-2361275D02*
G01*
X10699864Y-2361275D01*
X10642714Y-2288539D02*
G01*
X10642714Y-2361275D01*
X10616737Y-2400762D02*
G01*
X10611543Y-2400762D01*
X10601152Y-2405956D01*
X10595955Y-2411153D01*
X10590761Y-2421544D01*
X10590761Y-2442324D01*
X10595955Y-2452715D01*
X10601152Y-2457912D01*
X10611543Y-2463106D01*
X10621934Y-2463106D01*
X10632325Y-2457912D01*
X10647911Y-2447521D01*
X10699864Y-2395565D01*
X10699864Y-2468303D01*
D24*
X8385809Y-2017776D02*
G01*
X8385809Y-1934718D01*
X8380475Y-1918970D01*
X8375395Y-1913889D01*
X8364981Y-1908810D01*
X8354568Y-1908810D01*
X8344154Y-1913889D01*
X8338820Y-1918970D01*
X8333740Y-1934718D01*
X8333740Y-1945131D01*
X8482329Y-2002281D02*
G01*
X8477250Y-2012695D01*
X8461502Y-2017776D01*
X8451088Y-2017776D01*
X8435593Y-2012695D01*
X8425179Y-1996947D01*
X8420100Y-1971039D01*
X8420100Y-1945131D01*
X8425179Y-1924304D01*
X8435593Y-1913889D01*
X8451088Y-1908810D01*
X8456422Y-1908810D01*
X8471915Y-1913889D01*
X8482329Y-1924304D01*
X8487409Y-1939797D01*
X8487409Y-1945131D01*
X8482329Y-1960626D01*
X8471915Y-1971039D01*
X8456422Y-1976120D01*
X8451088Y-1976120D01*
X8435593Y-1971039D01*
X8425179Y-1960626D01*
X8420100Y-1945131D01*
D22*
X10861675Y-1184020D02*
G01*
X10861675Y-1052017D01*
X11068684Y-1052017D01*
X11068684Y-1184020D01*
X10861675Y-1297228D02*
G01*
X10861675Y-1429232D01*
X11068684Y-1429232D01*
X11068684Y-1297228D01*
X7258913Y-3419500D02*
G01*
X7390917Y-3419500D01*
X7390917Y-3626510D01*
X7258913Y-3626510D01*
X7145705Y-3419500D02*
G01*
X7013702Y-3419500D01*
X7013702Y-3626510D01*
X7145705Y-3626510D01*
X7600086Y-3623919D02*
G01*
X7468082Y-3623919D01*
X7468082Y-3416909D01*
X7600086Y-3416909D01*
X7713294Y-3623919D02*
G01*
X7845297Y-3623919D01*
X7845297Y-3416909D01*
X7713294Y-3416909D01*
D20*
X6979920Y-243839D02*
G01*
X10345420Y-243839D01*
D21*
X6979920Y-243839D02*
G01*
X6979920Y-497839D01*
X10535920Y-497839D01*
X10535920Y-243839D01*
X10345420Y-243839D01*
D20*
X6978860Y-2242919D02*
G01*
X10344360Y-2242919D01*
D21*
X6978860Y-2242919D02*
G01*
X6978860Y-2496919D01*
X10534860Y-2496919D01*
X10534860Y-2242919D01*
X10344360Y-2242919D01*
D20*
X8460740Y-861060D02*
G01*
X8460740Y-1686560D01*
D21*
X8460740Y-861060D02*
G01*
X8206740Y-861060D01*
X8206740Y-1877060D01*
X8460740Y-1877060D01*
X8460740Y-1686560D01*
D25*
X499998Y375005D02*
G01*
X6900011Y375005D01*
X6900011Y-3124987D01*
X499998Y-3124987D01*
X499998Y375005D01*
X5081244Y-119913D02*
G01*
X11431244Y-119913D01*
X11431244Y-2619908D01*
X5081244Y-2619908D01*
X5081244Y-119913D01*
X1599996Y950010D02*
G01*
X6899986Y950010D01*
X6899986Y-3699992D01*
X1599996Y-3699992D01*
X1599996Y950010D01*
M02*
