G04 Layer: TopLayer*
G04 EasyEDA v6.4.31, 2022-02-02 03:50:30*
G04 0b916ec405ec4e9094bbf8359c402fb2,658f5e24285b455797eae137c281a567,10*
G04 Gerber Generator version 0.2*
G04 Scale: 100 percent, Rotated: No, Reflected: No *
G04 Dimensions in millimeters *
G04 leading zeros omitted , absolute positions ,4 integer and 5 decimal *
%FSLAX45Y45*%
%MOMM*%

%ADD11C,0.6350*%
%ADD12C,1.2700*%
%ADD14R,1.4500X1.1600*%
%ADD15R,2.7991X1.3005*%
%ADD16R,1.1600X1.4699*%
%ADD17R,1.1600X1.4500*%
%ADD18R,1.4699X1.1600*%

%LPD*%
D11*
X4757420Y-48260D02*
G01*
X8288020Y-48260D01*
X8379459Y43179D01*
X9723120Y43179D01*
X9903459Y-137160D01*
X9903459Y-276860D01*
X4710429Y-304800D02*
G01*
X8384540Y-304800D01*
X8503920Y-185420D01*
X9646920Y-185420D01*
X759460Y-1778000D02*
G01*
X757933Y-1776473D01*
X717295Y-1776473D01*
X6718300Y-2854960D02*
G01*
X10167612Y-2854960D01*
X10408914Y-2613657D01*
X10408914Y-2519679D01*
D12*
X10355579Y-2258060D02*
G01*
X10345420Y-2268220D01*
X9913627Y-2268220D01*
X9649457Y-2270762D01*
D11*
X6570979Y-3070860D02*
G01*
X10680697Y-3070860D01*
X11353800Y-2397757D01*
X11353800Y-2283457D01*
D12*
X4757420Y-562000D02*
G01*
X7096759Y-579120D01*
X7386320Y-579120D01*
D11*
X4315459Y-3012439D02*
G01*
X5943600Y-3012439D01*
X7028179Y-1927860D01*
X8613140Y-1927860D01*
X8679179Y-1861820D01*
X8679179Y-825500D01*
X9133840Y-370839D01*
X9392920Y-370839D01*
X4315459Y-3266439D02*
G01*
X5974079Y-3266439D01*
X7124700Y-2115820D01*
X8704579Y-2115820D01*
X8856979Y-1963420D01*
X8856979Y-871220D01*
X9141459Y-586739D01*
X9017000Y-1506220D02*
G01*
X10210800Y-1496060D01*
X10210800Y-1750060D02*
G01*
X9344913Y-1750060D01*
X8882634Y-2211323D01*
X8882379Y-2311400D01*
X4757420Y-1066800D02*
G01*
X6680200Y-1066800D01*
X6809740Y-1196339D01*
X7698740Y-1196339D01*
X7947659Y-947420D01*
X7947659Y-774700D01*
X8150859Y-774700D02*
G01*
X8478520Y-774700D01*
X8890000Y-363220D01*
X4757420Y-812800D02*
G01*
X6715759Y-812800D01*
X6913879Y-1010920D01*
X7589520Y-1010920D01*
X7673340Y-927100D01*
X7673340Y-787400D01*
X8628385Y-370842D02*
G01*
X8450585Y-548642D01*
X7734297Y-548642D01*
X7686040Y-596900D01*
D12*
X4315457Y-3520442D02*
G01*
X5247642Y-3520442D01*
X5250185Y-3517900D01*
X7307579Y-3517900D01*
D11*
X10154927Y-2534920D02*
G01*
X10040602Y-2649245D01*
X9936505Y-2649245D01*
X9672320Y-2644139D02*
G01*
X6854697Y-2644139D01*
D12*
X11148059Y-2184400D02*
G01*
X11153140Y-1620520D01*
X9801859Y-2065020D02*
G01*
X10210800Y-2004060D01*
X9525000Y-1950720D02*
G01*
X9525000Y-2049779D01*
G36*
X10889239Y-1036320D02*
G01*
X11417040Y-1036320D01*
X11417040Y-1188720D01*
X10889239Y-1188720D01*
G37*
G36*
X10889239Y-1290320D02*
G01*
X11417040Y-1290320D01*
X11417040Y-1442720D01*
X10889239Y-1442720D01*
G37*
G36*
X10889239Y-1544320D02*
G01*
X11417040Y-1544320D01*
X11417040Y-1696720D01*
X10889239Y-1696720D01*
G37*
G36*
X475239Y-934720D02*
G01*
X1003040Y-934720D01*
X1003040Y-1087120D01*
X475239Y-1087120D01*
G37*
G36*
X475239Y-1188720D02*
G01*
X1003040Y-1188720D01*
X1003040Y-1341120D01*
X475239Y-1341120D01*
G37*
G36*
X475239Y-1442720D02*
G01*
X1003040Y-1442720D01*
X1003040Y-1595120D01*
X475239Y-1595120D01*
G37*
G36*
X475239Y-1696720D02*
G01*
X1003040Y-1696720D01*
X1003040Y-1849120D01*
X475239Y-1849120D01*
G37*
D14*
G01*
X9801859Y-2268220D03*
G01*
X9801859Y-2065020D03*
G01*
X9527540Y-2270760D03*
G01*
X9527540Y-2067560D03*
G36*
X9946899Y-403860D02*
G01*
X10474700Y-403860D01*
X10474700Y-556260D01*
X9946899Y-556260D01*
G37*
G36*
X9946899Y-657860D02*
G01*
X10474700Y-657860D01*
X10474700Y-810260D01*
X9946899Y-810260D01*
G37*
G36*
X9946899Y-911860D02*
G01*
X10474700Y-911860D01*
X10474700Y-1064260D01*
X9946899Y-1064260D01*
G37*
G36*
X9946899Y-1165860D02*
G01*
X10474700Y-1165860D01*
X10474700Y-1318260D01*
X9946899Y-1318260D01*
G37*
G36*
X9946899Y-1419860D02*
G01*
X10474700Y-1419860D01*
X10474700Y-1572260D01*
X9946899Y-1572260D01*
G37*
G36*
X9946899Y-1673860D02*
G01*
X10474700Y-1673860D01*
X10474700Y-1826260D01*
X9946899Y-1826260D01*
G37*
G36*
X9946899Y-1927860D02*
G01*
X10474700Y-1927860D01*
X10474700Y-2080260D01*
X9946899Y-2080260D01*
G37*
G36*
X9946899Y-2181860D02*
G01*
X10474700Y-2181860D01*
X10474700Y-2334260D01*
X9946899Y-2334260D01*
G37*
G36*
X4493519Y276199D02*
G01*
X5021320Y276199D01*
X5021320Y123799D01*
X4493519Y123799D01*
G37*
G36*
X4493519Y22199D02*
G01*
X5021320Y22199D01*
X5021320Y-130200D01*
X4493519Y-130200D01*
G37*
G36*
X4493519Y-231800D02*
G01*
X5021320Y-231800D01*
X5021320Y-384200D01*
X4493519Y-384200D01*
G37*
G36*
X4493519Y-485800D02*
G01*
X5021320Y-485800D01*
X5021320Y-638200D01*
X4493519Y-638200D01*
G37*
G36*
X4493519Y-739800D02*
G01*
X5021320Y-739800D01*
X5021320Y-892200D01*
X4493519Y-892200D01*
G37*
G36*
X4493519Y-993800D02*
G01*
X5021320Y-993800D01*
X5021320Y-1146200D01*
X4493519Y-1146200D01*
G37*
D15*
G01*
X4315459Y-3520439D03*
G01*
X4315459Y-3266439D03*
G01*
X4315459Y-3012439D03*
G01*
X4315459Y-2758439D03*
D16*
G01*
X9872979Y-2651760D03*
G01*
X9669779Y-2651760D03*
D14*
G01*
X7386320Y-579120D03*
G01*
X7386320Y-782320D03*
D17*
G01*
X11148059Y-2184400D03*
G01*
X10944859Y-2184400D03*
G36*
X10884319Y-1824880D02*
G01*
X11000320Y-1824880D01*
X11000320Y-1969879D01*
X10884319Y-1969879D01*
G37*
G36*
X11087519Y-1824880D02*
G01*
X11203520Y-1824880D01*
X11203520Y-1969879D01*
X11087519Y-1969879D01*
G37*
D14*
G01*
X7096759Y-579120D03*
G01*
X7096759Y-782320D03*
D18*
G01*
X7673340Y-584225D03*
G01*
X7673340Y-787425D03*
D16*
G01*
X8158479Y-774700D03*
G01*
X7955279Y-774700D03*
D11*
G01*
X9903459Y-276860D03*
G01*
X9646920Y-185420D03*
G01*
X9141459Y-586739D03*
G01*
X10154920Y-2534920D03*
D12*
G01*
X10944859Y-2184400D03*
G01*
X4757420Y195579D03*
G01*
X4312920Y-2758439D03*
G01*
X739139Y-1016000D03*
G01*
X7388859Y-779779D03*
G01*
X10939779Y-1897379D03*
D11*
G01*
X8882379Y-363220D03*
D12*
G01*
X7609840Y-2367279D03*
G01*
X7871459Y-2372360D03*
D11*
G01*
X8628379Y-368300D03*
G01*
X10408920Y-2519679D03*
G01*
X9392920Y-370839D03*
G01*
X11353800Y-2283460D03*
G01*
X8882379Y-2311400D03*
D12*
G01*
X10208259Y-2006600D03*
G01*
X9525000Y-1950720D03*
G01*
X7307579Y-3517900D03*
G01*
X7759700Y-3520439D03*
G01*
X7091679Y-782320D03*
G01*
X11150600Y-1112520D03*
D11*
G01*
X11145520Y-1366520D03*
G01*
X741679Y-1264920D03*
G01*
X751839Y-1516379D03*
G01*
X746760Y-1778000D03*
G01*
X6854748Y-2644139D03*
G01*
X6718300Y-2854960D03*
G01*
X6570979Y-3070860D03*
D12*
G01*
X8333740Y-1750060D03*
G01*
X8336279Y-1242060D03*
D11*
G01*
X9017000Y-1506220D03*
G01*
X9347200Y-1752600D03*
M02*
