G04 Layer: TopPasteMaskLayer*
G04 EasyEDA v6.4.31, 2022-02-02 03:50:30*
G04 0b916ec405ec4e9094bbf8359c402fb2,658f5e24285b455797eae137c281a567,10*
G04 Gerber Generator version 0.2*
G04 Scale: 100 percent, Rotated: No, Reflected: No *
G04 Dimensions in millimeters *
G04 leading zeros omitted , absolute positions ,4 integer and 5 decimal *
%FSLAX45Y45*%
%MOMM*%

%ADD14R,1.4500X1.1600*%
%ADD15R,2.7991X1.3005*%
%ADD16R,1.1600X1.4699*%
%ADD17R,1.1600X1.4500*%
%ADD18R,1.4699X1.1600*%

%LPD*%
G36*
X10889239Y-1036320D02*
G01*
X11417040Y-1036320D01*
X11417040Y-1188720D01*
X10889239Y-1188720D01*
G37*
G36*
X10889239Y-1290320D02*
G01*
X11417040Y-1290320D01*
X11417040Y-1442720D01*
X10889239Y-1442720D01*
G37*
G36*
X10889239Y-1544320D02*
G01*
X11417040Y-1544320D01*
X11417040Y-1696720D01*
X10889239Y-1696720D01*
G37*
G36*
X475239Y-934720D02*
G01*
X1003040Y-934720D01*
X1003040Y-1087120D01*
X475239Y-1087120D01*
G37*
G36*
X475239Y-1188720D02*
G01*
X1003040Y-1188720D01*
X1003040Y-1341120D01*
X475239Y-1341120D01*
G37*
G36*
X475239Y-1442720D02*
G01*
X1003040Y-1442720D01*
X1003040Y-1595120D01*
X475239Y-1595120D01*
G37*
G36*
X475239Y-1696720D02*
G01*
X1003040Y-1696720D01*
X1003040Y-1849120D01*
X475239Y-1849120D01*
G37*
D14*
G01*
X9801859Y-2268220D03*
G01*
X9801859Y-2065020D03*
G01*
X9527540Y-2270760D03*
G01*
X9527540Y-2067560D03*
G36*
X9946899Y-403860D02*
G01*
X10474700Y-403860D01*
X10474700Y-556260D01*
X9946899Y-556260D01*
G37*
G36*
X9946899Y-657860D02*
G01*
X10474700Y-657860D01*
X10474700Y-810260D01*
X9946899Y-810260D01*
G37*
G36*
X9946899Y-911860D02*
G01*
X10474700Y-911860D01*
X10474700Y-1064260D01*
X9946899Y-1064260D01*
G37*
G36*
X9946899Y-1165860D02*
G01*
X10474700Y-1165860D01*
X10474700Y-1318260D01*
X9946899Y-1318260D01*
G37*
G36*
X9946899Y-1419860D02*
G01*
X10474700Y-1419860D01*
X10474700Y-1572260D01*
X9946899Y-1572260D01*
G37*
G36*
X9946899Y-1673860D02*
G01*
X10474700Y-1673860D01*
X10474700Y-1826260D01*
X9946899Y-1826260D01*
G37*
G36*
X9946899Y-1927860D02*
G01*
X10474700Y-1927860D01*
X10474700Y-2080260D01*
X9946899Y-2080260D01*
G37*
G36*
X9946899Y-2181860D02*
G01*
X10474700Y-2181860D01*
X10474700Y-2334260D01*
X9946899Y-2334260D01*
G37*
G36*
X4493519Y276199D02*
G01*
X5021320Y276199D01*
X5021320Y123799D01*
X4493519Y123799D01*
G37*
G36*
X4493519Y22199D02*
G01*
X5021320Y22199D01*
X5021320Y-130200D01*
X4493519Y-130200D01*
G37*
G36*
X4493519Y-231800D02*
G01*
X5021320Y-231800D01*
X5021320Y-384200D01*
X4493519Y-384200D01*
G37*
G36*
X4493519Y-485800D02*
G01*
X5021320Y-485800D01*
X5021320Y-638200D01*
X4493519Y-638200D01*
G37*
G36*
X4493519Y-739800D02*
G01*
X5021320Y-739800D01*
X5021320Y-892200D01*
X4493519Y-892200D01*
G37*
G36*
X4493519Y-993800D02*
G01*
X5021320Y-993800D01*
X5021320Y-1146200D01*
X4493519Y-1146200D01*
G37*
D15*
G01*
X4315459Y-3520439D03*
G01*
X4315459Y-3266439D03*
G01*
X4315459Y-3012439D03*
G01*
X4315459Y-2758439D03*
D16*
G01*
X9872979Y-2651760D03*
G01*
X9669779Y-2651760D03*
D14*
G01*
X7386320Y-579120D03*
G01*
X7386320Y-782320D03*
D17*
G01*
X11148059Y-2184400D03*
G01*
X10944859Y-2184400D03*
G36*
X10884319Y-1824880D02*
G01*
X11000320Y-1824880D01*
X11000320Y-1969879D01*
X10884319Y-1969879D01*
G37*
G36*
X11087519Y-1824880D02*
G01*
X11203520Y-1824880D01*
X11203520Y-1969879D01*
X11087519Y-1969879D01*
G37*
D14*
G01*
X7096759Y-579120D03*
G01*
X7096759Y-782320D03*
D18*
G01*
X7673340Y-584225D03*
G01*
X7673340Y-787425D03*
D16*
G01*
X8158479Y-774700D03*
G01*
X7955279Y-774700D03*
M02*
