G04 Layer: TopSilkscreenLayer*
G04 EasyEDA v6.4.31, 2022-02-02 03:50:30*
G04 0b916ec405ec4e9094bbf8359c402fb2,658f5e24285b455797eae137c281a567,10*
G04 Gerber Generator version 0.2*
G04 Scale: 100 percent, Rotated: No, Reflected: No *
G04 Dimensions in millimeters *
G04 leading zeros omitted , absolute positions ,4 integer and 5 decimal *
%FSLAX45Y45*%
%MOMM*%

%ADD10C,0.2540*%
%ADD20C,0.2030*%
%ADD21C,0.2032*%
%ADD22C,0.1999*%
%ADD23C,0.2500*%
%ADD24C,0.1524*%

%LPD*%
D21*
X4293870Y209804D02*
G01*
X4290059Y217170D01*
X4282947Y224536D01*
X4275581Y228092D01*
X4261104Y228092D01*
X4253738Y224536D01*
X4246625Y217170D01*
X4242815Y209804D01*
X4239259Y198881D01*
X4239259Y180847D01*
X4242815Y169926D01*
X4246625Y162560D01*
X4253738Y155194D01*
X4261104Y151637D01*
X4275581Y151637D01*
X4282947Y155194D01*
X4290059Y162560D01*
X4293870Y169926D01*
X4293870Y180847D01*
X4275581Y180847D02*
G01*
X4293870Y180847D01*
X4317745Y228092D02*
G01*
X4317745Y151637D01*
X4317745Y228092D02*
G01*
X4368800Y151637D01*
X4368800Y228092D02*
G01*
X4368800Y151637D01*
X4392675Y228092D02*
G01*
X4392675Y151637D01*
X4392675Y228092D02*
G01*
X4418075Y228092D01*
X4428997Y224536D01*
X4436363Y217170D01*
X4439920Y209804D01*
X4443729Y198881D01*
X4443729Y180847D01*
X4439920Y169926D01*
X4436363Y162560D01*
X4428997Y155194D01*
X4418075Y151637D01*
X4392675Y151637D01*
X4338320Y-20828D02*
G01*
X4338320Y-97281D01*
X4312920Y-20828D02*
G01*
X4363720Y-20828D01*
X4387850Y-20828D02*
G01*
X4438650Y-97281D01*
X4438650Y-20828D02*
G01*
X4387850Y-97281D01*
X4315459Y-274828D02*
G01*
X4315459Y-351281D01*
X4315459Y-274828D02*
G01*
X4348225Y-274828D01*
X4359147Y-278384D01*
X4362704Y-282194D01*
X4366259Y-289305D01*
X4366259Y-296671D01*
X4362704Y-304037D01*
X4359147Y-307594D01*
X4348225Y-311150D01*
X4315459Y-311150D01*
X4340859Y-311150D02*
G01*
X4366259Y-351281D01*
X4390390Y-274828D02*
G01*
X4441190Y-351281D01*
X4441190Y-274828D02*
G01*
X4390390Y-351281D01*
X4241545Y-533907D02*
G01*
X4281424Y-533907D01*
X4259579Y-563118D01*
X4270502Y-563118D01*
X4277868Y-566673D01*
X4281424Y-570229D01*
X4284979Y-581152D01*
X4284979Y-588518D01*
X4281424Y-599439D01*
X4274058Y-606805D01*
X4263390Y-610362D01*
X4252468Y-610362D01*
X4241545Y-606805D01*
X4237736Y-602995D01*
X4234179Y-595884D01*
X4309109Y-533907D02*
G01*
X4338065Y-610362D01*
X4367275Y-533907D02*
G01*
X4338065Y-610362D01*
X4398518Y-533907D02*
G01*
X4438650Y-533907D01*
X4416806Y-563118D01*
X4427727Y-563118D01*
X4434840Y-566673D01*
X4438650Y-570229D01*
X4442206Y-581152D01*
X4442206Y-588518D01*
X4438650Y-599439D01*
X4431284Y-606805D01*
X4420361Y-610362D01*
X4409440Y-610362D01*
X4398518Y-606805D01*
X4394961Y-602995D01*
X4391152Y-595884D01*
X4244340Y-785368D02*
G01*
X4244340Y-861821D01*
X4218940Y-785368D02*
G01*
X4269740Y-785368D01*
X4293870Y-785368D02*
G01*
X4293870Y-861821D01*
X4293870Y-785368D02*
G01*
X4326636Y-785368D01*
X4337558Y-788923D01*
X4341113Y-792734D01*
X4344670Y-799845D01*
X4344670Y-807212D01*
X4341113Y-814578D01*
X4337558Y-818134D01*
X4326636Y-821689D01*
X4293870Y-821689D01*
X4319270Y-821689D02*
G01*
X4344670Y-861821D01*
X4368800Y-785368D02*
G01*
X4368800Y-861821D01*
X4447286Y-803655D02*
G01*
X4443729Y-796289D01*
X4436363Y-788923D01*
X4428997Y-785368D01*
X4414520Y-785368D01*
X4407408Y-788923D01*
X4400041Y-796289D01*
X4396486Y-803655D01*
X4392675Y-814578D01*
X4392675Y-832612D01*
X4396486Y-843534D01*
X4400041Y-850900D01*
X4407408Y-858265D01*
X4414520Y-861821D01*
X4428997Y-861821D01*
X4436363Y-858265D01*
X4443729Y-850900D01*
X4447286Y-843534D01*
X4447286Y-832612D01*
X4428997Y-832612D02*
G01*
X4447286Y-832612D01*
X4213859Y-1050289D02*
G01*
X4206747Y-1042923D01*
X4195825Y-1039368D01*
X4181347Y-1039368D01*
X4170425Y-1042923D01*
X4163059Y-1050289D01*
X4163059Y-1057655D01*
X4166615Y-1064768D01*
X4170425Y-1068578D01*
X4177538Y-1072134D01*
X4199381Y-1079500D01*
X4206747Y-1083055D01*
X4210304Y-1086612D01*
X4213859Y-1093978D01*
X4213859Y-1104900D01*
X4206747Y-1112265D01*
X4195825Y-1115821D01*
X4181347Y-1115821D01*
X4170425Y-1112265D01*
X4163059Y-1104900D01*
X4263390Y-1039368D02*
G01*
X4263390Y-1115821D01*
X4237990Y-1039368D02*
G01*
X4288790Y-1039368D01*
X4341875Y-1039368D02*
G01*
X4312920Y-1115821D01*
X4341875Y-1039368D02*
G01*
X4371086Y-1115821D01*
X4323841Y-1090421D02*
G01*
X4360163Y-1090421D01*
X4420615Y-1039368D02*
G01*
X4420615Y-1115821D01*
X4394961Y-1039368D02*
G01*
X4446015Y-1039368D01*
X4578350Y-2746755D02*
G01*
X4574540Y-2739389D01*
X4567427Y-2732023D01*
X4560061Y-2728468D01*
X4545584Y-2728468D01*
X4538218Y-2732023D01*
X4531106Y-2739389D01*
X4527295Y-2746755D01*
X4523740Y-2757678D01*
X4523740Y-2775712D01*
X4527295Y-2786634D01*
X4531106Y-2794000D01*
X4538218Y-2801365D01*
X4545584Y-2804921D01*
X4560061Y-2804921D01*
X4567427Y-2801365D01*
X4574540Y-2794000D01*
X4578350Y-2786634D01*
X4578350Y-2775712D01*
X4560061Y-2775712D02*
G01*
X4578350Y-2775712D01*
X4602225Y-2728468D02*
G01*
X4602225Y-2804921D01*
X4602225Y-2728468D02*
G01*
X4653279Y-2804921D01*
X4653279Y-2728468D02*
G01*
X4653279Y-2804921D01*
X4677156Y-2728468D02*
G01*
X4677156Y-2804921D01*
X4677156Y-2728468D02*
G01*
X4702556Y-2728468D01*
X4713477Y-2732023D01*
X4720843Y-2739389D01*
X4724400Y-2746755D01*
X4728209Y-2757678D01*
X4728209Y-2775712D01*
X4724400Y-2786634D01*
X4720843Y-2794000D01*
X4713477Y-2801365D01*
X4702556Y-2804921D01*
X4677156Y-2804921D01*
X4575047Y-3482847D02*
G01*
X4538725Y-3482847D01*
X4534915Y-3515613D01*
X4538725Y-3512057D01*
X4549647Y-3508247D01*
X4560570Y-3508247D01*
X4571238Y-3512057D01*
X4578604Y-3519170D01*
X4582159Y-3530092D01*
X4582159Y-3537457D01*
X4578604Y-3548379D01*
X4571238Y-3555745D01*
X4560570Y-3559302D01*
X4549647Y-3559302D01*
X4538725Y-3555745D01*
X4534915Y-3551936D01*
X4531359Y-3544823D01*
X4606290Y-3482847D02*
G01*
X4635245Y-3559302D01*
X4664456Y-3482847D02*
G01*
X4635245Y-3559302D01*
X4533900Y-2969768D02*
G01*
X4533900Y-3046221D01*
X4533900Y-2969768D02*
G01*
X4566665Y-2969768D01*
X4577588Y-2973323D01*
X4581143Y-2977134D01*
X4584700Y-2984245D01*
X4584700Y-2991612D01*
X4581143Y-2998978D01*
X4577588Y-3002534D01*
X4566665Y-3006089D01*
X4533900Y-3006089D01*
X4559300Y-3006089D02*
G01*
X4584700Y-3046221D01*
X4608829Y-2969768D02*
G01*
X4659629Y-3046221D01*
X4659629Y-2969768D02*
G01*
X4608829Y-3046221D01*
X4554220Y-3223768D02*
G01*
X4554220Y-3300221D01*
X4528820Y-3223768D02*
G01*
X4579620Y-3223768D01*
X4603750Y-3223768D02*
G01*
X4654550Y-3300221D01*
X4654550Y-3223768D02*
G01*
X4603750Y-3300221D01*
X10674350Y-1100836D02*
G01*
X10670540Y-1093470D01*
X10663427Y-1086104D01*
X10656061Y-1082547D01*
X10641584Y-1082547D01*
X10634218Y-1086104D01*
X10627106Y-1093470D01*
X10623295Y-1100836D01*
X10619740Y-1111757D01*
X10619740Y-1129792D01*
X10623295Y-1140713D01*
X10627106Y-1148079D01*
X10634218Y-1155445D01*
X10641584Y-1159002D01*
X10656061Y-1159002D01*
X10663427Y-1155445D01*
X10670540Y-1148079D01*
X10674350Y-1140713D01*
X10674350Y-1129792D01*
X10656061Y-1129792D02*
G01*
X10674350Y-1129792D01*
X10698225Y-1082547D02*
G01*
X10698225Y-1159002D01*
X10698225Y-1082547D02*
G01*
X10749279Y-1159002D01*
X10749279Y-1082547D02*
G01*
X10749279Y-1159002D01*
X10773156Y-1082547D02*
G01*
X10773156Y-1159002D01*
X10773156Y-1082547D02*
G01*
X10798556Y-1082547D01*
X10809477Y-1086104D01*
X10816843Y-1093470D01*
X10820400Y-1100836D01*
X10824209Y-1111757D01*
X10824209Y-1129792D01*
X10820400Y-1140713D01*
X10816843Y-1148079D01*
X10809477Y-1155445D01*
X10798556Y-1159002D01*
X10773156Y-1159002D01*
X10632186Y-1580387D02*
G01*
X10672063Y-1580387D01*
X10650220Y-1609597D01*
X10661141Y-1609597D01*
X10668508Y-1613154D01*
X10672063Y-1616710D01*
X10675620Y-1627631D01*
X10675620Y-1634997D01*
X10672063Y-1645920D01*
X10664697Y-1653286D01*
X10654029Y-1656842D01*
X10643108Y-1656842D01*
X10632186Y-1653286D01*
X10628375Y-1649476D01*
X10624820Y-1642363D01*
X10699750Y-1580387D02*
G01*
X10728706Y-1656842D01*
X10757915Y-1580387D02*
G01*
X10728706Y-1656842D01*
X10789158Y-1580387D02*
G01*
X10829290Y-1580387D01*
X10807445Y-1609597D01*
X10818368Y-1609597D01*
X10825479Y-1613154D01*
X10829290Y-1616710D01*
X10832845Y-1627631D01*
X10832845Y-1634997D01*
X10829290Y-1645920D01*
X10821924Y-1653286D01*
X10811002Y-1656842D01*
X10800079Y-1656842D01*
X10789158Y-1653286D01*
X10785602Y-1649476D01*
X10781791Y-1642363D01*
X10670540Y-1334007D02*
G01*
X10670540Y-1410462D01*
X10670540Y-1334007D02*
G01*
X10703306Y-1334007D01*
X10714227Y-1337563D01*
X10717784Y-1341373D01*
X10721340Y-1348486D01*
X10721340Y-1359407D01*
X10717784Y-1366773D01*
X10714227Y-1370329D01*
X10703306Y-1374139D01*
X10670540Y-1374139D01*
X10745470Y-1334007D02*
G01*
X10745470Y-1410462D01*
X10769345Y-1334007D02*
G01*
X10769345Y-1410462D01*
X10769345Y-1334007D02*
G01*
X10802111Y-1334007D01*
X10813034Y-1337563D01*
X10816843Y-1341373D01*
X10820400Y-1348486D01*
X10820400Y-1355852D01*
X10816843Y-1363218D01*
X10813034Y-1366773D01*
X10802111Y-1370329D01*
X10769345Y-1370329D01*
X10795000Y-1370329D02*
G01*
X10820400Y-1410462D01*
X1129029Y-996695D02*
G01*
X1125220Y-989329D01*
X1118107Y-981963D01*
X1110742Y-978407D01*
X1096263Y-978407D01*
X1088897Y-981963D01*
X1081786Y-989329D01*
X1077976Y-996695D01*
X1074420Y-1007618D01*
X1074420Y-1025652D01*
X1077976Y-1036573D01*
X1081786Y-1043939D01*
X1088897Y-1051305D01*
X1096263Y-1054862D01*
X1110742Y-1054862D01*
X1118107Y-1051305D01*
X1125220Y-1043939D01*
X1129029Y-1036573D01*
X1129029Y-1025652D01*
X1110742Y-1025652D02*
G01*
X1129029Y-1025652D01*
X1152905Y-978407D02*
G01*
X1152905Y-1054862D01*
X1152905Y-978407D02*
G01*
X1203960Y-1054862D01*
X1203960Y-978407D02*
G01*
X1203960Y-1054862D01*
X1227836Y-978407D02*
G01*
X1227836Y-1054862D01*
X1227836Y-978407D02*
G01*
X1253236Y-978407D01*
X1264157Y-981963D01*
X1271523Y-989329D01*
X1275079Y-996695D01*
X1278889Y-1007618D01*
X1278889Y-1025652D01*
X1275079Y-1036573D01*
X1271523Y-1043939D01*
X1264157Y-1051305D01*
X1253236Y-1054862D01*
X1227836Y-1054862D01*
X1092200Y-1227328D02*
G01*
X1092200Y-1303781D01*
X1092200Y-1227328D02*
G01*
X1124965Y-1227328D01*
X1135887Y-1230884D01*
X1139444Y-1234694D01*
X1143000Y-1241805D01*
X1143000Y-1249171D01*
X1139444Y-1256537D01*
X1135887Y-1260094D01*
X1124965Y-1263650D01*
X1092200Y-1263650D01*
X1117600Y-1263650D02*
G01*
X1143000Y-1303781D01*
X1094739Y-1481328D02*
G01*
X1094739Y-1557781D01*
X1094739Y-1481328D02*
G01*
X1127505Y-1481328D01*
X1138428Y-1484884D01*
X1141984Y-1488694D01*
X1145539Y-1495805D01*
X1145539Y-1503171D01*
X1141984Y-1510537D01*
X1138428Y-1514094D01*
X1127505Y-1517650D01*
X1094739Y-1517650D02*
G01*
X1127505Y-1517650D01*
X1138428Y-1521460D01*
X1141984Y-1525015D01*
X1145539Y-1532381D01*
X1145539Y-1543304D01*
X1141984Y-1550415D01*
X1138428Y-1554226D01*
X1127505Y-1557781D01*
X1094739Y-1557781D01*
X1144270Y-1751076D02*
G01*
X1140460Y-1743710D01*
X1133347Y-1736344D01*
X1125981Y-1732787D01*
X1111504Y-1732787D01*
X1104137Y-1736344D01*
X1097026Y-1743710D01*
X1093215Y-1751076D01*
X1089660Y-1761997D01*
X1089660Y-1780031D01*
X1093215Y-1790954D01*
X1097026Y-1798320D01*
X1104137Y-1805686D01*
X1111504Y-1809242D01*
X1125981Y-1809242D01*
X1133347Y-1805686D01*
X1140460Y-1798320D01*
X1144270Y-1790954D01*
X1144270Y-1780031D01*
X1125981Y-1780031D02*
G01*
X1144270Y-1780031D01*
X1780286Y-3387344D02*
G01*
X1771142Y-3392170D01*
X1761744Y-3401313D01*
X1757171Y-3410457D01*
X1752600Y-3424428D01*
X1752600Y-3447542D01*
X1757171Y-3461257D01*
X1761744Y-3470655D01*
X1771142Y-3479800D01*
X1780286Y-3484371D01*
X1798828Y-3484371D01*
X1807971Y-3479800D01*
X1817370Y-3470655D01*
X1821942Y-3461257D01*
X1826513Y-3447542D01*
X1826513Y-3424428D01*
X1821942Y-3410457D01*
X1817370Y-3401313D01*
X1807971Y-3392170D01*
X1798828Y-3387344D01*
X1780286Y-3387344D01*
X1794255Y-3465829D02*
G01*
X1821942Y-3493770D01*
X1856994Y-3387344D02*
G01*
X1856994Y-3484371D01*
X1856994Y-3387344D02*
G01*
X1898650Y-3387344D01*
X1912365Y-3392170D01*
X1916937Y-3396742D01*
X1921510Y-3405886D01*
X1921510Y-3415029D01*
X1916937Y-3424428D01*
X1912365Y-3429000D01*
X1898650Y-3433571D01*
X1856994Y-3433571D01*
X1889252Y-3433571D02*
G01*
X1921510Y-3484371D01*
X2002790Y-3433571D02*
G01*
X1998218Y-3424428D01*
X1984502Y-3419855D01*
X1970531Y-3419855D01*
X1956815Y-3424428D01*
X1951990Y-3433571D01*
X1956815Y-3442970D01*
X1965959Y-3447542D01*
X1989074Y-3452113D01*
X1998218Y-3456686D01*
X2002790Y-3465829D01*
X2002790Y-3470655D01*
X1998218Y-3479800D01*
X1984502Y-3484371D01*
X1970531Y-3484371D01*
X1956815Y-3479800D01*
X1951990Y-3470655D01*
X2088895Y-3433571D02*
G01*
X2079497Y-3424428D01*
X2070354Y-3419855D01*
X2056384Y-3419855D01*
X2047240Y-3424428D01*
X2038095Y-3433571D01*
X2033270Y-3447542D01*
X2033270Y-3456686D01*
X2038095Y-3470655D01*
X2047240Y-3479800D01*
X2056384Y-3484371D01*
X2070354Y-3484371D01*
X2079497Y-3479800D01*
X2088895Y-3470655D01*
X2174747Y-3419855D02*
G01*
X2174747Y-3484371D01*
X2174747Y-3433571D02*
G01*
X2165350Y-3424428D01*
X2156206Y-3419855D01*
X2142490Y-3419855D01*
X2133091Y-3424428D01*
X2123947Y-3433571D01*
X2119375Y-3447542D01*
X2119375Y-3456686D01*
X2123947Y-3470655D01*
X2133091Y-3479800D01*
X2142490Y-3484371D01*
X2156206Y-3484371D01*
X2165350Y-3479800D01*
X2174747Y-3470655D01*
X2205227Y-3419855D02*
G01*
X2205227Y-3484371D01*
X2205227Y-3438144D02*
G01*
X2218943Y-3424428D01*
X2228341Y-3419855D01*
X2242058Y-3419855D01*
X2251456Y-3424428D01*
X2256027Y-3438144D01*
X2256027Y-3484371D01*
X2357627Y-3387344D02*
G01*
X2394458Y-3484371D01*
X2431541Y-3387344D02*
G01*
X2394458Y-3484371D01*
X2471165Y-3387344D02*
G01*
X2521965Y-3387344D01*
X2494279Y-3424428D01*
X2508250Y-3424428D01*
X2517393Y-3429000D01*
X2521965Y-3433571D01*
X2526538Y-3447542D01*
X2526538Y-3456686D01*
X2521965Y-3470655D01*
X2512822Y-3479800D01*
X2498852Y-3484371D01*
X2485136Y-3484371D01*
X2471165Y-3479800D01*
X2466593Y-3475228D01*
X2462022Y-3465829D01*
X2628138Y-3387344D02*
G01*
X2628138Y-3484371D01*
X2628138Y-3433571D02*
G01*
X2637536Y-3424428D01*
X2646679Y-3419855D01*
X2660650Y-3419855D01*
X2669793Y-3424428D01*
X2678938Y-3433571D01*
X2683509Y-3447542D01*
X2683509Y-3456686D01*
X2678938Y-3470655D01*
X2669793Y-3479800D01*
X2660650Y-3484371D01*
X2646679Y-3484371D01*
X2637536Y-3479800D01*
X2628138Y-3470655D01*
X2718815Y-3419855D02*
G01*
X2746502Y-3484371D01*
X2774188Y-3419855D02*
G01*
X2746502Y-3484371D01*
X2737104Y-3502913D01*
X2727959Y-3512057D01*
X2718815Y-3516629D01*
X2713990Y-3516629D01*
X2875788Y-3387344D02*
G01*
X2875788Y-3484371D01*
X2875788Y-3387344D02*
G01*
X2917190Y-3387344D01*
X2931159Y-3392170D01*
X2935731Y-3396742D01*
X2940304Y-3405886D01*
X2940304Y-3415029D01*
X2935731Y-3424428D01*
X2931159Y-3429000D01*
X2917190Y-3433571D01*
X2875788Y-3433571D02*
G01*
X2917190Y-3433571D01*
X2931159Y-3438144D01*
X2935731Y-3442970D01*
X2940304Y-3452113D01*
X2940304Y-3465829D01*
X2935731Y-3475228D01*
X2931159Y-3479800D01*
X2917190Y-3484371D01*
X2875788Y-3484371D01*
X2970784Y-3387344D02*
G01*
X2975609Y-3392170D01*
X2980181Y-3387344D01*
X2975609Y-3382771D01*
X2970784Y-3387344D01*
X2975609Y-3419855D02*
G01*
X2975609Y-3484371D01*
X3061461Y-3419855D02*
G01*
X3010661Y-3484371D01*
X3010661Y-3419855D02*
G01*
X3061461Y-3419855D01*
X3010661Y-3484371D02*
G01*
X3061461Y-3484371D01*
X3091941Y-3387344D02*
G01*
X3091941Y-3484371D01*
X3156458Y-3387344D02*
G01*
X3091941Y-3452113D01*
X3115056Y-3429000D02*
G01*
X3156458Y-3484371D01*
X3186938Y-3387344D02*
G01*
X3191509Y-3392170D01*
X3196336Y-3387344D01*
X3191509Y-3382771D01*
X3186938Y-3387344D01*
X3191509Y-3419855D02*
G01*
X3191509Y-3484371D01*
X3226815Y-3419855D02*
G01*
X3245104Y-3484371D01*
X3263645Y-3419855D02*
G01*
X3245104Y-3484371D01*
X3263645Y-3419855D02*
G01*
X3282188Y-3484371D01*
X3300729Y-3419855D02*
G01*
X3282188Y-3484371D01*
X3331209Y-3387344D02*
G01*
X3335781Y-3392170D01*
X3340354Y-3387344D01*
X3335781Y-3382771D01*
X3331209Y-3387344D01*
X3335781Y-3419855D02*
G01*
X3335781Y-3484371D01*
X3375406Y-3461257D02*
G01*
X3370834Y-3465829D01*
X3375406Y-3470655D01*
X3379977Y-3465829D01*
X3375406Y-3461257D01*
X3410458Y-3387344D02*
G01*
X3410458Y-3484371D01*
X3410458Y-3387344D02*
G01*
X3475227Y-3484371D01*
X3475227Y-3387344D02*
G01*
X3475227Y-3484371D01*
X3570224Y-3387344D02*
G01*
X3505708Y-3484371D01*
X3505708Y-3387344D02*
G01*
X3570224Y-3387344D01*
X3505708Y-3484371D02*
G01*
X3570224Y-3484371D01*
X1989327Y445515D02*
G01*
X1989327Y371602D01*
X1984756Y357631D01*
X1979929Y353060D01*
X1970786Y348487D01*
X1961641Y348487D01*
X1952243Y353060D01*
X1947672Y357631D01*
X1943100Y371602D01*
X1943100Y380745D01*
X2019808Y426973D02*
G01*
X2028952Y431545D01*
X2042922Y445515D01*
X2042922Y348487D01*
X2144522Y403860D02*
G01*
X2227579Y403860D01*
X2144522Y376173D02*
G01*
X2227579Y376173D01*
X2356865Y445515D02*
G01*
X2347722Y440689D01*
X2338324Y431545D01*
X2333752Y422402D01*
X2329179Y408431D01*
X2329179Y385318D01*
X2333752Y371602D01*
X2338324Y362204D01*
X2347722Y353060D01*
X2356865Y348487D01*
X2375408Y348487D01*
X2384552Y353060D01*
X2393950Y362204D01*
X2398522Y371602D01*
X2403093Y385318D01*
X2403093Y408431D01*
X2398522Y422402D01*
X2393950Y431545D01*
X2384552Y440689D01*
X2375408Y445515D01*
X2356865Y445515D01*
X2370836Y367029D02*
G01*
X2398522Y339089D01*
X2433574Y445515D02*
G01*
X2433574Y348487D01*
X2433574Y445515D02*
G01*
X2475229Y445515D01*
X2488945Y440689D01*
X2493518Y436118D01*
X2498090Y426973D01*
X2498090Y417829D01*
X2493518Y408431D01*
X2488945Y403860D01*
X2475229Y399287D01*
X2433574Y399287D01*
X2465831Y399287D02*
G01*
X2498090Y348487D01*
X2669031Y422402D02*
G01*
X2664459Y431545D01*
X2655315Y440689D01*
X2645918Y445515D01*
X2627629Y445515D01*
X2618231Y440689D01*
X2609088Y431545D01*
X2604515Y422402D01*
X2599690Y408431D01*
X2599690Y385318D01*
X2604515Y371602D01*
X2609088Y362204D01*
X2618231Y353060D01*
X2627629Y348487D01*
X2645918Y348487D01*
X2655315Y353060D01*
X2664459Y362204D01*
X2669031Y371602D01*
X2722625Y413004D02*
G01*
X2713481Y408431D01*
X2704084Y399287D01*
X2699511Y385318D01*
X2699511Y376173D01*
X2704084Y362204D01*
X2713481Y353060D01*
X2722625Y348487D01*
X2736595Y348487D01*
X2745740Y353060D01*
X2754884Y362204D01*
X2759709Y376173D01*
X2759709Y385318D01*
X2754884Y399287D01*
X2745740Y408431D01*
X2736595Y413004D01*
X2722625Y413004D01*
X2845561Y445515D02*
G01*
X2845561Y348487D01*
X2845561Y399287D02*
G01*
X2836163Y408431D01*
X2827020Y413004D01*
X2813050Y413004D01*
X2803906Y408431D01*
X2794761Y399287D01*
X2790190Y385318D01*
X2790190Y376173D01*
X2794761Y362204D01*
X2803906Y353060D01*
X2813050Y348487D01*
X2827020Y348487D01*
X2836163Y353060D01*
X2845561Y362204D01*
X2876041Y385318D02*
G01*
X2931413Y385318D01*
X2931413Y394715D01*
X2926841Y403860D01*
X2922270Y408431D01*
X2912872Y413004D01*
X2899156Y413004D01*
X2889758Y408431D01*
X2880613Y399287D01*
X2876041Y385318D01*
X2876041Y376173D01*
X2880613Y362204D01*
X2889758Y353060D01*
X2899156Y348487D01*
X2912872Y348487D01*
X2922270Y353060D01*
X2931413Y362204D01*
X3033013Y445515D02*
G01*
X3033013Y348487D01*
X3033013Y445515D02*
G01*
X3074670Y445515D01*
X3088386Y440689D01*
X3092958Y436118D01*
X3097529Y426973D01*
X3097529Y417829D01*
X3092958Y408431D01*
X3088386Y403860D01*
X3074670Y399287D01*
X3033013Y399287D01*
X3065272Y399287D02*
G01*
X3097529Y348487D01*
X3128009Y385318D02*
G01*
X3183636Y385318D01*
X3183636Y394715D01*
X3178809Y403860D01*
X3174238Y408431D01*
X3165093Y413004D01*
X3151124Y413004D01*
X3141979Y408431D01*
X3132836Y399287D01*
X3128009Y385318D01*
X3128009Y376173D01*
X3132836Y362204D01*
X3141979Y353060D01*
X3151124Y348487D01*
X3165093Y348487D01*
X3174238Y353060D01*
X3183636Y362204D01*
X3269488Y413004D02*
G01*
X3269488Y348487D01*
X3269488Y399287D02*
G01*
X3260090Y408431D01*
X3250945Y413004D01*
X3237229Y413004D01*
X3227831Y408431D01*
X3218688Y399287D01*
X3214115Y385318D01*
X3214115Y376173D01*
X3218688Y362204D01*
X3227831Y353060D01*
X3237229Y348487D01*
X3250945Y348487D01*
X3260090Y353060D01*
X3269488Y362204D01*
X3355340Y445515D02*
G01*
X3355340Y348487D01*
X3355340Y399287D02*
G01*
X3346195Y408431D01*
X3336797Y413004D01*
X3323081Y413004D01*
X3313684Y408431D01*
X3304540Y399287D01*
X3299968Y385318D01*
X3299968Y376173D01*
X3304540Y362204D01*
X3313684Y353060D01*
X3323081Y348487D01*
X3336797Y348487D01*
X3346195Y353060D01*
X3355340Y362204D01*
X3385820Y385318D02*
G01*
X3441191Y385318D01*
X3441191Y394715D01*
X3436620Y403860D01*
X3432047Y408431D01*
X3422650Y413004D01*
X3408934Y413004D01*
X3399790Y408431D01*
X3390391Y399287D01*
X3385820Y385318D01*
X3385820Y376173D01*
X3390391Y362204D01*
X3399790Y353060D01*
X3408934Y348487D01*
X3422650Y348487D01*
X3432047Y353060D01*
X3441191Y362204D01*
X3471672Y413004D02*
G01*
X3471672Y348487D01*
X3471672Y385318D02*
G01*
X3476243Y399287D01*
X3485641Y408431D01*
X3494786Y413004D01*
X3508756Y413004D01*
X1984247Y201676D02*
G01*
X1984247Y127762D01*
X1979675Y113792D01*
X1974850Y109220D01*
X1965706Y104647D01*
X1956561Y104647D01*
X1947163Y109220D01*
X1942591Y113792D01*
X1938020Y127762D01*
X1938020Y136905D01*
X2019300Y178562D02*
G01*
X2019300Y183134D01*
X2023872Y192278D01*
X2028443Y196850D01*
X2037841Y201676D01*
X2056129Y201676D01*
X2065527Y196850D01*
X2070100Y192278D01*
X2074672Y183134D01*
X2074672Y173989D01*
X2070100Y164592D01*
X2060956Y150876D01*
X2014727Y104647D01*
X2079243Y104647D01*
X2180843Y160020D02*
G01*
X2264156Y160020D01*
X2180843Y132334D02*
G01*
X2264156Y132334D01*
X2365756Y201676D02*
G01*
X2365756Y104647D01*
X2365756Y104647D02*
G01*
X2421127Y104647D01*
X2520950Y178562D02*
G01*
X2516124Y187705D01*
X2506979Y196850D01*
X2497836Y201676D01*
X2479293Y201676D01*
X2470150Y196850D01*
X2460752Y187705D01*
X2456179Y178562D01*
X2451608Y164592D01*
X2451608Y141478D01*
X2456179Y127762D01*
X2460752Y118363D01*
X2470150Y109220D01*
X2479293Y104647D01*
X2497836Y104647D01*
X2506979Y109220D01*
X2516124Y118363D01*
X2520950Y127762D01*
X2551429Y201676D02*
G01*
X2551429Y104647D01*
X2551429Y201676D02*
G01*
X2583688Y201676D01*
X2597404Y196850D01*
X2606802Y187705D01*
X2611374Y178562D01*
X2615945Y164592D01*
X2615945Y141478D01*
X2611374Y127762D01*
X2606802Y118363D01*
X2597404Y109220D01*
X2583688Y104647D01*
X2551429Y104647D01*
X2717545Y201676D02*
G01*
X2717545Y104647D01*
X2717545Y201676D02*
G01*
X2754629Y104647D01*
X2791459Y201676D02*
G01*
X2754629Y104647D01*
X2791459Y201676D02*
G01*
X2791459Y104647D01*
X2845054Y169163D02*
G01*
X2835909Y164592D01*
X2826511Y155447D01*
X2821940Y141478D01*
X2821940Y132334D01*
X2826511Y118363D01*
X2835909Y109220D01*
X2845054Y104647D01*
X2858770Y104647D01*
X2868168Y109220D01*
X2877311Y118363D01*
X2881884Y132334D01*
X2881884Y141478D01*
X2877311Y155447D01*
X2868168Y164592D01*
X2858770Y169163D01*
X2845054Y169163D01*
X2967990Y201676D02*
G01*
X2967990Y104647D01*
X2967990Y155447D02*
G01*
X2958591Y164592D01*
X2949447Y169163D01*
X2935477Y169163D01*
X2926334Y164592D01*
X2917190Y155447D01*
X2912363Y141478D01*
X2912363Y132334D01*
X2917190Y118363D01*
X2926334Y109220D01*
X2935477Y104647D01*
X2949447Y104647D01*
X2958591Y109220D01*
X2967990Y118363D01*
X2998470Y169163D02*
G01*
X2998470Y123189D01*
X3003041Y109220D01*
X3012186Y104647D01*
X3026156Y104647D01*
X3035300Y109220D01*
X3049270Y123189D01*
X3049270Y169163D02*
G01*
X3049270Y104647D01*
X3079750Y201676D02*
G01*
X3079750Y104647D01*
X3110229Y141478D02*
G01*
X3165602Y141478D01*
X3165602Y150876D01*
X3161029Y160020D01*
X3156204Y164592D01*
X3147059Y169163D01*
X3133090Y169163D01*
X3123945Y164592D01*
X3114802Y155447D01*
X3110229Y141478D01*
X3110229Y132334D01*
X3114802Y118363D01*
X3123945Y109220D01*
X3133090Y104647D01*
X3147059Y104647D01*
X3156204Y109220D01*
X3165602Y118363D01*
X1984247Y-32004D02*
G01*
X1984247Y-105918D01*
X1979675Y-119887D01*
X1974850Y-124460D01*
X1965706Y-129031D01*
X1956561Y-129031D01*
X1947163Y-124460D01*
X1942591Y-119887D01*
X1938020Y-105918D01*
X1938020Y-96773D01*
X2023872Y-32004D02*
G01*
X2074672Y-32004D01*
X2046986Y-69087D01*
X2060956Y-69087D01*
X2070100Y-73660D01*
X2074672Y-78231D01*
X2079243Y-92202D01*
X2079243Y-101345D01*
X2074672Y-115315D01*
X2065527Y-124460D01*
X2051558Y-129031D01*
X2037841Y-129031D01*
X2023872Y-124460D01*
X2019300Y-119887D01*
X2014727Y-110489D01*
X2180843Y-73660D02*
G01*
X2264156Y-73660D01*
X2180843Y-101345D02*
G01*
X2264156Y-101345D01*
X2365756Y-32004D02*
G01*
X2365756Y-129031D01*
X2365756Y-32004D02*
G01*
X2407158Y-32004D01*
X2421127Y-36829D01*
X2425700Y-41402D01*
X2430272Y-50545D01*
X2430272Y-64515D01*
X2425700Y-73660D01*
X2421127Y-78231D01*
X2407158Y-82804D01*
X2365756Y-82804D01*
X2460752Y-32004D02*
G01*
X2460752Y-129031D01*
X2491231Y-32004D02*
G01*
X2491231Y-129031D01*
X2491231Y-32004D02*
G01*
X2532888Y-32004D01*
X2546604Y-36829D01*
X2551429Y-41402D01*
X2556002Y-50545D01*
X2556002Y-59689D01*
X2551429Y-69087D01*
X2546604Y-73660D01*
X2532888Y-78231D01*
X2491231Y-78231D01*
X2523490Y-78231D02*
G01*
X2556002Y-129031D01*
X2657602Y-32004D02*
G01*
X2657602Y-129031D01*
X2657602Y-32004D02*
G01*
X2694431Y-129031D01*
X2731515Y-32004D02*
G01*
X2694431Y-129031D01*
X2731515Y-32004D02*
G01*
X2731515Y-129031D01*
X2785109Y-64515D02*
G01*
X2775711Y-69087D01*
X2766568Y-78231D01*
X2761995Y-92202D01*
X2761995Y-101345D01*
X2766568Y-115315D01*
X2775711Y-124460D01*
X2785109Y-129031D01*
X2798825Y-129031D01*
X2807970Y-124460D01*
X2817368Y-115315D01*
X2821940Y-101345D01*
X2821940Y-92202D01*
X2817368Y-78231D01*
X2807970Y-69087D01*
X2798825Y-64515D01*
X2785109Y-64515D01*
X2866390Y-32004D02*
G01*
X2866390Y-110489D01*
X2870961Y-124460D01*
X2880106Y-129031D01*
X2889250Y-129031D01*
X2852420Y-64515D02*
G01*
X2884677Y-64515D01*
X2919729Y-32004D02*
G01*
X2924556Y-36829D01*
X2929127Y-32004D01*
X2924556Y-27431D01*
X2919729Y-32004D01*
X2924556Y-64515D02*
G01*
X2924556Y-129031D01*
X2982722Y-64515D02*
G01*
X2973324Y-69087D01*
X2964179Y-78231D01*
X2959608Y-92202D01*
X2959608Y-101345D01*
X2964179Y-115315D01*
X2973324Y-124460D01*
X2982722Y-129031D01*
X2996438Y-129031D01*
X3005836Y-124460D01*
X3014979Y-115315D01*
X3019552Y-101345D01*
X3019552Y-92202D01*
X3014979Y-78231D01*
X3005836Y-69087D01*
X2996438Y-64515D01*
X2982722Y-64515D01*
X3050031Y-64515D02*
G01*
X3050031Y-129031D01*
X3050031Y-82804D02*
G01*
X3064002Y-69087D01*
X3073145Y-64515D01*
X3087115Y-64515D01*
X3096259Y-69087D01*
X3100831Y-82804D01*
X3100831Y-129031D01*
X3267202Y-45973D02*
G01*
X3257804Y-36829D01*
X3244088Y-32004D01*
X3225545Y-32004D01*
X3211829Y-36829D01*
X3202431Y-45973D01*
X3202431Y-55118D01*
X3207004Y-64515D01*
X3211829Y-69087D01*
X3220974Y-73660D01*
X3248659Y-82804D01*
X3257804Y-87629D01*
X3262629Y-92202D01*
X3267202Y-101345D01*
X3267202Y-115315D01*
X3257804Y-124460D01*
X3244088Y-129031D01*
X3225545Y-129031D01*
X3211829Y-124460D01*
X3202431Y-115315D01*
X3297681Y-92202D02*
G01*
X3353054Y-92202D01*
X3353054Y-82804D01*
X3348481Y-73660D01*
X3343909Y-69087D01*
X3334511Y-64515D01*
X3320795Y-64515D01*
X3311397Y-69087D01*
X3302254Y-78231D01*
X3297681Y-92202D01*
X3297681Y-101345D01*
X3302254Y-115315D01*
X3311397Y-124460D01*
X3320795Y-129031D01*
X3334511Y-129031D01*
X3343909Y-124460D01*
X3353054Y-115315D01*
X3383534Y-64515D02*
G01*
X3383534Y-129031D01*
X3383534Y-82804D02*
G01*
X3397250Y-69087D01*
X3406647Y-64515D01*
X3420363Y-64515D01*
X3429761Y-69087D01*
X3434334Y-82804D01*
X3434334Y-129031D01*
X3515613Y-78231D02*
G01*
X3511041Y-69087D01*
X3497072Y-64515D01*
X3483356Y-64515D01*
X3469386Y-69087D01*
X3464813Y-78231D01*
X3469386Y-87629D01*
X3478529Y-92202D01*
X3501643Y-96773D01*
X3511041Y-101345D01*
X3515613Y-110489D01*
X3515613Y-115315D01*
X3511041Y-124460D01*
X3497072Y-129031D01*
X3483356Y-129031D01*
X3469386Y-124460D01*
X3464813Y-115315D01*
X3569208Y-64515D02*
G01*
X3559809Y-69087D01*
X3550665Y-78231D01*
X3546093Y-92202D01*
X3546093Y-101345D01*
X3550665Y-115315D01*
X3559809Y-124460D01*
X3569208Y-129031D01*
X3582924Y-129031D01*
X3592322Y-124460D01*
X3601465Y-115315D01*
X3606038Y-101345D01*
X3606038Y-92202D01*
X3601465Y-78231D01*
X3592322Y-69087D01*
X3582924Y-64515D01*
X3569208Y-64515D01*
X3636518Y-64515D02*
G01*
X3636518Y-129031D01*
X3636518Y-92202D02*
G01*
X3641090Y-78231D01*
X3650488Y-69087D01*
X3659631Y-64515D01*
X3673602Y-64515D01*
X1984247Y-278384D02*
G01*
X1984247Y-352297D01*
X1979675Y-366268D01*
X1974850Y-370839D01*
X1965706Y-375412D01*
X1956561Y-375412D01*
X1947163Y-370839D01*
X1942591Y-366268D01*
X1938020Y-352297D01*
X1938020Y-343154D01*
X2060956Y-278384D02*
G01*
X2014727Y-343154D01*
X2084070Y-343154D01*
X2060956Y-278384D02*
G01*
X2060956Y-375412D01*
X2185670Y-320039D02*
G01*
X2268727Y-320039D01*
X2185670Y-347726D02*
G01*
X2268727Y-347726D01*
X2370327Y-278384D02*
G01*
X2370327Y-375412D01*
X2370327Y-278384D02*
G01*
X2411729Y-278384D01*
X2425700Y-283210D01*
X2430272Y-287781D01*
X2434843Y-296926D01*
X2434843Y-306070D01*
X2430272Y-315468D01*
X2425700Y-320039D01*
X2411729Y-324612D01*
X2370327Y-324612D01*
X2402586Y-324612D02*
G01*
X2434843Y-375412D01*
X2534665Y-301497D02*
G01*
X2530093Y-292354D01*
X2520950Y-283210D01*
X2511552Y-278384D01*
X2493009Y-278384D01*
X2483865Y-283210D01*
X2474722Y-292354D01*
X2470150Y-301497D01*
X2465324Y-315468D01*
X2465324Y-338581D01*
X2470150Y-352297D01*
X2474722Y-361695D01*
X2483865Y-370839D01*
X2493009Y-375412D01*
X2511552Y-375412D01*
X2520950Y-370839D01*
X2530093Y-361695D01*
X2534665Y-352297D01*
X2534665Y-338581D01*
X2511552Y-338581D02*
G01*
X2534665Y-338581D01*
X2565145Y-278384D02*
G01*
X2565145Y-375412D01*
X2565145Y-278384D02*
G01*
X2606802Y-278384D01*
X2620518Y-283210D01*
X2625090Y-287781D01*
X2629915Y-296926D01*
X2629915Y-306070D01*
X2625090Y-315468D01*
X2620518Y-320039D01*
X2606802Y-324612D01*
X2565145Y-324612D02*
G01*
X2606802Y-324612D01*
X2620518Y-329184D01*
X2625090Y-334010D01*
X2629915Y-343154D01*
X2629915Y-356870D01*
X2625090Y-366268D01*
X2620518Y-370839D01*
X2606802Y-375412D01*
X2565145Y-375412D01*
X2796031Y-292354D02*
G01*
X2786888Y-283210D01*
X2772918Y-278384D01*
X2754629Y-278384D01*
X2740659Y-283210D01*
X2731515Y-292354D01*
X2731515Y-301497D01*
X2736088Y-310895D01*
X2740659Y-315468D01*
X2749804Y-320039D01*
X2777490Y-329184D01*
X2786888Y-334010D01*
X2791459Y-338581D01*
X2796031Y-347726D01*
X2796031Y-361695D01*
X2786888Y-370839D01*
X2772918Y-375412D01*
X2754629Y-375412D01*
X2740659Y-370839D01*
X2731515Y-361695D01*
X2840481Y-278384D02*
G01*
X2840481Y-356870D01*
X2845054Y-370839D01*
X2854197Y-375412D01*
X2863595Y-375412D01*
X2826511Y-310895D02*
G01*
X2858770Y-310895D01*
X2949447Y-310895D02*
G01*
X2949447Y-375412D01*
X2949447Y-324612D02*
G01*
X2940050Y-315468D01*
X2930906Y-310895D01*
X2917190Y-310895D01*
X2907791Y-315468D01*
X2898647Y-324612D01*
X2894075Y-338581D01*
X2894075Y-347726D01*
X2898647Y-361695D01*
X2907791Y-370839D01*
X2917190Y-375412D01*
X2930906Y-375412D01*
X2940050Y-370839D01*
X2949447Y-361695D01*
X2993643Y-278384D02*
G01*
X2993643Y-356870D01*
X2998470Y-370839D01*
X3007613Y-375412D01*
X3016758Y-375412D01*
X2979927Y-310895D02*
G01*
X3012186Y-310895D01*
X3047238Y-310895D02*
G01*
X3047238Y-356870D01*
X3051809Y-370839D01*
X3061208Y-375412D01*
X3074924Y-375412D01*
X3084322Y-370839D01*
X3098038Y-356870D01*
X3098038Y-310895D02*
G01*
X3098038Y-375412D01*
X3179318Y-324612D02*
G01*
X3174745Y-315468D01*
X3161029Y-310895D01*
X3147059Y-310895D01*
X3133090Y-315468D01*
X3128518Y-324612D01*
X3133090Y-334010D01*
X3142488Y-338581D01*
X3165602Y-343154D01*
X3174745Y-347726D01*
X3179318Y-356870D01*
X3179318Y-361695D01*
X3174745Y-370839D01*
X3161029Y-375412D01*
X3147059Y-375412D01*
X3133090Y-370839D01*
X3128518Y-361695D01*
X3280918Y-278384D02*
G01*
X3280918Y-375412D01*
X3280918Y-375412D02*
G01*
X3336290Y-375412D01*
X3366770Y-278384D02*
G01*
X3366770Y-375412D01*
X3366770Y-278384D02*
G01*
X3426968Y-278384D01*
X3366770Y-324612D02*
G01*
X3403854Y-324612D01*
X3366770Y-375412D02*
G01*
X3426968Y-375412D01*
X3457447Y-278384D02*
G01*
X3457447Y-375412D01*
X3457447Y-278384D02*
G01*
X3489706Y-278384D01*
X3503675Y-283210D01*
X3512820Y-292354D01*
X3517391Y-301497D01*
X3521963Y-315468D01*
X3521963Y-338581D01*
X3517391Y-352297D01*
X3512820Y-361695D01*
X3503675Y-370839D01*
X3489706Y-375412D01*
X3457447Y-375412D01*
X1974088Y-522223D02*
G01*
X1974088Y-596137D01*
X1969515Y-610107D01*
X1964690Y-614679D01*
X1955545Y-619252D01*
X1946402Y-619252D01*
X1937004Y-614679D01*
X1932431Y-610107D01*
X1927860Y-596137D01*
X1927860Y-586994D01*
X2059940Y-522223D02*
G01*
X2013711Y-522223D01*
X2009140Y-563879D01*
X2013711Y-559307D01*
X2027681Y-554736D01*
X2041397Y-554736D01*
X2055368Y-559307D01*
X2064511Y-568452D01*
X2069084Y-582421D01*
X2069084Y-591565D01*
X2064511Y-605536D01*
X2055368Y-614679D01*
X2041397Y-619252D01*
X2027681Y-619252D01*
X2013711Y-614679D01*
X2009140Y-610107D01*
X2004568Y-600710D01*
X2170684Y-563879D02*
G01*
X2253995Y-563879D01*
X2170684Y-591565D02*
G01*
X2253995Y-591565D01*
X2355595Y-522223D02*
G01*
X2355595Y-619252D01*
X2355595Y-522223D02*
G01*
X2387854Y-522223D01*
X2401570Y-527050D01*
X2410968Y-536194D01*
X2415540Y-545337D01*
X2420111Y-559307D01*
X2420111Y-582421D01*
X2415540Y-596137D01*
X2410968Y-605536D01*
X2401570Y-614679D01*
X2387854Y-619252D01*
X2355595Y-619252D01*
X2515361Y-536194D02*
G01*
X2505963Y-527050D01*
X2492247Y-522223D01*
X2473706Y-522223D01*
X2459990Y-527050D01*
X2450591Y-536194D01*
X2450591Y-545337D01*
X2455163Y-554736D01*
X2459990Y-559307D01*
X2469134Y-563879D01*
X2496820Y-573023D01*
X2505963Y-577850D01*
X2510790Y-582421D01*
X2515361Y-591565D01*
X2515361Y-605536D01*
X2505963Y-614679D01*
X2492247Y-619252D01*
X2473706Y-619252D01*
X2459990Y-614679D01*
X2450591Y-605536D01*
X2554986Y-522223D02*
G01*
X2605786Y-522223D01*
X2578100Y-559307D01*
X2592070Y-559307D01*
X2601213Y-563879D01*
X2605786Y-568452D01*
X2610358Y-582421D01*
X2610358Y-591565D01*
X2605786Y-605536D01*
X2596641Y-614679D01*
X2582672Y-619252D01*
X2568956Y-619252D01*
X2554986Y-614679D01*
X2550413Y-610107D01*
X2545841Y-600710D01*
X2645409Y-545337D02*
G01*
X2645409Y-540765D01*
X2650236Y-531621D01*
X2654808Y-527050D01*
X2663952Y-522223D01*
X2682493Y-522223D01*
X2691638Y-527050D01*
X2696209Y-531621D01*
X2701036Y-540765D01*
X2701036Y-549910D01*
X2696209Y-559307D01*
X2687065Y-573023D01*
X2640838Y-619252D01*
X2705608Y-619252D01*
X2745231Y-522223D02*
G01*
X2796031Y-522223D01*
X2768345Y-559307D01*
X2782315Y-559307D01*
X2791459Y-563879D01*
X2796031Y-568452D01*
X2800604Y-582421D01*
X2800604Y-591565D01*
X2796031Y-605536D01*
X2786888Y-614679D01*
X2772918Y-619252D01*
X2759202Y-619252D01*
X2745231Y-614679D01*
X2740659Y-610107D01*
X2736088Y-600710D01*
X2831084Y-540765D02*
G01*
X2840481Y-536194D01*
X2854197Y-522223D01*
X2854197Y-619252D01*
X2955797Y-522223D02*
G01*
X2955797Y-619252D01*
X2955797Y-522223D02*
G01*
X2997454Y-522223D01*
X3011170Y-527050D01*
X3015995Y-531621D01*
X3020568Y-540765D01*
X3020568Y-549910D01*
X3015995Y-559307D01*
X3011170Y-563879D01*
X2997454Y-568452D01*
X2955797Y-568452D01*
X2988309Y-568452D02*
G01*
X3020568Y-619252D01*
X3083306Y-522223D02*
G01*
X3083306Y-619252D01*
X3051047Y-522223D02*
G01*
X3115563Y-522223D01*
X3215386Y-545337D02*
G01*
X3210813Y-536194D01*
X3201670Y-527050D01*
X3192272Y-522223D01*
X3173729Y-522223D01*
X3164586Y-527050D01*
X3155441Y-536194D01*
X3150870Y-545337D01*
X3146043Y-559307D01*
X3146043Y-582421D01*
X3150870Y-596137D01*
X3155441Y-605536D01*
X3164586Y-614679D01*
X3173729Y-619252D01*
X3192272Y-619252D01*
X3201670Y-614679D01*
X3210813Y-605536D01*
X3215386Y-596137D01*
X10580370Y-1984755D02*
G01*
X10576559Y-1977389D01*
X10569447Y-1970023D01*
X10562081Y-1966468D01*
X10547604Y-1966468D01*
X10540238Y-1970023D01*
X10533125Y-1977389D01*
X10529315Y-1984755D01*
X10525759Y-1995678D01*
X10525759Y-2013712D01*
X10529315Y-2024634D01*
X10533125Y-2032000D01*
X10540238Y-2039365D01*
X10547604Y-2042921D01*
X10562081Y-2042921D01*
X10569447Y-2039365D01*
X10576559Y-2032000D01*
X10580370Y-2024634D01*
X10580370Y-2013712D01*
X10562081Y-2013712D02*
G01*
X10580370Y-2013712D01*
X10604245Y-1966468D02*
G01*
X10604245Y-2042921D01*
X10604245Y-1966468D02*
G01*
X10655300Y-2042921D01*
X10655300Y-1966468D02*
G01*
X10655300Y-2042921D01*
X10679175Y-1966468D02*
G01*
X10679175Y-2042921D01*
X10679175Y-1966468D02*
G01*
X10704575Y-1966468D01*
X10715497Y-1970023D01*
X10722863Y-1977389D01*
X10726420Y-1984755D01*
X10730229Y-1995678D01*
X10730229Y-2013712D01*
X10726420Y-2024634D01*
X10722863Y-2032000D01*
X10715497Y-2039365D01*
X10704575Y-2042921D01*
X10679175Y-2042921D01*
X10535462Y-2215464D02*
G01*
X10575594Y-2215464D01*
X10553750Y-2244420D01*
X10564672Y-2244420D01*
X10572038Y-2248230D01*
X10575594Y-2251786D01*
X10579150Y-2262708D01*
X10579150Y-2270074D01*
X10575594Y-2280996D01*
X10568228Y-2288108D01*
X10557306Y-2291918D01*
X10546384Y-2291918D01*
X10535462Y-2288108D01*
X10531906Y-2284552D01*
X10528350Y-2277186D01*
X10603280Y-2215464D02*
G01*
X10632236Y-2291918D01*
X10661446Y-2215464D02*
G01*
X10632236Y-2291918D01*
X10692688Y-2215464D02*
G01*
X10732566Y-2215464D01*
X10710976Y-2244420D01*
X10721644Y-2244420D01*
X10729010Y-2248230D01*
X10732566Y-2251786D01*
X10736376Y-2262708D01*
X10736376Y-2270074D01*
X10732566Y-2280996D01*
X10725454Y-2288108D01*
X10714532Y-2291918D01*
X10703610Y-2291918D01*
X10692688Y-2288108D01*
X10689132Y-2284552D01*
X10685322Y-2277186D01*
X9725659Y-1725929D02*
G01*
X9718547Y-1718563D01*
X9707625Y-1715007D01*
X9693147Y-1715007D01*
X9682225Y-1718563D01*
X9674859Y-1725929D01*
X9674859Y-1733295D01*
X9678415Y-1740407D01*
X9682225Y-1744218D01*
X9689338Y-1747773D01*
X9711181Y-1755139D01*
X9718547Y-1758695D01*
X9722104Y-1762252D01*
X9725659Y-1769618D01*
X9725659Y-1780539D01*
X9718547Y-1787905D01*
X9707625Y-1791462D01*
X9693147Y-1791462D01*
X9682225Y-1787905D01*
X9674859Y-1780539D01*
X9804400Y-1733295D02*
G01*
X9800590Y-1725929D01*
X9793477Y-1718563D01*
X9786111Y-1715007D01*
X9771634Y-1715007D01*
X9764268Y-1718563D01*
X9757156Y-1725929D01*
X9753345Y-1733295D01*
X9749790Y-1744218D01*
X9749790Y-1762252D01*
X9753345Y-1773173D01*
X9757156Y-1780539D01*
X9764268Y-1787905D01*
X9771634Y-1791462D01*
X9786111Y-1791462D01*
X9793477Y-1787905D01*
X9800590Y-1780539D01*
X9804400Y-1773173D01*
X9828275Y-1715007D02*
G01*
X9828275Y-1791462D01*
X9828275Y-1791462D02*
G01*
X9871963Y-1791462D01*
X9714433Y-1476171D02*
G01*
X9707321Y-1468805D01*
X9696399Y-1465249D01*
X9681921Y-1465249D01*
X9670999Y-1468805D01*
X9663633Y-1476171D01*
X9663633Y-1483537D01*
X9667189Y-1490649D01*
X9670999Y-1494459D01*
X9678111Y-1498015D01*
X9699955Y-1505381D01*
X9707321Y-1508937D01*
X9710877Y-1512493D01*
X9714433Y-1519859D01*
X9714433Y-1530781D01*
X9707321Y-1538147D01*
X9696399Y-1541703D01*
X9681921Y-1541703D01*
X9670999Y-1538147D01*
X9663633Y-1530781D01*
X9738563Y-1465249D02*
G01*
X9738563Y-1541703D01*
X9738563Y-1465249D02*
G01*
X9763963Y-1465249D01*
X9774885Y-1468805D01*
X9782251Y-1476171D01*
X9785807Y-1483537D01*
X9789363Y-1494459D01*
X9789363Y-1512493D01*
X9785807Y-1523415D01*
X9782251Y-1530781D01*
X9774885Y-1538147D01*
X9763963Y-1541703D01*
X9738563Y-1541703D01*
X9842449Y-1465249D02*
G01*
X9813493Y-1541703D01*
X9842449Y-1465249D02*
G01*
X9871659Y-1541703D01*
X9824415Y-1516303D02*
G01*
X9860737Y-1516303D01*
X9673793Y-1218869D02*
G01*
X9673793Y-1295323D01*
X9673793Y-1218869D02*
G01*
X9706559Y-1218869D01*
X9717481Y-1222425D01*
X9721037Y-1226235D01*
X9724593Y-1233347D01*
X9724593Y-1240713D01*
X9721037Y-1248079D01*
X9717481Y-1251635D01*
X9706559Y-1255191D01*
X9673793Y-1255191D02*
G01*
X9706559Y-1255191D01*
X9717481Y-1259001D01*
X9721037Y-1262557D01*
X9724593Y-1269923D01*
X9724593Y-1280845D01*
X9721037Y-1287957D01*
X9717481Y-1291767D01*
X9706559Y-1295323D01*
X9673793Y-1295323D01*
X9777679Y-1218869D02*
G01*
X9748723Y-1295323D01*
X9777679Y-1218869D02*
G01*
X9806889Y-1295323D01*
X9759645Y-1269923D02*
G01*
X9795967Y-1269923D01*
X9856419Y-1218869D02*
G01*
X9856419Y-1295323D01*
X9830765Y-1218869D02*
G01*
X9881819Y-1218869D01*
X9531299Y-957249D02*
G01*
X9571177Y-957249D01*
X9549333Y-986459D01*
X9560255Y-986459D01*
X9567621Y-990015D01*
X9571177Y-993571D01*
X9574733Y-1004493D01*
X9574733Y-1011859D01*
X9571177Y-1022781D01*
X9563811Y-1030147D01*
X9553143Y-1033703D01*
X9542221Y-1033703D01*
X9531299Y-1030147D01*
X9527489Y-1026337D01*
X9523933Y-1019225D01*
X9602419Y-975537D02*
G01*
X9602419Y-971727D01*
X9606229Y-964615D01*
X9609785Y-960805D01*
X9616897Y-957249D01*
X9631629Y-957249D01*
X9638741Y-960805D01*
X9642551Y-964615D01*
X9646107Y-971727D01*
X9646107Y-979093D01*
X9642551Y-986459D01*
X9635185Y-997381D01*
X9598863Y-1033703D01*
X9649663Y-1033703D01*
X9673793Y-957249D02*
G01*
X9673793Y-1033703D01*
X9724593Y-957249D02*
G01*
X9673793Y-1008303D01*
X9691827Y-990015D02*
G01*
X9724593Y-1033703D01*
X9748723Y-957249D02*
G01*
X9748723Y-1033703D01*
X9799523Y-957249D02*
G01*
X9799523Y-1033703D01*
X9748723Y-993571D02*
G01*
X9799523Y-993571D01*
X9874453Y-957249D02*
G01*
X9823653Y-1033703D01*
X9823653Y-957249D02*
G01*
X9874453Y-957249D01*
X9823653Y-1033703D02*
G01*
X9874453Y-1033703D01*
X9691598Y-709117D02*
G01*
X9684486Y-701751D01*
X9673564Y-698195D01*
X9658832Y-698195D01*
X9648164Y-701751D01*
X9640798Y-709117D01*
X9640798Y-716483D01*
X9644354Y-723595D01*
X9648164Y-727405D01*
X9655276Y-730961D01*
X9677120Y-738327D01*
X9684486Y-741883D01*
X9688042Y-745439D01*
X9691598Y-752805D01*
X9691598Y-763727D01*
X9684486Y-770839D01*
X9673564Y-774649D01*
X9658832Y-774649D01*
X9648164Y-770839D01*
X9640798Y-763727D01*
X9737572Y-698195D02*
G01*
X9730206Y-701751D01*
X9722840Y-709117D01*
X9719284Y-716483D01*
X9715728Y-727405D01*
X9715728Y-745439D01*
X9719284Y-756361D01*
X9722840Y-763727D01*
X9730206Y-770839D01*
X9737572Y-774649D01*
X9752050Y-774649D01*
X9759416Y-770839D01*
X9766528Y-763727D01*
X9770338Y-756361D01*
X9773894Y-745439D01*
X9773894Y-727405D01*
X9770338Y-716483D01*
X9766528Y-709117D01*
X9759416Y-701751D01*
X9752050Y-698195D01*
X9737572Y-698195D01*
X9748494Y-759917D02*
G01*
X9770338Y-781761D01*
X9797770Y-698195D02*
G01*
X9816058Y-774649D01*
X9834346Y-698195D02*
G01*
X9816058Y-774649D01*
X9834346Y-698195D02*
G01*
X9852380Y-774649D01*
X9870668Y-698195D02*
G01*
X9852380Y-774649D01*
X9358833Y-449249D02*
G01*
X9358833Y-525703D01*
X9358833Y-449249D02*
G01*
X9391599Y-449249D01*
X9402521Y-452805D01*
X9406077Y-456615D01*
X9409633Y-463727D01*
X9409633Y-471093D01*
X9406077Y-478459D01*
X9402521Y-482015D01*
X9391599Y-485571D01*
X9358833Y-485571D01*
X9384233Y-485571D02*
G01*
X9409633Y-525703D01*
X9459163Y-449249D02*
G01*
X9459163Y-525703D01*
X9433763Y-449249D02*
G01*
X9484563Y-449249D01*
X9563303Y-467537D02*
G01*
X9559493Y-460171D01*
X9552381Y-452805D01*
X9545015Y-449249D01*
X9530537Y-449249D01*
X9523171Y-452805D01*
X9515805Y-460171D01*
X9512249Y-467537D01*
X9508693Y-478459D01*
X9508693Y-496493D01*
X9512249Y-507415D01*
X9515805Y-514781D01*
X9523171Y-522147D01*
X9530537Y-525703D01*
X9545015Y-525703D01*
X9552381Y-522147D01*
X9559493Y-514781D01*
X9563303Y-507415D01*
X9587179Y-551103D02*
G01*
X9652711Y-551103D01*
X9676587Y-449249D02*
G01*
X9676587Y-525703D01*
X9676587Y-449249D02*
G01*
X9709353Y-449249D01*
X9720275Y-452805D01*
X9723831Y-456615D01*
X9727641Y-463727D01*
X9727641Y-471093D01*
X9723831Y-478459D01*
X9720275Y-482015D01*
X9709353Y-485571D01*
X9676587Y-485571D01*
X9701987Y-485571D02*
G01*
X9727641Y-525703D01*
X9802571Y-460171D02*
G01*
X9795205Y-452805D01*
X9784283Y-449249D01*
X9769805Y-449249D01*
X9758883Y-452805D01*
X9751517Y-460171D01*
X9751517Y-467537D01*
X9755073Y-474649D01*
X9758883Y-478459D01*
X9765995Y-482015D01*
X9787839Y-489381D01*
X9795205Y-492937D01*
X9798761Y-496493D01*
X9802571Y-503859D01*
X9802571Y-514781D01*
X9795205Y-522147D01*
X9784283Y-525703D01*
X9769805Y-525703D01*
X9758883Y-522147D01*
X9751517Y-514781D01*
X9851847Y-449249D02*
G01*
X9851847Y-525703D01*
X9826447Y-449249D02*
G01*
X9877501Y-449249D01*
D23*
X11113770Y-814323D02*
G01*
X11113770Y-897381D01*
X11108436Y-913129D01*
X11103356Y-918210D01*
X11092941Y-923289D01*
X11082527Y-923289D01*
X11072113Y-918210D01*
X11066779Y-913129D01*
X11061700Y-897381D01*
X11061700Y-886968D01*
X11158220Y-814323D02*
G01*
X11215370Y-814323D01*
X11184381Y-855979D01*
X11199875Y-855979D01*
X11210290Y-861060D01*
X11215370Y-866139D01*
X11220704Y-881887D01*
X11220704Y-892302D01*
X11215370Y-907795D01*
X11205209Y-918210D01*
X11189461Y-923289D01*
X11173968Y-923289D01*
X11158220Y-918210D01*
X11153140Y-913129D01*
X11148059Y-902715D01*
X717550Y-700023D02*
G01*
X717550Y-783081D01*
X712215Y-798829D01*
X707136Y-803910D01*
X696721Y-808989D01*
X686307Y-808989D01*
X675894Y-803910D01*
X670560Y-798829D01*
X665479Y-783081D01*
X665479Y-772668D01*
X803655Y-700023D02*
G01*
X751839Y-772668D01*
X829563Y-772668D01*
X803655Y-700023D02*
G01*
X803655Y-808989D01*
D21*
X1974088Y-771144D02*
G01*
X1974088Y-845057D01*
X1969515Y-859028D01*
X1964690Y-863600D01*
X1955545Y-868171D01*
X1946402Y-868171D01*
X1937004Y-863600D01*
X1932431Y-859028D01*
X1927860Y-845057D01*
X1927860Y-835913D01*
X2059940Y-785113D02*
G01*
X2055368Y-775970D01*
X2041397Y-771144D01*
X2032254Y-771144D01*
X2018284Y-775970D01*
X2009140Y-789686D01*
X2004568Y-812800D01*
X2004568Y-835913D01*
X2009140Y-854455D01*
X2018284Y-863600D01*
X2032254Y-868171D01*
X2036825Y-868171D01*
X2050795Y-863600D01*
X2059940Y-854455D01*
X2064511Y-840486D01*
X2064511Y-835913D01*
X2059940Y-821944D01*
X2050795Y-812800D01*
X2036825Y-808228D01*
X2032254Y-808228D01*
X2018284Y-812800D01*
X2009140Y-821944D01*
X2004568Y-835913D01*
X2166111Y-812800D02*
G01*
X2249170Y-812800D01*
X2166111Y-840486D02*
G01*
X2249170Y-840486D01*
X2350770Y-771144D02*
G01*
X2350770Y-868171D01*
X2350770Y-771144D02*
G01*
X2383281Y-771144D01*
X2396997Y-775970D01*
X2406395Y-785113D01*
X2410968Y-794257D01*
X2415540Y-808228D01*
X2415540Y-831342D01*
X2410968Y-845057D01*
X2406395Y-854455D01*
X2396997Y-863600D01*
X2383281Y-868171D01*
X2350770Y-868171D01*
X2446020Y-771144D02*
G01*
X2446020Y-868171D01*
X2510790Y-771144D02*
G01*
X2510790Y-868171D01*
X2446020Y-817371D02*
G01*
X2510790Y-817371D01*
X2573527Y-771144D02*
G01*
X2573527Y-868171D01*
X2541270Y-771144D02*
G01*
X2605786Y-771144D01*
X2636265Y-789686D02*
G01*
X2645409Y-785113D01*
X2659379Y-771144D01*
X2659379Y-868171D01*
X2694431Y-794257D02*
G01*
X2694431Y-789686D01*
X2699004Y-780542D01*
X2703829Y-775970D01*
X2712974Y-771144D01*
X2731515Y-771144D01*
X2740659Y-775970D01*
X2745231Y-780542D01*
X2749804Y-789686D01*
X2749804Y-798829D01*
X2745231Y-808228D01*
X2736088Y-821944D01*
X2689859Y-868171D01*
X2754629Y-868171D01*
X2888488Y-771144D02*
G01*
X2888488Y-868171D01*
X2856229Y-771144D02*
G01*
X2920745Y-771144D01*
X2951225Y-771144D02*
G01*
X2951225Y-868171D01*
X2951225Y-821944D02*
G01*
X2965195Y-808228D01*
X2974340Y-803655D01*
X2988309Y-803655D01*
X2997454Y-808228D01*
X3002025Y-821944D01*
X3002025Y-868171D01*
X3032506Y-831342D02*
G01*
X3087877Y-831342D01*
X3087877Y-821944D01*
X3083306Y-812800D01*
X3078734Y-808228D01*
X3069590Y-803655D01*
X3055620Y-803655D01*
X3046475Y-808228D01*
X3037077Y-817371D01*
X3032506Y-831342D01*
X3032506Y-840486D01*
X3037077Y-854455D01*
X3046475Y-863600D01*
X3055620Y-868171D01*
X3069590Y-868171D01*
X3078734Y-863600D01*
X3087877Y-854455D01*
X3118358Y-803655D02*
G01*
X3118358Y-868171D01*
X3118358Y-831342D02*
G01*
X3122929Y-817371D01*
X3132327Y-808228D01*
X3141472Y-803655D01*
X3155441Y-803655D01*
X3185922Y-803655D02*
G01*
X3185922Y-868171D01*
X3185922Y-821944D02*
G01*
X3199638Y-808228D01*
X3209036Y-803655D01*
X3222752Y-803655D01*
X3232150Y-808228D01*
X3236722Y-821944D01*
X3236722Y-868171D01*
X3236722Y-821944D02*
G01*
X3250438Y-808228D01*
X3259836Y-803655D01*
X3273552Y-803655D01*
X3282950Y-808228D01*
X3287522Y-821944D01*
X3287522Y-868171D01*
X3318002Y-771144D02*
G01*
X3322574Y-775970D01*
X3327145Y-771144D01*
X3322574Y-766571D01*
X3318002Y-771144D01*
X3322574Y-803655D02*
G01*
X3322574Y-868171D01*
X3408425Y-817371D02*
G01*
X3403854Y-808228D01*
X3389884Y-803655D01*
X3376168Y-803655D01*
X3362197Y-808228D01*
X3357625Y-817371D01*
X3362197Y-826770D01*
X3371595Y-831342D01*
X3394709Y-835913D01*
X3403854Y-840486D01*
X3408425Y-849629D01*
X3408425Y-854455D01*
X3403854Y-863600D01*
X3389884Y-868171D01*
X3376168Y-868171D01*
X3362197Y-863600D01*
X3357625Y-854455D01*
X3452875Y-771144D02*
G01*
X3452875Y-849629D01*
X3457447Y-863600D01*
X3466591Y-868171D01*
X3475990Y-868171D01*
X3438906Y-803655D02*
G01*
X3471163Y-803655D01*
X3529329Y-803655D02*
G01*
X3520186Y-808228D01*
X3511041Y-817371D01*
X3506470Y-831342D01*
X3506470Y-840486D01*
X3511041Y-854455D01*
X3520186Y-863600D01*
X3529329Y-868171D01*
X3543300Y-868171D01*
X3552443Y-863600D01*
X3561841Y-854455D01*
X3566413Y-840486D01*
X3566413Y-831342D01*
X3561841Y-817371D01*
X3552443Y-808228D01*
X3543300Y-803655D01*
X3529329Y-803655D01*
X3596893Y-803655D02*
G01*
X3596893Y-868171D01*
X3596893Y-831342D02*
G01*
X3601465Y-817371D01*
X3610609Y-808228D01*
X3620008Y-803655D01*
X3633724Y-803655D01*
D24*
X9798050Y-2408936D02*
G01*
X9794240Y-2401570D01*
X9787127Y-2394204D01*
X9779761Y-2390647D01*
X9765284Y-2390647D01*
X9757918Y-2394204D01*
X9750806Y-2401570D01*
X9746995Y-2408936D01*
X9743440Y-2419857D01*
X9743440Y-2437892D01*
X9746995Y-2448813D01*
X9750806Y-2456179D01*
X9757918Y-2463545D01*
X9765284Y-2467102D01*
X9779761Y-2467102D01*
X9787127Y-2463545D01*
X9794240Y-2456179D01*
X9798050Y-2448813D01*
X9858247Y-2390647D02*
G01*
X9821925Y-2441702D01*
X9876536Y-2441702D01*
X9858247Y-2390647D02*
G01*
X9858247Y-2467102D01*
X9438640Y-2400807D02*
G01*
X9438640Y-2477262D01*
X9438640Y-2400807D02*
G01*
X9485884Y-2400807D01*
X9438640Y-2437129D02*
G01*
X9467850Y-2437129D01*
X9510013Y-2400807D02*
G01*
X9510013Y-2477262D01*
X9510013Y-2400807D02*
G01*
X9542525Y-2400807D01*
X9553447Y-2404363D01*
X9557258Y-2408173D01*
X9560813Y-2415286D01*
X9560813Y-2422652D01*
X9557258Y-2430018D01*
X9553447Y-2433573D01*
X9542525Y-2437129D01*
X9510013Y-2437129D02*
G01*
X9542525Y-2437129D01*
X9553447Y-2440939D01*
X9557258Y-2444495D01*
X9560813Y-2451862D01*
X9560813Y-2462784D01*
X9557258Y-2469895D01*
X9553447Y-2473705D01*
X9542525Y-2477262D01*
X9510013Y-2477262D01*
X9621265Y-2400807D02*
G01*
X9584943Y-2451862D01*
X9639300Y-2451862D01*
X9621265Y-2400807D02*
G01*
X9621265Y-2477262D01*
D23*
X10179050Y-176784D02*
G01*
X10179050Y-259842D01*
X10173715Y-275589D01*
X10168636Y-280670D01*
X10158222Y-285750D01*
X10147808Y-285750D01*
X10137393Y-280670D01*
X10132059Y-275589D01*
X10126979Y-259842D01*
X10126979Y-249428D01*
X10275570Y-176784D02*
G01*
X10223500Y-176784D01*
X10218420Y-223520D01*
X10223500Y-218439D01*
X10239247Y-213105D01*
X10254741Y-213105D01*
X10270490Y-218439D01*
X10280650Y-228600D01*
X10285984Y-244347D01*
X10285984Y-254762D01*
X10280650Y-270255D01*
X10270490Y-280670D01*
X10254741Y-285750D01*
X10239247Y-285750D01*
X10223500Y-280670D01*
X10218420Y-275589D01*
X10213340Y-265176D01*
X4730750Y-1271523D02*
G01*
X4730750Y-1354581D01*
X4725415Y-1370329D01*
X4720336Y-1375410D01*
X4709922Y-1380489D01*
X4699508Y-1380489D01*
X4689093Y-1375410D01*
X4683759Y-1370329D01*
X4678679Y-1354581D01*
X4678679Y-1344168D01*
X4765040Y-1292352D02*
G01*
X4775200Y-1287018D01*
X4790947Y-1271523D01*
X4790947Y-1380489D01*
X3953509Y-2432304D02*
G01*
X3953509Y-2515362D01*
X3948175Y-2531110D01*
X3943095Y-2536189D01*
X3932681Y-2541270D01*
X3922268Y-2541270D01*
X3911854Y-2536189D01*
X3906520Y-2531110D01*
X3901440Y-2515362D01*
X3901440Y-2504947D01*
X3992879Y-2458212D02*
G01*
X3992879Y-2453131D01*
X3997959Y-2442718D01*
X4003293Y-2437384D01*
X4013708Y-2432304D01*
X4034536Y-2432304D01*
X4044950Y-2437384D01*
X4050029Y-2442718D01*
X4055109Y-2453131D01*
X4055109Y-2463545D01*
X4050029Y-2473960D01*
X4039615Y-2489454D01*
X3987800Y-2541270D01*
X4060443Y-2541270D01*
D24*
X9824720Y-2488692D02*
G01*
X9824720Y-2412237D01*
X9824720Y-2488692D02*
G01*
X9791954Y-2488692D01*
X9781031Y-2485136D01*
X9777475Y-2481326D01*
X9773920Y-2474213D01*
X9773920Y-2466847D01*
X9777475Y-2459481D01*
X9781031Y-2455926D01*
X9791954Y-2452370D01*
X9824720Y-2452370D01*
X9799320Y-2452370D02*
G01*
X9773920Y-2412237D01*
X9749790Y-2474213D02*
G01*
X9742424Y-2477770D01*
X9731756Y-2488692D01*
X9731756Y-2412237D01*
X7305040Y-904747D02*
G01*
X7305040Y-981202D01*
X7305040Y-904747D02*
G01*
X7352284Y-904747D01*
X7305040Y-941070D02*
G01*
X7334250Y-941070D01*
X7376413Y-904747D02*
G01*
X7376413Y-981202D01*
X7376413Y-904747D02*
G01*
X7408925Y-904747D01*
X7419847Y-908304D01*
X7423658Y-912113D01*
X7427213Y-919226D01*
X7427213Y-926592D01*
X7423658Y-933957D01*
X7419847Y-937513D01*
X7408925Y-941070D01*
X7376413Y-941070D02*
G01*
X7408925Y-941070D01*
X7419847Y-944879D01*
X7423658Y-948436D01*
X7427213Y-955802D01*
X7427213Y-966723D01*
X7423658Y-973836D01*
X7419847Y-977645D01*
X7408925Y-981202D01*
X7376413Y-981202D01*
X7451343Y-919226D02*
G01*
X7458456Y-915670D01*
X7469377Y-904747D01*
X7469377Y-981202D01*
X10967720Y-2332228D02*
G01*
X10967720Y-2408681D01*
X10967720Y-2332228D02*
G01*
X11014963Y-2332228D01*
X10967720Y-2368550D02*
G01*
X10996929Y-2368550D01*
X11039093Y-2332228D02*
G01*
X11039093Y-2408681D01*
X11039093Y-2332228D02*
G01*
X11071606Y-2332228D01*
X11082527Y-2335784D01*
X11086338Y-2339594D01*
X11089893Y-2346705D01*
X11089893Y-2354071D01*
X11086338Y-2361437D01*
X11082527Y-2364994D01*
X11071606Y-2368550D01*
X11039093Y-2368550D02*
G01*
X11071606Y-2368550D01*
X11082527Y-2372360D01*
X11086338Y-2375915D01*
X11089893Y-2383281D01*
X11089893Y-2394204D01*
X11086338Y-2401315D01*
X11082527Y-2405126D01*
X11071606Y-2408681D01*
X11039093Y-2408681D01*
X11117579Y-2350515D02*
G01*
X11117579Y-2346705D01*
X11121136Y-2339594D01*
X11124691Y-2335784D01*
X11132058Y-2332228D01*
X11146536Y-2332228D01*
X11153902Y-2335784D01*
X11157458Y-2339594D01*
X11161268Y-2346705D01*
X11161268Y-2354071D01*
X11157458Y-2361437D01*
X11150345Y-2372360D01*
X11114024Y-2408681D01*
X11164824Y-2408681D01*
X10763250Y-1916684D02*
G01*
X10767059Y-1924050D01*
X10774172Y-1931415D01*
X10781538Y-1934971D01*
X10796015Y-1934971D01*
X10803381Y-1931415D01*
X10810493Y-1924050D01*
X10814304Y-1916684D01*
X10817859Y-1905762D01*
X10817859Y-1887728D01*
X10814304Y-1876805D01*
X10810493Y-1869439D01*
X10803381Y-1862073D01*
X10796015Y-1858518D01*
X10781538Y-1858518D01*
X10774172Y-1862073D01*
X10767059Y-1869439D01*
X10763250Y-1876805D01*
X10735563Y-1916684D02*
G01*
X10735563Y-1920494D01*
X10732008Y-1927605D01*
X10728452Y-1931415D01*
X10721086Y-1934971D01*
X10706608Y-1934971D01*
X10699241Y-1931415D01*
X10695686Y-1927605D01*
X10692129Y-1920494D01*
X10692129Y-1913128D01*
X10695686Y-1905762D01*
X10703052Y-1894839D01*
X10739374Y-1858518D01*
X10688320Y-1858518D01*
X7100570Y-917955D02*
G01*
X7096759Y-910589D01*
X7089647Y-903223D01*
X7082281Y-899668D01*
X7067804Y-899668D01*
X7060438Y-903223D01*
X7053325Y-910589D01*
X7049515Y-917955D01*
X7045959Y-928878D01*
X7045959Y-946912D01*
X7049515Y-957834D01*
X7053325Y-965200D01*
X7060438Y-972565D01*
X7067804Y-976121D01*
X7082281Y-976121D01*
X7089647Y-972565D01*
X7096759Y-965200D01*
X7100570Y-957834D01*
X7124445Y-914145D02*
G01*
X7131811Y-910589D01*
X7142734Y-899668D01*
X7142734Y-976121D01*
X7614920Y-907287D02*
G01*
X7614920Y-983742D01*
X7614920Y-907287D02*
G01*
X7647686Y-907287D01*
X7658608Y-910844D01*
X7662163Y-914654D01*
X7665720Y-921765D01*
X7665720Y-929131D01*
X7662163Y-936497D01*
X7658608Y-940054D01*
X7647686Y-943610D01*
X7614920Y-943610D01*
X7640320Y-943610D02*
G01*
X7665720Y-983742D01*
X7697215Y-907287D02*
G01*
X7737093Y-907287D01*
X7715250Y-936497D01*
X7726172Y-936497D01*
X7733538Y-940054D01*
X7737093Y-943610D01*
X7740650Y-954531D01*
X7740650Y-961897D01*
X7737093Y-972820D01*
X7729727Y-980186D01*
X7718806Y-983742D01*
X7707884Y-983742D01*
X7697215Y-980186D01*
X7693406Y-976376D01*
X7689850Y-969263D01*
X8011159Y-914907D02*
G01*
X8011159Y-991362D01*
X8011159Y-914907D02*
G01*
X8043925Y-914907D01*
X8054847Y-918463D01*
X8058404Y-922273D01*
X8061959Y-929386D01*
X8061959Y-936752D01*
X8058404Y-944118D01*
X8054847Y-947673D01*
X8043925Y-951229D01*
X8011159Y-951229D01*
X8036559Y-951229D02*
G01*
X8061959Y-991362D01*
X8122411Y-914907D02*
G01*
X8086090Y-965962D01*
X8140700Y-965962D01*
X8122411Y-914907D02*
G01*
X8122411Y-991362D01*
D20*
X11280140Y-1746885D02*
G01*
X11280140Y-1176020D01*
D21*
X11280140Y-1747520D02*
G01*
X11026140Y-1747520D01*
X11026140Y-985520D01*
X11280140Y-985520D01*
X11280140Y-1176020D01*
D20*
X866139Y-1899920D02*
G01*
X866139Y-1074420D01*
D21*
X866139Y-1899920D02*
G01*
X612139Y-1899920D01*
X612139Y-883920D01*
X866139Y-883920D01*
X866139Y-1074420D01*
D22*
X9905339Y-2111146D02*
G01*
X9905339Y-1979142D01*
X9698329Y-1979142D01*
X9698329Y-2111146D01*
X9905339Y-2224354D02*
G01*
X9905339Y-2356357D01*
X9698329Y-2356357D01*
X9698329Y-2224354D01*
X9631019Y-2113686D02*
G01*
X9631019Y-1981682D01*
X9424009Y-1981682D01*
X9424009Y-2113686D01*
X9631019Y-2226894D02*
G01*
X9631019Y-2358897D01*
X9424009Y-2358897D01*
X9424009Y-2226894D01*
D21*
X10337800Y-1369060D02*
G01*
X10337800Y-2385060D01*
X10083800Y-2385060D01*
X10083800Y-353060D01*
X10337800Y-353060D01*
X10337800Y-543560D01*
D20*
X10337800Y-1369060D02*
G01*
X10337800Y-543560D01*
D21*
X4884420Y-689000D02*
G01*
X4884420Y-1197000D01*
X4630420Y-1197000D01*
X4630420Y326999D01*
X4884420Y326999D01*
X4884420Y136499D01*
D20*
X4884420Y-689000D02*
G01*
X4884420Y136499D01*
D10*
X3860800Y-3647439D02*
G01*
X3860800Y-3616960D01*
X3860800Y-3616960D02*
G01*
X3860800Y-3423920D01*
X3860800Y-3423920D02*
G01*
X3860800Y-3393439D01*
X4109720Y-3393439D02*
G01*
X4109720Y-3423920D01*
X4109720Y-3423920D02*
G01*
X4109720Y-3616960D01*
X4109720Y-3616960D02*
G01*
X4109720Y-3647439D01*
X4109720Y-3647439D02*
G01*
X3860800Y-3647439D01*
X3860800Y-3616960D02*
G01*
X4109720Y-3616960D01*
X3860800Y-3423920D02*
G01*
X4109720Y-3423920D01*
X3860800Y-3393439D02*
G01*
X3860800Y-3362960D01*
X3860800Y-3362960D02*
G01*
X3860800Y-3169920D01*
X3860800Y-3169920D02*
G01*
X3860800Y-3139439D01*
X4109720Y-3139439D02*
G01*
X4109720Y-3169920D01*
X4109720Y-3169920D02*
G01*
X4109720Y-3362960D01*
X4109720Y-3362960D02*
G01*
X4109720Y-3393439D01*
X4109720Y-3393439D02*
G01*
X3860800Y-3393439D01*
X3860800Y-3362960D02*
G01*
X4109720Y-3362960D01*
X3860800Y-3169920D02*
G01*
X4109720Y-3169920D01*
X3860800Y-3139439D02*
G01*
X3860800Y-3108960D01*
X3860800Y-3108960D02*
G01*
X3860800Y-2915920D01*
X3860800Y-2915920D02*
G01*
X3860800Y-2885439D01*
X4109720Y-2885439D02*
G01*
X4109720Y-2915920D01*
X4109720Y-2915920D02*
G01*
X4109720Y-3108960D01*
X4109720Y-3108960D02*
G01*
X4109720Y-3139439D01*
X4109720Y-3139439D02*
G01*
X3860800Y-3139439D01*
X3860800Y-3108960D02*
G01*
X4109720Y-3108960D01*
X3860800Y-2915920D02*
G01*
X4109720Y-2915920D01*
X3860800Y-2885439D02*
G01*
X3860800Y-2854960D01*
X3860800Y-2854960D02*
G01*
X3860800Y-2661920D01*
X3860800Y-2661920D02*
G01*
X3860800Y-2631439D01*
X4109720Y-2631439D02*
G01*
X4109720Y-2661920D01*
X4109720Y-2661920D02*
G01*
X4109720Y-2854960D01*
X4109720Y-2854960D02*
G01*
X4109720Y-2885439D01*
X4109720Y-2885439D02*
G01*
X3860800Y-2885439D01*
X3860800Y-2854960D02*
G01*
X4109720Y-2854960D01*
X3860800Y-2661920D02*
G01*
X4109720Y-2661920D01*
X4109720Y-2631439D02*
G01*
X3860800Y-2631439D01*
D22*
X9715881Y-2548254D02*
G01*
X9583877Y-2548254D01*
X9583877Y-2755264D01*
X9715881Y-2755264D01*
X9829088Y-2548254D02*
G01*
X9961092Y-2548254D01*
X9961092Y-2755264D01*
X9829088Y-2755264D01*
X7282840Y-736193D02*
G01*
X7282840Y-868197D01*
X7489850Y-868197D01*
X7489850Y-736193D01*
X7282840Y-622985D02*
G01*
X7282840Y-490981D01*
X7489850Y-490981D01*
X7489850Y-622985D01*
X10990986Y-2080920D02*
G01*
X10858982Y-2080920D01*
X10858982Y-2287930D01*
X10990986Y-2287930D01*
X11104194Y-2080920D02*
G01*
X11236197Y-2080920D01*
X11236197Y-2287930D01*
X11104194Y-2287930D01*
X11099393Y-2000859D02*
G01*
X11231397Y-2000859D01*
X11231397Y-1793849D01*
X11099393Y-1793849D01*
X10986185Y-2000859D02*
G01*
X10854181Y-2000859D01*
X10854181Y-1793849D01*
X10986185Y-1793849D01*
X6993280Y-736193D02*
G01*
X6993280Y-868197D01*
X7200290Y-868197D01*
X7200290Y-736193D01*
X6993280Y-622985D02*
G01*
X6993280Y-490981D01*
X7200290Y-490981D01*
X7200290Y-622985D01*
X7569834Y-741298D02*
G01*
X7569834Y-873302D01*
X7776845Y-873302D01*
X7776845Y-741298D01*
X7569834Y-628091D02*
G01*
X7569834Y-496087D01*
X7776845Y-496087D01*
X7776845Y-628091D01*
X8001381Y-671195D02*
G01*
X7869377Y-671195D01*
X7869377Y-878204D01*
X8001381Y-878204D01*
X8114588Y-671195D02*
G01*
X8246592Y-671195D01*
X8246592Y-878204D01*
X8114588Y-878204D01*
D10*
X1818639Y584200D02*
G01*
X3804920Y584200D01*
X3804920Y-1038860D01*
X1818639Y-1038860D01*
X1818639Y584200D01*
M02*
