G04 Layer: TopSolderMaskLayer*
G04 EasyEDA v6.4.31, 2022-02-02 03:50:30*
G04 0b916ec405ec4e9094bbf8359c402fb2,658f5e24285b455797eae137c281a567,10*
G04 Gerber Generator version 0.2*
G04 Scale: 100 percent, Rotated: No, Reflected: No *
G04 Dimensions in millimeters *
G04 leading zeros omitted , absolute positions ,4 integer and 5 decimal *
%FSLAX45Y45*%
%MOMM*%

%ADD28R,3.0023X1.5037*%

%LPD*%
G36*
X10879074Y-1198879D02*
G01*
X10879074Y-1026160D01*
X11427206Y-1026160D01*
X11427206Y-1198879D01*
G37*
G36*
X10879074Y-1452879D02*
G01*
X10879074Y-1280160D01*
X11427206Y-1280160D01*
X11427206Y-1452879D01*
G37*
G36*
X10879074Y-1706879D02*
G01*
X10879074Y-1534160D01*
X11427206Y-1534160D01*
X11427206Y-1706879D01*
G37*
G36*
X465073Y-1097279D02*
G01*
X465073Y-924560D01*
X1013205Y-924560D01*
X1013205Y-1097279D01*
G37*
G36*
X465073Y-1351279D02*
G01*
X465073Y-1178560D01*
X1013205Y-1178560D01*
X1013205Y-1351279D01*
G37*
G36*
X465073Y-1605279D02*
G01*
X465073Y-1432560D01*
X1013205Y-1432560D01*
X1013205Y-1605279D01*
G37*
G36*
X465073Y-1859279D02*
G01*
X465073Y-1686560D01*
X1013205Y-1686560D01*
X1013205Y-1859279D01*
G37*
G36*
X9719309Y-2336292D02*
G01*
X9719309Y-2200147D01*
X9884409Y-2200147D01*
X9884409Y-2336292D01*
G37*
G36*
X9719309Y-2133092D02*
G01*
X9719309Y-1996947D01*
X9884409Y-1996947D01*
X9884409Y-2133092D01*
G37*
G36*
X9444990Y-2338831D02*
G01*
X9444990Y-2202687D01*
X9610090Y-2202687D01*
X9610090Y-2338831D01*
G37*
G36*
X9444990Y-2135631D02*
G01*
X9444990Y-1999487D01*
X9610090Y-1999487D01*
X9610090Y-2135631D01*
G37*
G36*
X9936734Y-566420D02*
G01*
X9936734Y-393700D01*
X10484865Y-393700D01*
X10484865Y-566420D01*
G37*
G36*
X9936734Y-820420D02*
G01*
X9936734Y-647700D01*
X10484865Y-647700D01*
X10484865Y-820420D01*
G37*
G36*
X9936734Y-1074420D02*
G01*
X9936734Y-901700D01*
X10484865Y-901700D01*
X10484865Y-1074420D01*
G37*
G36*
X9936734Y-1328420D02*
G01*
X9936734Y-1155700D01*
X10484865Y-1155700D01*
X10484865Y-1328420D01*
G37*
G36*
X9936734Y-1582420D02*
G01*
X9936734Y-1409700D01*
X10484865Y-1409700D01*
X10484865Y-1582420D01*
G37*
G36*
X9936734Y-1836420D02*
G01*
X9936734Y-1663700D01*
X10484865Y-1663700D01*
X10484865Y-1836420D01*
G37*
G36*
X9936734Y-2090420D02*
G01*
X9936734Y-1917700D01*
X10484865Y-1917700D01*
X10484865Y-2090420D01*
G37*
G36*
X9936734Y-2344420D02*
G01*
X9936734Y-2171700D01*
X10484865Y-2171700D01*
X10484865Y-2344420D01*
G37*
G36*
X4483354Y113537D02*
G01*
X4483354Y286257D01*
X5031486Y286257D01*
X5031486Y113537D01*
G37*
G36*
X4483354Y-140462D02*
G01*
X4483354Y32257D01*
X5031486Y32257D01*
X5031486Y-140462D01*
G37*
G36*
X4483354Y-394462D02*
G01*
X4483354Y-221742D01*
X5031486Y-221742D01*
X5031486Y-394462D01*
G37*
G36*
X4483354Y-648462D02*
G01*
X4483354Y-475742D01*
X5031486Y-475742D01*
X5031486Y-648462D01*
G37*
G36*
X4483354Y-902462D02*
G01*
X4483354Y-729742D01*
X5031486Y-729742D01*
X5031486Y-902462D01*
G37*
G36*
X4483354Y-1156462D02*
G01*
X4483354Y-983742D01*
X5031486Y-983742D01*
X5031486Y-1156462D01*
G37*
D28*
G01*
X4315459Y-3520439D03*
G01*
X4315459Y-3266439D03*
G01*
X4315459Y-3012439D03*
G01*
X4315459Y-2758439D03*
G36*
X9804908Y-2735326D02*
G01*
X9804908Y-2568194D01*
X9941052Y-2568194D01*
X9941052Y-2735326D01*
G37*
G36*
X9601708Y-2735326D02*
G01*
X9601708Y-2568194D01*
X9737852Y-2568194D01*
X9737852Y-2735326D01*
G37*
G36*
X7303770Y-647192D02*
G01*
X7303770Y-511047D01*
X7468870Y-511047D01*
X7468870Y-647192D01*
G37*
G36*
X7303770Y-850392D02*
G01*
X7303770Y-714247D01*
X7468870Y-714247D01*
X7468870Y-850392D01*
G37*
G36*
X11079988Y-2266950D02*
G01*
X11079988Y-2101850D01*
X11216131Y-2101850D01*
X11216131Y-2266950D01*
G37*
G36*
X10876788Y-2266950D02*
G01*
X10876788Y-2101850D01*
X11012931Y-2101850D01*
X11012931Y-2266950D01*
G37*
G36*
X10874247Y-1979929D02*
G01*
X10874247Y-1814829D01*
X11010391Y-1814829D01*
X11010391Y-1979929D01*
G37*
G36*
X11077447Y-1979929D02*
G01*
X11077447Y-1814829D01*
X11213591Y-1814829D01*
X11213591Y-1979929D01*
G37*
G36*
X7014209Y-647192D02*
G01*
X7014209Y-511047D01*
X7179309Y-511047D01*
X7179309Y-647192D01*
G37*
G36*
X7014209Y-850392D02*
G01*
X7014209Y-714247D01*
X7179309Y-714247D01*
X7179309Y-850392D01*
G37*
G36*
X7589774Y-652271D02*
G01*
X7589774Y-516128D01*
X7756906Y-516128D01*
X7756906Y-652271D01*
G37*
G36*
X7589774Y-855471D02*
G01*
X7589774Y-719328D01*
X7756906Y-719328D01*
X7756906Y-855471D01*
G37*
G36*
X8090408Y-858265D02*
G01*
X8090408Y-691134D01*
X8226552Y-691134D01*
X8226552Y-858265D01*
G37*
G36*
X7887208Y-858265D02*
G01*
X7887208Y-691134D01*
X8023352Y-691134D01*
X8023352Y-858265D01*
G37*
M02*
