G04 Layer: InnerLayer2*
G04 EasyEDA v6.4.31, 2022-02-02 03:50:30*
G04 0b916ec405ec4e9094bbf8359c402fb2,658f5e24285b455797eae137c281a567,10*
G04 Gerber Generator version 0.2*
G04 Scale: 100 percent, Rotated: No, Reflected: No *
G04 Dimensions in millimeters *
G04 leading zeros omitted , absolute positions ,4 integer and 5 decimal *
%FSLAX45Y45*%
%MOMM*%

%ADD11C,0.6350*%
%ADD12C,1.2700*%

%LPD*%
G36*
X11250000Y-3750119D02*
G01*
X11231879Y-3750000D01*
X10058908Y-3750055D01*
X1476502Y-3750055D01*
X668020Y-3750000D01*
X652779Y-3749039D01*
X645652Y-3748938D01*
X638533Y-3748633D01*
X631423Y-3748125D01*
X624334Y-3747416D01*
X617265Y-3746505D01*
X610224Y-3745392D01*
X603219Y-3744079D01*
X596257Y-3742565D01*
X589338Y-3740856D01*
X582470Y-3738948D01*
X575660Y-3736847D01*
X568914Y-3734551D01*
X562234Y-3732067D01*
X555627Y-3729390D01*
X549102Y-3726527D01*
X542660Y-3723479D01*
X536305Y-3720249D01*
X530049Y-3716840D01*
X523890Y-3713253D01*
X517837Y-3709492D01*
X511893Y-3705560D01*
X506061Y-3701460D01*
X500352Y-3697196D01*
X494766Y-3692771D01*
X489308Y-3688189D01*
X483984Y-3683452D01*
X478795Y-3678565D01*
X473748Y-3673533D01*
X468848Y-3668359D01*
X464096Y-3663045D01*
X459498Y-3657602D01*
X455056Y-3652027D01*
X450776Y-3646330D01*
X446659Y-3640510D01*
X442711Y-3634579D01*
X438932Y-3628534D01*
X435328Y-3622387D01*
X431901Y-3616139D01*
X428652Y-3609794D01*
X425587Y-3603360D01*
X422704Y-3596843D01*
X420011Y-3590246D01*
X417504Y-3583574D01*
X415190Y-3576833D01*
X413070Y-3570028D01*
X411144Y-3563167D01*
X409414Y-3556254D01*
X407883Y-3549294D01*
X406549Y-3542291D01*
X405417Y-3535255D01*
X404484Y-3528189D01*
X403755Y-3521100D01*
X403227Y-3513993D01*
X402902Y-3506873D01*
X402780Y-3499749D01*
X402780Y-3499040D01*
X400050Y-3500120D01*
X400050Y750062D01*
X401320Y749300D01*
X401421Y756427D01*
X401726Y763546D01*
X402234Y770656D01*
X402943Y777745D01*
X403854Y784814D01*
X404967Y791855D01*
X406280Y798860D01*
X407794Y805822D01*
X409503Y812741D01*
X411411Y819609D01*
X413512Y826419D01*
X415808Y833165D01*
X418292Y839845D01*
X420969Y846452D01*
X423832Y852977D01*
X426880Y859419D01*
X430110Y865774D01*
X433519Y872030D01*
X437106Y878189D01*
X440867Y884242D01*
X444799Y890186D01*
X448899Y896018D01*
X453163Y901727D01*
X457588Y907313D01*
X462173Y912771D01*
X466907Y918095D01*
X471794Y923284D01*
X476826Y928331D01*
X482000Y933231D01*
X487314Y937983D01*
X492757Y942581D01*
X498332Y947023D01*
X504029Y951303D01*
X509849Y955420D01*
X515780Y959368D01*
X521825Y963147D01*
X527972Y966751D01*
X534220Y970178D01*
X540565Y973427D01*
X546999Y976492D01*
X553516Y979375D01*
X560115Y982068D01*
X566785Y984575D01*
X573526Y986889D01*
X580331Y989009D01*
X587192Y990935D01*
X594105Y992665D01*
X601068Y994196D01*
X608068Y995530D01*
X615104Y996662D01*
X622170Y997595D01*
X629259Y998324D01*
X636366Y998852D01*
X643486Y999177D01*
X650610Y999299D01*
X657738Y999218D01*
X658619Y999192D01*
X632460Y1000000D01*
X1743710Y999997D01*
X9866629Y999997D01*
X11249913Y1000000D01*
X11250000Y1000760D01*
X11257127Y1000658D01*
X11264247Y1000353D01*
X11271356Y999845D01*
X11278445Y999136D01*
X11285514Y998225D01*
X11292555Y997112D01*
X11299560Y995799D01*
X11306522Y994285D01*
X11313441Y992576D01*
X11320310Y990668D01*
X11327119Y988568D01*
X11333866Y986271D01*
X11340546Y983787D01*
X11347152Y981110D01*
X11353678Y978247D01*
X11360119Y975199D01*
X11366474Y971969D01*
X11372730Y968560D01*
X11378890Y964973D01*
X11384942Y961212D01*
X11390886Y957280D01*
X11396718Y953180D01*
X11402428Y948916D01*
X11408013Y944491D01*
X11413472Y939909D01*
X11418796Y935172D01*
X11423985Y930285D01*
X11429032Y925253D01*
X11433931Y920079D01*
X11438684Y914765D01*
X11443281Y909322D01*
X11447724Y903747D01*
X11452004Y898050D01*
X11456121Y892230D01*
X11460068Y886299D01*
X11463848Y880254D01*
X11467452Y874107D01*
X11470878Y867859D01*
X11474127Y861514D01*
X11477193Y855080D01*
X11480076Y848563D01*
X11482768Y841966D01*
X11485275Y835294D01*
X11487589Y828553D01*
X11489710Y821748D01*
X11491635Y814887D01*
X11493365Y807973D01*
X11494897Y801014D01*
X11496230Y794011D01*
X11497363Y786975D01*
X11498295Y779909D01*
X11499024Y772820D01*
X11499552Y765713D01*
X11499877Y758593D01*
X11499999Y751469D01*
X11499999Y-3500120D01*
X11499898Y-3507247D01*
X11499593Y-3514366D01*
X11499085Y-3521476D01*
X11498376Y-3528565D01*
X11497464Y-3535634D01*
X11496352Y-3542675D01*
X11495039Y-3549680D01*
X11493525Y-3556642D01*
X11491815Y-3563561D01*
X11489908Y-3570429D01*
X11487807Y-3577239D01*
X11485511Y-3583985D01*
X11483027Y-3590665D01*
X11480350Y-3597272D01*
X11477487Y-3603797D01*
X11474439Y-3610239D01*
X11471208Y-3616594D01*
X11467800Y-3622850D01*
X11464213Y-3629009D01*
X11460452Y-3635062D01*
X11456520Y-3641006D01*
X11452420Y-3646838D01*
X11448155Y-3652547D01*
X11443731Y-3658133D01*
X11439149Y-3663591D01*
X11434411Y-3668915D01*
X11429525Y-3674104D01*
X11424493Y-3679151D01*
X11419319Y-3684051D01*
X11414005Y-3688803D01*
X11408562Y-3693401D01*
X11402987Y-3697843D01*
X11397289Y-3702123D01*
X11391470Y-3706240D01*
X11385539Y-3710188D01*
X11379494Y-3713967D01*
X11373347Y-3717571D01*
X11367099Y-3720998D01*
X11360754Y-3724247D01*
X11354320Y-3727312D01*
X11347803Y-3730195D01*
X11341206Y-3732888D01*
X11334534Y-3735395D01*
X11327792Y-3737709D01*
X11320988Y-3739829D01*
X11314127Y-3741755D01*
X11307213Y-3743485D01*
X11300254Y-3745016D01*
X11293251Y-3746350D01*
X11286215Y-3747482D01*
X11279149Y-3748415D01*
X11272060Y-3749144D01*
X11264953Y-3749672D01*
X11257833Y-3749997D01*
X11250709Y-3750119D01*
G37*

%LPC*%
G36*
X7758691Y-3599385D02*
G01*
X7762725Y-3599334D01*
X7766748Y-3599078D01*
X7770754Y-3598616D01*
X7774731Y-3597948D01*
X7778671Y-3597079D01*
X7782557Y-3596012D01*
X7786387Y-3594745D01*
X7790146Y-3593287D01*
X7793827Y-3591636D01*
X7797416Y-3589802D01*
X7800908Y-3587785D01*
X7804294Y-3585593D01*
X7807563Y-3583231D01*
X7810708Y-3580704D01*
X7813718Y-3578021D01*
X7816588Y-3575189D01*
X7819308Y-3572212D01*
X7821874Y-3569101D01*
X7824279Y-3565862D01*
X7826512Y-3562507D01*
X7828574Y-3559040D01*
X7830454Y-3555474D01*
X7832150Y-3551814D01*
X7833659Y-3548075D01*
X7834972Y-3544262D01*
X7836093Y-3540386D01*
X7837009Y-3536459D01*
X7837728Y-3532492D01*
X7838241Y-3528491D01*
X7838549Y-3524470D01*
X7838653Y-3520439D01*
X7838549Y-3516409D01*
X7838241Y-3512388D01*
X7837728Y-3508387D01*
X7837009Y-3504420D01*
X7836093Y-3500493D01*
X7834972Y-3496617D01*
X7833659Y-3492804D01*
X7832150Y-3489065D01*
X7830454Y-3485405D01*
X7828574Y-3481839D01*
X7826512Y-3478372D01*
X7824279Y-3475017D01*
X7821874Y-3471778D01*
X7819308Y-3468667D01*
X7816588Y-3465690D01*
X7813718Y-3462858D01*
X7810708Y-3460175D01*
X7807563Y-3457648D01*
X7804294Y-3455286D01*
X7800908Y-3453094D01*
X7797416Y-3451077D01*
X7793827Y-3449243D01*
X7790146Y-3447592D01*
X7786387Y-3446134D01*
X7782557Y-3444867D01*
X7778671Y-3443800D01*
X7774731Y-3442931D01*
X7770754Y-3442263D01*
X7766748Y-3441801D01*
X7762725Y-3441545D01*
X7758691Y-3441494D01*
X7754663Y-3441646D01*
X7750644Y-3442007D01*
X7746652Y-3442571D01*
X7742692Y-3443340D01*
X7738778Y-3444308D01*
X7734919Y-3445476D01*
X7731122Y-3446838D01*
X7727403Y-3448395D01*
X7723766Y-3450137D01*
X7720223Y-3452063D01*
X7716784Y-3454168D01*
X7713456Y-3456447D01*
X7710248Y-3458890D01*
X7707170Y-3461496D01*
X7704228Y-3464255D01*
X7701432Y-3467160D01*
X7698788Y-3470206D01*
X7696301Y-3473381D01*
X7693982Y-3476680D01*
X7691833Y-3480092D01*
X7689862Y-3483610D01*
X7688072Y-3487224D01*
X7686471Y-3490925D01*
X7685059Y-3494704D01*
X7683842Y-3498547D01*
X7682824Y-3502449D01*
X7682003Y-3506398D01*
X7681389Y-3510384D01*
X7680977Y-3514397D01*
X7680772Y-3518423D01*
X7680772Y-3522456D01*
X7680977Y-3526482D01*
X7681389Y-3530495D01*
X7682003Y-3534481D01*
X7682824Y-3538430D01*
X7683842Y-3542332D01*
X7685059Y-3546175D01*
X7686471Y-3549954D01*
X7688072Y-3553655D01*
X7689862Y-3557270D01*
X7691833Y-3560787D01*
X7693982Y-3564199D01*
X7696301Y-3567498D01*
X7698788Y-3570673D01*
X7701432Y-3573719D01*
X7704228Y-3576624D01*
X7707170Y-3579383D01*
X7710248Y-3581989D01*
X7713456Y-3584432D01*
X7716784Y-3586711D01*
X7720223Y-3588816D01*
X7723766Y-3590742D01*
X7727403Y-3592484D01*
X7731122Y-3594041D01*
X7734919Y-3595403D01*
X7738778Y-3596571D01*
X7742692Y-3597539D01*
X7746652Y-3598308D01*
X7750644Y-3598872D01*
X7754663Y-3599233D01*
G37*
G36*
X10179989Y-3582944D02*
G01*
X10185575Y-3582842D01*
X10191155Y-3582535D01*
X10196718Y-3582027D01*
X10202260Y-3581313D01*
X10207772Y-3580399D01*
X10213246Y-3579284D01*
X10218676Y-3577970D01*
X10224056Y-3576459D01*
X10229375Y-3574752D01*
X10234630Y-3572852D01*
X10239811Y-3570759D01*
X10244912Y-3568481D01*
X10249926Y-3566017D01*
X10254848Y-3563373D01*
X10259669Y-3560551D01*
X10264383Y-3557554D01*
X10268986Y-3554387D01*
X10273471Y-3551052D01*
X10277830Y-3547557D01*
X10282059Y-3543907D01*
X10286151Y-3540102D01*
X10290101Y-3536152D01*
X10293906Y-3532060D01*
X10297556Y-3527831D01*
X10301051Y-3523472D01*
X10304386Y-3518987D01*
X10307553Y-3514384D01*
X10310550Y-3509670D01*
X10313372Y-3504849D01*
X10316016Y-3499926D01*
X10318480Y-3494912D01*
X10320759Y-3489812D01*
X10322852Y-3484631D01*
X10324752Y-3479375D01*
X10326458Y-3474057D01*
X10327970Y-3468677D01*
X10329283Y-3463246D01*
X10330398Y-3457773D01*
X10331312Y-3452261D01*
X10332026Y-3446719D01*
X10332534Y-3441156D01*
X10332841Y-3435576D01*
X10332943Y-3429990D01*
X10332841Y-3424405D01*
X10332534Y-3418824D01*
X10332026Y-3413262D01*
X10331312Y-3407719D01*
X10330398Y-3402208D01*
X10329283Y-3396734D01*
X10327970Y-3391303D01*
X10326458Y-3385924D01*
X10324752Y-3380605D01*
X10322852Y-3375350D01*
X10320759Y-3370168D01*
X10318480Y-3365068D01*
X10316016Y-3360054D01*
X10313372Y-3355131D01*
X10310550Y-3350310D01*
X10307553Y-3345596D01*
X10304386Y-3340994D01*
X10301051Y-3336508D01*
X10297556Y-3332149D01*
X10293906Y-3327920D01*
X10290101Y-3323828D01*
X10286151Y-3319879D01*
X10282059Y-3316074D01*
X10277830Y-3312424D01*
X10273471Y-3308929D01*
X10268986Y-3305594D01*
X10264383Y-3302426D01*
X10259669Y-3299429D01*
X10254848Y-3296607D01*
X10249926Y-3293963D01*
X10244912Y-3291499D01*
X10239811Y-3289221D01*
X10234630Y-3287128D01*
X10229375Y-3285228D01*
X10224056Y-3283521D01*
X10218676Y-3282010D01*
X10213246Y-3280697D01*
X10207772Y-3279581D01*
X10202260Y-3278667D01*
X10196718Y-3277953D01*
X10191155Y-3277445D01*
X10185575Y-3277138D01*
X10179989Y-3277036D01*
X10174404Y-3277138D01*
X10168823Y-3277445D01*
X10163261Y-3277953D01*
X10157719Y-3278667D01*
X10152207Y-3279581D01*
X10146733Y-3280697D01*
X10141303Y-3282010D01*
X10135923Y-3283521D01*
X10130604Y-3285228D01*
X10125349Y-3287128D01*
X10120167Y-3289221D01*
X10115067Y-3291499D01*
X10110053Y-3293963D01*
X10105130Y-3296607D01*
X10100309Y-3299429D01*
X10095595Y-3302426D01*
X10090993Y-3305594D01*
X10086507Y-3308929D01*
X10082149Y-3312424D01*
X10077919Y-3316074D01*
X10073827Y-3319879D01*
X10069878Y-3323828D01*
X10066073Y-3327920D01*
X10062423Y-3332149D01*
X10058928Y-3336508D01*
X10055593Y-3340994D01*
X10052425Y-3345596D01*
X10049428Y-3350310D01*
X10046606Y-3355131D01*
X10043962Y-3360054D01*
X10041498Y-3365068D01*
X10039220Y-3370168D01*
X10037127Y-3375350D01*
X10035227Y-3380605D01*
X10033520Y-3385924D01*
X10032009Y-3391303D01*
X10030696Y-3396734D01*
X10029581Y-3402208D01*
X10028666Y-3407719D01*
X10027953Y-3413262D01*
X10027445Y-3418824D01*
X10027137Y-3424405D01*
X10027036Y-3429990D01*
X10027137Y-3435576D01*
X10027445Y-3441156D01*
X10027953Y-3446719D01*
X10028666Y-3452261D01*
X10029581Y-3457773D01*
X10030696Y-3463246D01*
X10032009Y-3468677D01*
X10033520Y-3474057D01*
X10035227Y-3479375D01*
X10037127Y-3484631D01*
X10039220Y-3489812D01*
X10041498Y-3494912D01*
X10043962Y-3499926D01*
X10046606Y-3504849D01*
X10049428Y-3509670D01*
X10052425Y-3514384D01*
X10055593Y-3518987D01*
X10058928Y-3523472D01*
X10062423Y-3527831D01*
X10066073Y-3532060D01*
X10069878Y-3536152D01*
X10073827Y-3540102D01*
X10077919Y-3543907D01*
X10082149Y-3547557D01*
X10086507Y-3551052D01*
X10090993Y-3554387D01*
X10095595Y-3557554D01*
X10100309Y-3560551D01*
X10105130Y-3563373D01*
X10110053Y-3566017D01*
X10115067Y-3568481D01*
X10120167Y-3570759D01*
X10125349Y-3572852D01*
X10130604Y-3574752D01*
X10135923Y-3576459D01*
X10141303Y-3577970D01*
X10146733Y-3579284D01*
X10152207Y-3580399D01*
X10157719Y-3581313D01*
X10163261Y-3582027D01*
X10168823Y-3582535D01*
X10174404Y-3582842D01*
G37*
G36*
X1320012Y-3582944D02*
G01*
X1325598Y-3582842D01*
X1331178Y-3582535D01*
X1336741Y-3582027D01*
X1342283Y-3581313D01*
X1347795Y-3580399D01*
X1353268Y-3579284D01*
X1358699Y-3577970D01*
X1364079Y-3576459D01*
X1369397Y-3574752D01*
X1374653Y-3572852D01*
X1379834Y-3570759D01*
X1384935Y-3568481D01*
X1389948Y-3566017D01*
X1394871Y-3563373D01*
X1399692Y-3560551D01*
X1404406Y-3557554D01*
X1409009Y-3554387D01*
X1413494Y-3551052D01*
X1417853Y-3547557D01*
X1422082Y-3543907D01*
X1426174Y-3540102D01*
X1430124Y-3536152D01*
X1433929Y-3532060D01*
X1437579Y-3527831D01*
X1441074Y-3523472D01*
X1444409Y-3518987D01*
X1447576Y-3514384D01*
X1450573Y-3509670D01*
X1453395Y-3504849D01*
X1456039Y-3499926D01*
X1458503Y-3494912D01*
X1460781Y-3489812D01*
X1462874Y-3484631D01*
X1464774Y-3479375D01*
X1466481Y-3474057D01*
X1467993Y-3468677D01*
X1469306Y-3463246D01*
X1470421Y-3457773D01*
X1471335Y-3452261D01*
X1472049Y-3446719D01*
X1472557Y-3441156D01*
X1472864Y-3435576D01*
X1472966Y-3429990D01*
X1472864Y-3424405D01*
X1472557Y-3418824D01*
X1472049Y-3413262D01*
X1471335Y-3407719D01*
X1470421Y-3402208D01*
X1469306Y-3396734D01*
X1467993Y-3391303D01*
X1466481Y-3385924D01*
X1464774Y-3380605D01*
X1462874Y-3375350D01*
X1460781Y-3370168D01*
X1458503Y-3365068D01*
X1456039Y-3360054D01*
X1453395Y-3355131D01*
X1450573Y-3350310D01*
X1447576Y-3345596D01*
X1444409Y-3340994D01*
X1441074Y-3336508D01*
X1437579Y-3332149D01*
X1433929Y-3327920D01*
X1430124Y-3323828D01*
X1426174Y-3319879D01*
X1422082Y-3316074D01*
X1417853Y-3312424D01*
X1413494Y-3308929D01*
X1409009Y-3305594D01*
X1404406Y-3302426D01*
X1399692Y-3299429D01*
X1394871Y-3296607D01*
X1389948Y-3293963D01*
X1384935Y-3291499D01*
X1379834Y-3289221D01*
X1374653Y-3287128D01*
X1369397Y-3285228D01*
X1364079Y-3283521D01*
X1358699Y-3282010D01*
X1353268Y-3280697D01*
X1347795Y-3279581D01*
X1342283Y-3278667D01*
X1336741Y-3277953D01*
X1331178Y-3277445D01*
X1325598Y-3277138D01*
X1320012Y-3277036D01*
X1314427Y-3277138D01*
X1308846Y-3277445D01*
X1303284Y-3277953D01*
X1297741Y-3278667D01*
X1292230Y-3279581D01*
X1286756Y-3280697D01*
X1281325Y-3282010D01*
X1275946Y-3283521D01*
X1270627Y-3285228D01*
X1265372Y-3287128D01*
X1260190Y-3289221D01*
X1255090Y-3291499D01*
X1250076Y-3293963D01*
X1245153Y-3296607D01*
X1240332Y-3299429D01*
X1235618Y-3302426D01*
X1231016Y-3305594D01*
X1226530Y-3308929D01*
X1222171Y-3312424D01*
X1217942Y-3316074D01*
X1213850Y-3319879D01*
X1209901Y-3323828D01*
X1206096Y-3327920D01*
X1202446Y-3332149D01*
X1198951Y-3336508D01*
X1195616Y-3340994D01*
X1192448Y-3345596D01*
X1189451Y-3350310D01*
X1186629Y-3355131D01*
X1183985Y-3360054D01*
X1181521Y-3365068D01*
X1179243Y-3370168D01*
X1177150Y-3375350D01*
X1175250Y-3380605D01*
X1173543Y-3385924D01*
X1172032Y-3391303D01*
X1170719Y-3396734D01*
X1169603Y-3402208D01*
X1168689Y-3407719D01*
X1167975Y-3413262D01*
X1167467Y-3418824D01*
X1167160Y-3424405D01*
X1167058Y-3429990D01*
X1167160Y-3435576D01*
X1167467Y-3441156D01*
X1167975Y-3446719D01*
X1168689Y-3452261D01*
X1169603Y-3457773D01*
X1170719Y-3463246D01*
X1172032Y-3468677D01*
X1173543Y-3474057D01*
X1175250Y-3479375D01*
X1177150Y-3484631D01*
X1179243Y-3489812D01*
X1181521Y-3494912D01*
X1183985Y-3499926D01*
X1186629Y-3504849D01*
X1189451Y-3509670D01*
X1192448Y-3514384D01*
X1195616Y-3518987D01*
X1198951Y-3523472D01*
X1202446Y-3527831D01*
X1206096Y-3532060D01*
X1209901Y-3536152D01*
X1213850Y-3540102D01*
X1217942Y-3543907D01*
X1222171Y-3547557D01*
X1226530Y-3551052D01*
X1231016Y-3554387D01*
X1235618Y-3557554D01*
X1240332Y-3560551D01*
X1245153Y-3563373D01*
X1250076Y-3566017D01*
X1255090Y-3568481D01*
X1260190Y-3570759D01*
X1265372Y-3572852D01*
X1270627Y-3574752D01*
X1275946Y-3576459D01*
X1281325Y-3577970D01*
X1286756Y-3579284D01*
X1292230Y-3580399D01*
X1297741Y-3581313D01*
X1303284Y-3582027D01*
X1308846Y-3582535D01*
X1314427Y-3582842D01*
G37*
G36*
X6860649Y-3158695D02*
G01*
X6863768Y-3158644D01*
X6866879Y-3158388D01*
X6869965Y-3157923D01*
X6873016Y-3157258D01*
X6876016Y-3156391D01*
X6878949Y-3155330D01*
X6881809Y-3154078D01*
X6884578Y-3152637D01*
X6887245Y-3151017D01*
X6889800Y-3149224D01*
X6892234Y-3147265D01*
X6894530Y-3145152D01*
X6896681Y-3142891D01*
X6898678Y-3140494D01*
X6900514Y-3137966D01*
X6902178Y-3135327D01*
X6903664Y-3132581D01*
X6904964Y-3129744D01*
X6906074Y-3126826D01*
X6906988Y-3123841D01*
X6907705Y-3120804D01*
X6908220Y-3117725D01*
X6908528Y-3114619D01*
X6908632Y-3111500D01*
X6908528Y-3108380D01*
X6908220Y-3105274D01*
X6907705Y-3102195D01*
X6906988Y-3099158D01*
X6906074Y-3096173D01*
X6904964Y-3093255D01*
X6903664Y-3090418D01*
X6902178Y-3087672D01*
X6900514Y-3085033D01*
X6898678Y-3082505D01*
X6896681Y-3080108D01*
X6894530Y-3077847D01*
X6892234Y-3075734D01*
X6889800Y-3073775D01*
X6887245Y-3071982D01*
X6884578Y-3070362D01*
X6881809Y-3068921D01*
X6878949Y-3067669D01*
X6876016Y-3066608D01*
X6873016Y-3065741D01*
X6869965Y-3065076D01*
X6866879Y-3064611D01*
X6863768Y-3064355D01*
X6860649Y-3064304D01*
X6857530Y-3064456D01*
X6854431Y-3064817D01*
X6851360Y-3065383D01*
X6848335Y-3066148D01*
X6845366Y-3067113D01*
X6842467Y-3068271D01*
X6839651Y-3069620D01*
X6836930Y-3071152D01*
X6834319Y-3072858D01*
X6831825Y-3074733D01*
X6829458Y-3076770D01*
X6827232Y-3078960D01*
X6825157Y-3081291D01*
X6823240Y-3083755D01*
X6821490Y-3086338D01*
X6819915Y-3089033D01*
X6818520Y-3091827D01*
X6817314Y-3094705D01*
X6816300Y-3097656D01*
X6815485Y-3100669D01*
X6814868Y-3103730D01*
X6814456Y-3106823D01*
X6814251Y-3109940D01*
X6814251Y-3113059D01*
X6814456Y-3116176D01*
X6814868Y-3119269D01*
X6815485Y-3122330D01*
X6816300Y-3125343D01*
X6817314Y-3128294D01*
X6818520Y-3131172D01*
X6819915Y-3133966D01*
X6821490Y-3136661D01*
X6823240Y-3139244D01*
X6825157Y-3141708D01*
X6827232Y-3144039D01*
X6829458Y-3146229D01*
X6831825Y-3148266D01*
X6834319Y-3150141D01*
X6836930Y-3151847D01*
X6839651Y-3153379D01*
X6842467Y-3154728D01*
X6845366Y-3155886D01*
X6848335Y-3156851D01*
X6851360Y-3157616D01*
X6854431Y-3158182D01*
X6857530Y-3158543D01*
G37*
G36*
X6853969Y-2930095D02*
G01*
X6857088Y-2930044D01*
X6860199Y-2929788D01*
X6863285Y-2929323D01*
X6866336Y-2928658D01*
X6869336Y-2927791D01*
X6872269Y-2926730D01*
X6875129Y-2925478D01*
X6877898Y-2924037D01*
X6880565Y-2922417D01*
X6883120Y-2920624D01*
X6885553Y-2918665D01*
X6887850Y-2916552D01*
X6890001Y-2914291D01*
X6891997Y-2911894D01*
X6893834Y-2909366D01*
X6895498Y-2906727D01*
X6896983Y-2903981D01*
X6898284Y-2901144D01*
X6899394Y-2898226D01*
X6900308Y-2895241D01*
X6901025Y-2892204D01*
X6901540Y-2889125D01*
X6901848Y-2886019D01*
X6901952Y-2882900D01*
X6901848Y-2879780D01*
X6901540Y-2876674D01*
X6901025Y-2873595D01*
X6900308Y-2870558D01*
X6899394Y-2867573D01*
X6898284Y-2864655D01*
X6896983Y-2861818D01*
X6895498Y-2859072D01*
X6893834Y-2856433D01*
X6891997Y-2853905D01*
X6890001Y-2851508D01*
X6887850Y-2849247D01*
X6885553Y-2847134D01*
X6883120Y-2845175D01*
X6880565Y-2843382D01*
X6877898Y-2841762D01*
X6875129Y-2840321D01*
X6872269Y-2839069D01*
X6869336Y-2838008D01*
X6866336Y-2837141D01*
X6863285Y-2836476D01*
X6860199Y-2836011D01*
X6857088Y-2835755D01*
X6853969Y-2835704D01*
X6850849Y-2835856D01*
X6847751Y-2836217D01*
X6844680Y-2836783D01*
X6841655Y-2837548D01*
X6838685Y-2838513D01*
X6835787Y-2839671D01*
X6832970Y-2841020D01*
X6830250Y-2842552D01*
X6827639Y-2844258D01*
X6825145Y-2846133D01*
X6822777Y-2848170D01*
X6820552Y-2850360D01*
X6818477Y-2852691D01*
X6816559Y-2855155D01*
X6814809Y-2857738D01*
X6813235Y-2860433D01*
X6811840Y-2863227D01*
X6810634Y-2866105D01*
X6809620Y-2869056D01*
X6808805Y-2872069D01*
X6808188Y-2875130D01*
X6807776Y-2878223D01*
X6807570Y-2881340D01*
X6807570Y-2884459D01*
X6807776Y-2887576D01*
X6808188Y-2890669D01*
X6808805Y-2893730D01*
X6809620Y-2896743D01*
X6810634Y-2899694D01*
X6811840Y-2902572D01*
X6813235Y-2905366D01*
X6814809Y-2908061D01*
X6816559Y-2910644D01*
X6818477Y-2913108D01*
X6820552Y-2915439D01*
X6822777Y-2917629D01*
X6825145Y-2919666D01*
X6827639Y-2921541D01*
X6830250Y-2923247D01*
X6832970Y-2924779D01*
X6835787Y-2926128D01*
X6838685Y-2927286D01*
X6841655Y-2928251D01*
X6844680Y-2929016D01*
X6847751Y-2929582D01*
X6850849Y-2929943D01*
G37*
G36*
X4311911Y-2837385D02*
G01*
X4315945Y-2837334D01*
X4319968Y-2837078D01*
X4323974Y-2836616D01*
X4327951Y-2835948D01*
X4331891Y-2835079D01*
X4335777Y-2834012D01*
X4339607Y-2832745D01*
X4343366Y-2831287D01*
X4347047Y-2829636D01*
X4350636Y-2827802D01*
X4354128Y-2825785D01*
X4357514Y-2823593D01*
X4360783Y-2821231D01*
X4363928Y-2818704D01*
X4366938Y-2816021D01*
X4369808Y-2813189D01*
X4372528Y-2810212D01*
X4375094Y-2807101D01*
X4377499Y-2803862D01*
X4379732Y-2800507D01*
X4381794Y-2797040D01*
X4383674Y-2793474D01*
X4385370Y-2789814D01*
X4386879Y-2786075D01*
X4388192Y-2782262D01*
X4389313Y-2778386D01*
X4390229Y-2774459D01*
X4390948Y-2770492D01*
X4391461Y-2766491D01*
X4391769Y-2762470D01*
X4391873Y-2758439D01*
X4391769Y-2754409D01*
X4391461Y-2750388D01*
X4390948Y-2746387D01*
X4390229Y-2742420D01*
X4389313Y-2738493D01*
X4388192Y-2734617D01*
X4386879Y-2730804D01*
X4385370Y-2727065D01*
X4383674Y-2723405D01*
X4381794Y-2719839D01*
X4379732Y-2716372D01*
X4377499Y-2713017D01*
X4375094Y-2709778D01*
X4372528Y-2706667D01*
X4369808Y-2703690D01*
X4366938Y-2700858D01*
X4363928Y-2698175D01*
X4360783Y-2695648D01*
X4357514Y-2693286D01*
X4354128Y-2691094D01*
X4350636Y-2689077D01*
X4347047Y-2687243D01*
X4343366Y-2685592D01*
X4339607Y-2684134D01*
X4335777Y-2682867D01*
X4331891Y-2681800D01*
X4327951Y-2680931D01*
X4323974Y-2680263D01*
X4319968Y-2679801D01*
X4315945Y-2679545D01*
X4311911Y-2679494D01*
X4307883Y-2679646D01*
X4303864Y-2680007D01*
X4299872Y-2680571D01*
X4295912Y-2681340D01*
X4291998Y-2682308D01*
X4288139Y-2683476D01*
X4284342Y-2684838D01*
X4280623Y-2686395D01*
X4276986Y-2688137D01*
X4273443Y-2690063D01*
X4270004Y-2692168D01*
X4266676Y-2694447D01*
X4263468Y-2696890D01*
X4260390Y-2699496D01*
X4257448Y-2702255D01*
X4254652Y-2705160D01*
X4252008Y-2708206D01*
X4249521Y-2711381D01*
X4247202Y-2714680D01*
X4245053Y-2718092D01*
X4243082Y-2721610D01*
X4241291Y-2725224D01*
X4239691Y-2728925D01*
X4238279Y-2732704D01*
X4237062Y-2736547D01*
X4236044Y-2740449D01*
X4235223Y-2744398D01*
X4234609Y-2748384D01*
X4234197Y-2752397D01*
X4233992Y-2756423D01*
X4233992Y-2760456D01*
X4234197Y-2764482D01*
X4234609Y-2768495D01*
X4235223Y-2772481D01*
X4236044Y-2776430D01*
X4237062Y-2780332D01*
X4238279Y-2784175D01*
X4239691Y-2787954D01*
X4241291Y-2791655D01*
X4243082Y-2795270D01*
X4245053Y-2798787D01*
X4247202Y-2802199D01*
X4249521Y-2805498D01*
X4252008Y-2808673D01*
X4254652Y-2811719D01*
X4257448Y-2814624D01*
X4260390Y-2817383D01*
X4263468Y-2819989D01*
X4266676Y-2822432D01*
X4270004Y-2824711D01*
X4273443Y-2826816D01*
X4276986Y-2828742D01*
X4280623Y-2830484D01*
X4284342Y-2832041D01*
X4288139Y-2833403D01*
X4291998Y-2834571D01*
X4295912Y-2835539D01*
X4299872Y-2836308D01*
X4303864Y-2836872D01*
X4307883Y-2837233D01*
G37*
G36*
X6853969Y-2691335D02*
G01*
X6857088Y-2691284D01*
X6860199Y-2691028D01*
X6863285Y-2690563D01*
X6866336Y-2689898D01*
X6869336Y-2689031D01*
X6872269Y-2687970D01*
X6875129Y-2686718D01*
X6877898Y-2685277D01*
X6880565Y-2683657D01*
X6883120Y-2681864D01*
X6885553Y-2679905D01*
X6887850Y-2677792D01*
X6890001Y-2675531D01*
X6891997Y-2673134D01*
X6893834Y-2670606D01*
X6895498Y-2667967D01*
X6896983Y-2665221D01*
X6898284Y-2662384D01*
X6899394Y-2659466D01*
X6900308Y-2656481D01*
X6901025Y-2653444D01*
X6901540Y-2650365D01*
X6901848Y-2647259D01*
X6901952Y-2644139D01*
X6901848Y-2641020D01*
X6901540Y-2637914D01*
X6901025Y-2634835D01*
X6900308Y-2631798D01*
X6899394Y-2628813D01*
X6898284Y-2625895D01*
X6896983Y-2623057D01*
X6895498Y-2620312D01*
X6893834Y-2617673D01*
X6891997Y-2615145D01*
X6890001Y-2612748D01*
X6887850Y-2610487D01*
X6885553Y-2608374D01*
X6883120Y-2606415D01*
X6880565Y-2604622D01*
X6877898Y-2603002D01*
X6875129Y-2601561D01*
X6872269Y-2600309D01*
X6869336Y-2599248D01*
X6866336Y-2598381D01*
X6863285Y-2597716D01*
X6860199Y-2597251D01*
X6857088Y-2596995D01*
X6853969Y-2596944D01*
X6850849Y-2597096D01*
X6847751Y-2597457D01*
X6844680Y-2598023D01*
X6841655Y-2598788D01*
X6838685Y-2599753D01*
X6835787Y-2600911D01*
X6832970Y-2602260D01*
X6830250Y-2603792D01*
X6827639Y-2605498D01*
X6825145Y-2607373D01*
X6822777Y-2609410D01*
X6820552Y-2611600D01*
X6818477Y-2613931D01*
X6816559Y-2616395D01*
X6814809Y-2618978D01*
X6813235Y-2621673D01*
X6811840Y-2624467D01*
X6810634Y-2627345D01*
X6809620Y-2630296D01*
X6808805Y-2633309D01*
X6808188Y-2636370D01*
X6807776Y-2639463D01*
X6807570Y-2642580D01*
X6807570Y-2645699D01*
X6807776Y-2648816D01*
X6808188Y-2651909D01*
X6808805Y-2654970D01*
X6809620Y-2657982D01*
X6810634Y-2660934D01*
X6811840Y-2663812D01*
X6813235Y-2666606D01*
X6814809Y-2669301D01*
X6816559Y-2671884D01*
X6818477Y-2674348D01*
X6820552Y-2676679D01*
X6822777Y-2678869D01*
X6825145Y-2680906D01*
X6827639Y-2682781D01*
X6830250Y-2684487D01*
X6832970Y-2686019D01*
X6835787Y-2687368D01*
X6838685Y-2688526D01*
X6841655Y-2689491D01*
X6844680Y-2690256D01*
X6847751Y-2690822D01*
X6850849Y-2691183D01*
G37*
G36*
X10154140Y-2582115D02*
G01*
X10157259Y-2582064D01*
X10160370Y-2581808D01*
X10163456Y-2581343D01*
X10166507Y-2580678D01*
X10169507Y-2579811D01*
X10172440Y-2578750D01*
X10175300Y-2577498D01*
X10178069Y-2576057D01*
X10180736Y-2574437D01*
X10183291Y-2572644D01*
X10185725Y-2570685D01*
X10188021Y-2568572D01*
X10190172Y-2566311D01*
X10192169Y-2563914D01*
X10194005Y-2561386D01*
X10195669Y-2558747D01*
X10197155Y-2556002D01*
X10198455Y-2553164D01*
X10199565Y-2550246D01*
X10200479Y-2547261D01*
X10201196Y-2544224D01*
X10201711Y-2541145D01*
X10202019Y-2538039D01*
X10202123Y-2534920D01*
X10202019Y-2531800D01*
X10201711Y-2528694D01*
X10201196Y-2525615D01*
X10200479Y-2522578D01*
X10199565Y-2519593D01*
X10198455Y-2516675D01*
X10197155Y-2513837D01*
X10195669Y-2511092D01*
X10194005Y-2508453D01*
X10192169Y-2505925D01*
X10190172Y-2503528D01*
X10188021Y-2501267D01*
X10185725Y-2499154D01*
X10183291Y-2497195D01*
X10180736Y-2495402D01*
X10178069Y-2493782D01*
X10175300Y-2492341D01*
X10172440Y-2491089D01*
X10169507Y-2490028D01*
X10166507Y-2489161D01*
X10163456Y-2488496D01*
X10160370Y-2488031D01*
X10157259Y-2487775D01*
X10154140Y-2487724D01*
X10151021Y-2487876D01*
X10147922Y-2488237D01*
X10144851Y-2488803D01*
X10141826Y-2489568D01*
X10138857Y-2490533D01*
X10135958Y-2491691D01*
X10133142Y-2493040D01*
X10130421Y-2494572D01*
X10127810Y-2496278D01*
X10125316Y-2498153D01*
X10122949Y-2500190D01*
X10120723Y-2502380D01*
X10118648Y-2504711D01*
X10116731Y-2507175D01*
X10114981Y-2509758D01*
X10113406Y-2512453D01*
X10112011Y-2515247D01*
X10110805Y-2518125D01*
X10109791Y-2521077D01*
X10108976Y-2524089D01*
X10108359Y-2527150D01*
X10107947Y-2530243D01*
X10107742Y-2533360D01*
X10107742Y-2536479D01*
X10107947Y-2539596D01*
X10108359Y-2542689D01*
X10108976Y-2545750D01*
X10109791Y-2548762D01*
X10110805Y-2551714D01*
X10112011Y-2554592D01*
X10113406Y-2557386D01*
X10114981Y-2560081D01*
X10116731Y-2562664D01*
X10118648Y-2565128D01*
X10120723Y-2567459D01*
X10122949Y-2569649D01*
X10125316Y-2571686D01*
X10127810Y-2573561D01*
X10130421Y-2575267D01*
X10133142Y-2576799D01*
X10135958Y-2578148D01*
X10138857Y-2579306D01*
X10141826Y-2580271D01*
X10144851Y-2581036D01*
X10147922Y-2581602D01*
X10151021Y-2581963D01*
G37*
G36*
X10408140Y-2566875D02*
G01*
X10411259Y-2566824D01*
X10414370Y-2566568D01*
X10417456Y-2566103D01*
X10420507Y-2565438D01*
X10423507Y-2564571D01*
X10426440Y-2563510D01*
X10429300Y-2562258D01*
X10432069Y-2560817D01*
X10434736Y-2559197D01*
X10437291Y-2557404D01*
X10439725Y-2555445D01*
X10442021Y-2553332D01*
X10444172Y-2551071D01*
X10446169Y-2548674D01*
X10448005Y-2546146D01*
X10449669Y-2543507D01*
X10451155Y-2540762D01*
X10452455Y-2537924D01*
X10453565Y-2535006D01*
X10454479Y-2532021D01*
X10455196Y-2528984D01*
X10455711Y-2525905D01*
X10456019Y-2522799D01*
X10456123Y-2519679D01*
X10456019Y-2516560D01*
X10455711Y-2513454D01*
X10455196Y-2510375D01*
X10454479Y-2507338D01*
X10453565Y-2504353D01*
X10452455Y-2501435D01*
X10451155Y-2498597D01*
X10449669Y-2495852D01*
X10448005Y-2493213D01*
X10446169Y-2490685D01*
X10444172Y-2488288D01*
X10442021Y-2486027D01*
X10439725Y-2483914D01*
X10437291Y-2481955D01*
X10434736Y-2480162D01*
X10432069Y-2478542D01*
X10429300Y-2477101D01*
X10426440Y-2475849D01*
X10423507Y-2474788D01*
X10420507Y-2473921D01*
X10417456Y-2473256D01*
X10414370Y-2472791D01*
X10411259Y-2472535D01*
X10408140Y-2472484D01*
X10405021Y-2472636D01*
X10401922Y-2472997D01*
X10398851Y-2473563D01*
X10395826Y-2474328D01*
X10392857Y-2475293D01*
X10389958Y-2476451D01*
X10387142Y-2477800D01*
X10384421Y-2479332D01*
X10381810Y-2481038D01*
X10379316Y-2482913D01*
X10376949Y-2484950D01*
X10374723Y-2487140D01*
X10372648Y-2489471D01*
X10370731Y-2491935D01*
X10368981Y-2494518D01*
X10367406Y-2497213D01*
X10366011Y-2500007D01*
X10364805Y-2502885D01*
X10363791Y-2505837D01*
X10362976Y-2508849D01*
X10362359Y-2511910D01*
X10361947Y-2515003D01*
X10361742Y-2518120D01*
X10361742Y-2521239D01*
X10361947Y-2524356D01*
X10362359Y-2527449D01*
X10362976Y-2530510D01*
X10363791Y-2533522D01*
X10364805Y-2536474D01*
X10366011Y-2539352D01*
X10367406Y-2542146D01*
X10368981Y-2544841D01*
X10370731Y-2547424D01*
X10372648Y-2549888D01*
X10374723Y-2552219D01*
X10376949Y-2554409D01*
X10379316Y-2556446D01*
X10381810Y-2558321D01*
X10384421Y-2560027D01*
X10387142Y-2561559D01*
X10389958Y-2562908D01*
X10392857Y-2564066D01*
X10395826Y-2565031D01*
X10398851Y-2565796D01*
X10401922Y-2566362D01*
X10405021Y-2566723D01*
G37*
G36*
X7608831Y-2446225D02*
G01*
X7612865Y-2446174D01*
X7616888Y-2445918D01*
X7620894Y-2445456D01*
X7624871Y-2444788D01*
X7628811Y-2443919D01*
X7632697Y-2442852D01*
X7636527Y-2441585D01*
X7640286Y-2440127D01*
X7643967Y-2438476D01*
X7647556Y-2436642D01*
X7651048Y-2434625D01*
X7654434Y-2432433D01*
X7657703Y-2430071D01*
X7660848Y-2427544D01*
X7663858Y-2424861D01*
X7666728Y-2422029D01*
X7669448Y-2419052D01*
X7672014Y-2415941D01*
X7674419Y-2412702D01*
X7676652Y-2409347D01*
X7678714Y-2405880D01*
X7680594Y-2402314D01*
X7682290Y-2398654D01*
X7683799Y-2394915D01*
X7685112Y-2391102D01*
X7686233Y-2387226D01*
X7687149Y-2383299D01*
X7687868Y-2379332D01*
X7688381Y-2375331D01*
X7688689Y-2371310D01*
X7688793Y-2367279D01*
X7688689Y-2363249D01*
X7688381Y-2359228D01*
X7687868Y-2355227D01*
X7687149Y-2351260D01*
X7686233Y-2347333D01*
X7685112Y-2343457D01*
X7683799Y-2339644D01*
X7682290Y-2335905D01*
X7680594Y-2332245D01*
X7678714Y-2328679D01*
X7676652Y-2325212D01*
X7674419Y-2321857D01*
X7672014Y-2318618D01*
X7669448Y-2315507D01*
X7666728Y-2312530D01*
X7663858Y-2309698D01*
X7660848Y-2307015D01*
X7657703Y-2304488D01*
X7654434Y-2302126D01*
X7651048Y-2299934D01*
X7647556Y-2297917D01*
X7643967Y-2296083D01*
X7640286Y-2294432D01*
X7636527Y-2292974D01*
X7632697Y-2291707D01*
X7628811Y-2290640D01*
X7624871Y-2289771D01*
X7620894Y-2289103D01*
X7616888Y-2288641D01*
X7612865Y-2288385D01*
X7608831Y-2288334D01*
X7604803Y-2288486D01*
X7600784Y-2288847D01*
X7596792Y-2289411D01*
X7592832Y-2290180D01*
X7588918Y-2291148D01*
X7585059Y-2292316D01*
X7581262Y-2293678D01*
X7577543Y-2295235D01*
X7573906Y-2296977D01*
X7570363Y-2298903D01*
X7566924Y-2301008D01*
X7563596Y-2303287D01*
X7560388Y-2305730D01*
X7557310Y-2308336D01*
X7554368Y-2311095D01*
X7551572Y-2314000D01*
X7548928Y-2317046D01*
X7546441Y-2320221D01*
X7544122Y-2323520D01*
X7541973Y-2326932D01*
X7540002Y-2330450D01*
X7538211Y-2334064D01*
X7536611Y-2337765D01*
X7535199Y-2341544D01*
X7533982Y-2345387D01*
X7532964Y-2349289D01*
X7532143Y-2353238D01*
X7531529Y-2357224D01*
X7531117Y-2361237D01*
X7530912Y-2365263D01*
X7530912Y-2369296D01*
X7531117Y-2373322D01*
X7531529Y-2377335D01*
X7532143Y-2381321D01*
X7532964Y-2385270D01*
X7533982Y-2389172D01*
X7535199Y-2393015D01*
X7536611Y-2396794D01*
X7538211Y-2400495D01*
X7540002Y-2404110D01*
X7541973Y-2407627D01*
X7544122Y-2411039D01*
X7546441Y-2414338D01*
X7548928Y-2417513D01*
X7551572Y-2420559D01*
X7554368Y-2423464D01*
X7557310Y-2426223D01*
X7560388Y-2428829D01*
X7563596Y-2431272D01*
X7566924Y-2433551D01*
X7570363Y-2435656D01*
X7573906Y-2437582D01*
X7577543Y-2439324D01*
X7581262Y-2440881D01*
X7585059Y-2442243D01*
X7588918Y-2443411D01*
X7592832Y-2444379D01*
X7596792Y-2445148D01*
X7600784Y-2445712D01*
X7604803Y-2446073D01*
G37*
G36*
X8881600Y-2358595D02*
G01*
X8884719Y-2358544D01*
X8887830Y-2358288D01*
X8890916Y-2357823D01*
X8893967Y-2357158D01*
X8896967Y-2356291D01*
X8899900Y-2355230D01*
X8902760Y-2353978D01*
X8905529Y-2352537D01*
X8908196Y-2350917D01*
X8910751Y-2349124D01*
X8913185Y-2347165D01*
X8915481Y-2345052D01*
X8917632Y-2342791D01*
X8919629Y-2340394D01*
X8921465Y-2337866D01*
X8923129Y-2335227D01*
X8924615Y-2332481D01*
X8925915Y-2329644D01*
X8927025Y-2326726D01*
X8927939Y-2323741D01*
X8928656Y-2320704D01*
X8929171Y-2317625D01*
X8929479Y-2314519D01*
X8929583Y-2311400D01*
X8929479Y-2308280D01*
X8929171Y-2305174D01*
X8928656Y-2302095D01*
X8927939Y-2299058D01*
X8927025Y-2296073D01*
X8925915Y-2293155D01*
X8924615Y-2290318D01*
X8923129Y-2287572D01*
X8921465Y-2284933D01*
X8919629Y-2282405D01*
X8917632Y-2280008D01*
X8915481Y-2277747D01*
X8913185Y-2275634D01*
X8910751Y-2273675D01*
X8908196Y-2271882D01*
X8905529Y-2270262D01*
X8902760Y-2268821D01*
X8899900Y-2267569D01*
X8896967Y-2266508D01*
X8893967Y-2265641D01*
X8890916Y-2264976D01*
X8887830Y-2264511D01*
X8884719Y-2264255D01*
X8881600Y-2264204D01*
X8878481Y-2264356D01*
X8875382Y-2264717D01*
X8872311Y-2265283D01*
X8869286Y-2266048D01*
X8866317Y-2267013D01*
X8863418Y-2268171D01*
X8860602Y-2269520D01*
X8857881Y-2271052D01*
X8855270Y-2272758D01*
X8852776Y-2274633D01*
X8850409Y-2276670D01*
X8848183Y-2278860D01*
X8846108Y-2281191D01*
X8844191Y-2283655D01*
X8842441Y-2286238D01*
X8840866Y-2288933D01*
X8839471Y-2291727D01*
X8838265Y-2294605D01*
X8837251Y-2297556D01*
X8836436Y-2300569D01*
X8835819Y-2303630D01*
X8835407Y-2306723D01*
X8835202Y-2309840D01*
X8835202Y-2312959D01*
X8835407Y-2316076D01*
X8835819Y-2319169D01*
X8836436Y-2322230D01*
X8837251Y-2325243D01*
X8838265Y-2328194D01*
X8839471Y-2331072D01*
X8840866Y-2333866D01*
X8842441Y-2336561D01*
X8844191Y-2339144D01*
X8846108Y-2341608D01*
X8848183Y-2343939D01*
X8850409Y-2346129D01*
X8852776Y-2348166D01*
X8855270Y-2350041D01*
X8857881Y-2351747D01*
X8860602Y-2353279D01*
X8863418Y-2354628D01*
X8866317Y-2355786D01*
X8869286Y-2356751D01*
X8872311Y-2357516D01*
X8875382Y-2358082D01*
X8878481Y-2358443D01*
G37*
G36*
X11353020Y-2330655D02*
G01*
X11356139Y-2330604D01*
X11359250Y-2330348D01*
X11362336Y-2329883D01*
X11365387Y-2329218D01*
X11368387Y-2328351D01*
X11371320Y-2327290D01*
X11374180Y-2326038D01*
X11376949Y-2324597D01*
X11379616Y-2322977D01*
X11382171Y-2321184D01*
X11384605Y-2319225D01*
X11386901Y-2317112D01*
X11389052Y-2314851D01*
X11391049Y-2312454D01*
X11392885Y-2309926D01*
X11394549Y-2307287D01*
X11396035Y-2304542D01*
X11397335Y-2301704D01*
X11398445Y-2298786D01*
X11399359Y-2295801D01*
X11400076Y-2292764D01*
X11400591Y-2289685D01*
X11400899Y-2286579D01*
X11401003Y-2283460D01*
X11400899Y-2280340D01*
X11400591Y-2277234D01*
X11400076Y-2274155D01*
X11399359Y-2271118D01*
X11398445Y-2268133D01*
X11397335Y-2265215D01*
X11396035Y-2262378D01*
X11394549Y-2259632D01*
X11392885Y-2256993D01*
X11391049Y-2254465D01*
X11389052Y-2252068D01*
X11386901Y-2249807D01*
X11384605Y-2247694D01*
X11382171Y-2245735D01*
X11379616Y-2243942D01*
X11376949Y-2242322D01*
X11374180Y-2240881D01*
X11371320Y-2239629D01*
X11368387Y-2238568D01*
X11365387Y-2237701D01*
X11362336Y-2237036D01*
X11359250Y-2236571D01*
X11356139Y-2236315D01*
X11353020Y-2236264D01*
X11349901Y-2236416D01*
X11346802Y-2236777D01*
X11343731Y-2237343D01*
X11340706Y-2238108D01*
X11337737Y-2239073D01*
X11334838Y-2240231D01*
X11332022Y-2241580D01*
X11329301Y-2243112D01*
X11326690Y-2244818D01*
X11324196Y-2246693D01*
X11321829Y-2248730D01*
X11319603Y-2250920D01*
X11317528Y-2253251D01*
X11315611Y-2255715D01*
X11313861Y-2258298D01*
X11312286Y-2260993D01*
X11310891Y-2263787D01*
X11309685Y-2266665D01*
X11308671Y-2269617D01*
X11307856Y-2272629D01*
X11307239Y-2275690D01*
X11306827Y-2278783D01*
X11306622Y-2281900D01*
X11306622Y-2285019D01*
X11306827Y-2288136D01*
X11307239Y-2291229D01*
X11307856Y-2294290D01*
X11308671Y-2297303D01*
X11309685Y-2300254D01*
X11310891Y-2303132D01*
X11312286Y-2305926D01*
X11313861Y-2308621D01*
X11315611Y-2311204D01*
X11317528Y-2313668D01*
X11319603Y-2315999D01*
X11321829Y-2318189D01*
X11324196Y-2320226D01*
X11326690Y-2322101D01*
X11329301Y-2323807D01*
X11332022Y-2325339D01*
X11334838Y-2326688D01*
X11337737Y-2327846D01*
X11340706Y-2328811D01*
X11343731Y-2329576D01*
X11346802Y-2330142D01*
X11349901Y-2330503D01*
G37*
G36*
X10943851Y-2263345D02*
G01*
X10947885Y-2263294D01*
X10951908Y-2263038D01*
X10955914Y-2262576D01*
X10959891Y-2261908D01*
X10963831Y-2261039D01*
X10967717Y-2259972D01*
X10971547Y-2258705D01*
X10975306Y-2257247D01*
X10978987Y-2255596D01*
X10982576Y-2253762D01*
X10986068Y-2251745D01*
X10989454Y-2249553D01*
X10992723Y-2247191D01*
X10995868Y-2244664D01*
X10998878Y-2241981D01*
X11001748Y-2239149D01*
X11004468Y-2236172D01*
X11007034Y-2233061D01*
X11009439Y-2229822D01*
X11011672Y-2226467D01*
X11013734Y-2223000D01*
X11015614Y-2219434D01*
X11017310Y-2215774D01*
X11018819Y-2212035D01*
X11020132Y-2208222D01*
X11021253Y-2204346D01*
X11022169Y-2200419D01*
X11022888Y-2196452D01*
X11023401Y-2192451D01*
X11023709Y-2188430D01*
X11023813Y-2184400D01*
X11023709Y-2180369D01*
X11023401Y-2176348D01*
X11022888Y-2172347D01*
X11022169Y-2168380D01*
X11021253Y-2164453D01*
X11020132Y-2160577D01*
X11018819Y-2156764D01*
X11017310Y-2153025D01*
X11015614Y-2149365D01*
X11013734Y-2145799D01*
X11011672Y-2142332D01*
X11009439Y-2138977D01*
X11007034Y-2135738D01*
X11004468Y-2132627D01*
X11001748Y-2129650D01*
X10998878Y-2126818D01*
X10995868Y-2124135D01*
X10992723Y-2121608D01*
X10989454Y-2119246D01*
X10986068Y-2117054D01*
X10982576Y-2115037D01*
X10978987Y-2113203D01*
X10975306Y-2111552D01*
X10971547Y-2110094D01*
X10967717Y-2108827D01*
X10963831Y-2107760D01*
X10959891Y-2106891D01*
X10955914Y-2106223D01*
X10951908Y-2105761D01*
X10947885Y-2105505D01*
X10943851Y-2105454D01*
X10939823Y-2105606D01*
X10935804Y-2105967D01*
X10931812Y-2106531D01*
X10927852Y-2107300D01*
X10923938Y-2108268D01*
X10920079Y-2109436D01*
X10916282Y-2110798D01*
X10912563Y-2112355D01*
X10908926Y-2114097D01*
X10905383Y-2116023D01*
X10901944Y-2118128D01*
X10898616Y-2120407D01*
X10895408Y-2122850D01*
X10892330Y-2125456D01*
X10889388Y-2128215D01*
X10886592Y-2131120D01*
X10883948Y-2134166D01*
X10881461Y-2137341D01*
X10879142Y-2140640D01*
X10876993Y-2144052D01*
X10875022Y-2147570D01*
X10873231Y-2151184D01*
X10871631Y-2154885D01*
X10870219Y-2158664D01*
X10869002Y-2162507D01*
X10867984Y-2166409D01*
X10867163Y-2170358D01*
X10866549Y-2174344D01*
X10866137Y-2178357D01*
X10865932Y-2182383D01*
X10865932Y-2186416D01*
X10866137Y-2190442D01*
X10866549Y-2194455D01*
X10867163Y-2198441D01*
X10867984Y-2202390D01*
X10869002Y-2206292D01*
X10870219Y-2210135D01*
X10871631Y-2213914D01*
X10873231Y-2217615D01*
X10875022Y-2221229D01*
X10876993Y-2224747D01*
X10879142Y-2228159D01*
X10881461Y-2231458D01*
X10883948Y-2234633D01*
X10886592Y-2237679D01*
X10889388Y-2240584D01*
X10892330Y-2243343D01*
X10895408Y-2245949D01*
X10898616Y-2248392D01*
X10901944Y-2250671D01*
X10905383Y-2252776D01*
X10908926Y-2254702D01*
X10912563Y-2256444D01*
X10916282Y-2258001D01*
X10920079Y-2259363D01*
X10923938Y-2260531D01*
X10927852Y-2261499D01*
X10931812Y-2262268D01*
X10935804Y-2262832D01*
X10939823Y-2263193D01*
G37*
G36*
X9523991Y-2029665D02*
G01*
X9528025Y-2029614D01*
X9532048Y-2029358D01*
X9536054Y-2028896D01*
X9540031Y-2028228D01*
X9543971Y-2027359D01*
X9547857Y-2026292D01*
X9551687Y-2025025D01*
X9555446Y-2023567D01*
X9559127Y-2021916D01*
X9562716Y-2020082D01*
X9566208Y-2018065D01*
X9569594Y-2015873D01*
X9572863Y-2013511D01*
X9576008Y-2010984D01*
X9579018Y-2008301D01*
X9581888Y-2005469D01*
X9584608Y-2002492D01*
X9587174Y-1999381D01*
X9589579Y-1996142D01*
X9591812Y-1992787D01*
X9593874Y-1989320D01*
X9595754Y-1985754D01*
X9597450Y-1982094D01*
X9598959Y-1978355D01*
X9600272Y-1974542D01*
X9601393Y-1970666D01*
X9602309Y-1966739D01*
X9603028Y-1962772D01*
X9603541Y-1958771D01*
X9603849Y-1954750D01*
X9603953Y-1950720D01*
X9603849Y-1946689D01*
X9603541Y-1942668D01*
X9603028Y-1938667D01*
X9602309Y-1934700D01*
X9601393Y-1930773D01*
X9600272Y-1926897D01*
X9598959Y-1923084D01*
X9597450Y-1919345D01*
X9595754Y-1915685D01*
X9593874Y-1912119D01*
X9591812Y-1908652D01*
X9589579Y-1905297D01*
X9587174Y-1902058D01*
X9584608Y-1898947D01*
X9581888Y-1895970D01*
X9579018Y-1893138D01*
X9576008Y-1890455D01*
X9572863Y-1887928D01*
X9569594Y-1885566D01*
X9566208Y-1883374D01*
X9562716Y-1881357D01*
X9559127Y-1879523D01*
X9555446Y-1877872D01*
X9551687Y-1876414D01*
X9547857Y-1875147D01*
X9543971Y-1874080D01*
X9540031Y-1873211D01*
X9536054Y-1872543D01*
X9532048Y-1872081D01*
X9528025Y-1871825D01*
X9523991Y-1871774D01*
X9519963Y-1871926D01*
X9515944Y-1872287D01*
X9511952Y-1872851D01*
X9507992Y-1873620D01*
X9504078Y-1874588D01*
X9500219Y-1875756D01*
X9496422Y-1877118D01*
X9492703Y-1878675D01*
X9489066Y-1880417D01*
X9485523Y-1882343D01*
X9482084Y-1884448D01*
X9478756Y-1886727D01*
X9475548Y-1889170D01*
X9472470Y-1891776D01*
X9469528Y-1894535D01*
X9466732Y-1897440D01*
X9464088Y-1900486D01*
X9461601Y-1903661D01*
X9459282Y-1906960D01*
X9457133Y-1910372D01*
X9455162Y-1913889D01*
X9453372Y-1917504D01*
X9451771Y-1921205D01*
X9450359Y-1924984D01*
X9449142Y-1928827D01*
X9448124Y-1932729D01*
X9447303Y-1936678D01*
X9446689Y-1940664D01*
X9446277Y-1944677D01*
X9446072Y-1948703D01*
X9446072Y-1952736D01*
X9446277Y-1956762D01*
X9446689Y-1960775D01*
X9447303Y-1964761D01*
X9448124Y-1968710D01*
X9449142Y-1972612D01*
X9450359Y-1976455D01*
X9451771Y-1980234D01*
X9453372Y-1983935D01*
X9455162Y-1987550D01*
X9457133Y-1991067D01*
X9459282Y-1994479D01*
X9461601Y-1997778D01*
X9464088Y-2000953D01*
X9466732Y-2003999D01*
X9469528Y-2006904D01*
X9472470Y-2009663D01*
X9475548Y-2012269D01*
X9478756Y-2014712D01*
X9482084Y-2016991D01*
X9485523Y-2019096D01*
X9489066Y-2021022D01*
X9492703Y-2022764D01*
X9496422Y-2024321D01*
X9500219Y-2025683D01*
X9504078Y-2026851D01*
X9507992Y-2027819D01*
X9511952Y-2028588D01*
X9515944Y-2029152D01*
X9519963Y-2029513D01*
G37*
G36*
X10938771Y-1976325D02*
G01*
X10942805Y-1976274D01*
X10946828Y-1976018D01*
X10950834Y-1975556D01*
X10954811Y-1974888D01*
X10958751Y-1974019D01*
X10962637Y-1972952D01*
X10966467Y-1971685D01*
X10970226Y-1970227D01*
X10973907Y-1968576D01*
X10977496Y-1966742D01*
X10980988Y-1964725D01*
X10984374Y-1962533D01*
X10987643Y-1960171D01*
X10990788Y-1957644D01*
X10993798Y-1954961D01*
X10996668Y-1952129D01*
X10999388Y-1949152D01*
X11001954Y-1946041D01*
X11004359Y-1942802D01*
X11006592Y-1939447D01*
X11008654Y-1935980D01*
X11010534Y-1932414D01*
X11012230Y-1928754D01*
X11013739Y-1925015D01*
X11015052Y-1921202D01*
X11016173Y-1917326D01*
X11017089Y-1913399D01*
X11017808Y-1909432D01*
X11018321Y-1905431D01*
X11018629Y-1901410D01*
X11018733Y-1897379D01*
X11018629Y-1893349D01*
X11018321Y-1889328D01*
X11017808Y-1885327D01*
X11017089Y-1881360D01*
X11016173Y-1877433D01*
X11015052Y-1873557D01*
X11013739Y-1869744D01*
X11012230Y-1866005D01*
X11010534Y-1862345D01*
X11008654Y-1858779D01*
X11006592Y-1855312D01*
X11004359Y-1851957D01*
X11001954Y-1848718D01*
X10999388Y-1845607D01*
X10996668Y-1842630D01*
X10993798Y-1839798D01*
X10990788Y-1837115D01*
X10987643Y-1834588D01*
X10984374Y-1832226D01*
X10980988Y-1830034D01*
X10977496Y-1828017D01*
X10973907Y-1826183D01*
X10970226Y-1824532D01*
X10966467Y-1823074D01*
X10962637Y-1821807D01*
X10958751Y-1820740D01*
X10954811Y-1819871D01*
X10950834Y-1819203D01*
X10946828Y-1818741D01*
X10942805Y-1818485D01*
X10938771Y-1818434D01*
X10934743Y-1818586D01*
X10930724Y-1818947D01*
X10926732Y-1819511D01*
X10922772Y-1820280D01*
X10918858Y-1821248D01*
X10914999Y-1822416D01*
X10911202Y-1823778D01*
X10907483Y-1825335D01*
X10903846Y-1827077D01*
X10900303Y-1829003D01*
X10896864Y-1831108D01*
X10893536Y-1833387D01*
X10890328Y-1835830D01*
X10887250Y-1838436D01*
X10884308Y-1841195D01*
X10881512Y-1844100D01*
X10878868Y-1847146D01*
X10876381Y-1850321D01*
X10874062Y-1853620D01*
X10871913Y-1857032D01*
X10869942Y-1860550D01*
X10868152Y-1864164D01*
X10866551Y-1867865D01*
X10865139Y-1871644D01*
X10863922Y-1875487D01*
X10862904Y-1879389D01*
X10862083Y-1883338D01*
X10861469Y-1887324D01*
X10861057Y-1891337D01*
X10860852Y-1895363D01*
X10860852Y-1899396D01*
X10861057Y-1903422D01*
X10861469Y-1907435D01*
X10862083Y-1911421D01*
X10862904Y-1915370D01*
X10863922Y-1919272D01*
X10865139Y-1923115D01*
X10866551Y-1926894D01*
X10868152Y-1930595D01*
X10869942Y-1934210D01*
X10871913Y-1937727D01*
X10874062Y-1941139D01*
X10876381Y-1944438D01*
X10878868Y-1947613D01*
X10881512Y-1950659D01*
X10884308Y-1953564D01*
X10887250Y-1956323D01*
X10890328Y-1958929D01*
X10893536Y-1961372D01*
X10896864Y-1963651D01*
X10900303Y-1965756D01*
X10903846Y-1967682D01*
X10907483Y-1969424D01*
X10911202Y-1970981D01*
X10914999Y-1972343D01*
X10918858Y-1973511D01*
X10922772Y-1974479D01*
X10926732Y-1975248D01*
X10930724Y-1975812D01*
X10934743Y-1976173D01*
G37*
G36*
X745980Y-1825195D02*
G01*
X749099Y-1825144D01*
X752210Y-1824888D01*
X755296Y-1824423D01*
X758347Y-1823758D01*
X761347Y-1822891D01*
X764280Y-1821830D01*
X767140Y-1820578D01*
X769909Y-1819137D01*
X772576Y-1817517D01*
X775131Y-1815724D01*
X777565Y-1813765D01*
X779861Y-1811652D01*
X782012Y-1809391D01*
X784009Y-1806994D01*
X785845Y-1804466D01*
X787509Y-1801827D01*
X788995Y-1799081D01*
X790295Y-1796244D01*
X791405Y-1793326D01*
X792319Y-1790341D01*
X793036Y-1787304D01*
X793551Y-1784225D01*
X793859Y-1781119D01*
X793963Y-1778000D01*
X793859Y-1774880D01*
X793551Y-1771774D01*
X793036Y-1768695D01*
X792319Y-1765658D01*
X791405Y-1762673D01*
X790295Y-1759755D01*
X788995Y-1756918D01*
X787509Y-1754172D01*
X785845Y-1751533D01*
X784009Y-1749005D01*
X782012Y-1746608D01*
X779861Y-1744347D01*
X777565Y-1742234D01*
X775131Y-1740275D01*
X772576Y-1738482D01*
X769909Y-1736862D01*
X767140Y-1735421D01*
X764280Y-1734169D01*
X761347Y-1733108D01*
X758347Y-1732241D01*
X755296Y-1731576D01*
X752210Y-1731111D01*
X749099Y-1730855D01*
X745980Y-1730804D01*
X742861Y-1730956D01*
X739762Y-1731317D01*
X736691Y-1731883D01*
X733666Y-1732648D01*
X730697Y-1733613D01*
X727798Y-1734771D01*
X724982Y-1736120D01*
X722261Y-1737652D01*
X719650Y-1739358D01*
X717156Y-1741233D01*
X714789Y-1743270D01*
X712563Y-1745460D01*
X710488Y-1747791D01*
X708571Y-1750255D01*
X706821Y-1752838D01*
X705246Y-1755533D01*
X703851Y-1758327D01*
X702645Y-1761205D01*
X701631Y-1764156D01*
X700816Y-1767169D01*
X700199Y-1770230D01*
X699787Y-1773323D01*
X699582Y-1776440D01*
X699582Y-1779559D01*
X699787Y-1782676D01*
X700199Y-1785769D01*
X700816Y-1788830D01*
X701631Y-1791843D01*
X702645Y-1794794D01*
X703851Y-1797672D01*
X705246Y-1800466D01*
X706821Y-1803161D01*
X708571Y-1805744D01*
X710488Y-1808208D01*
X712563Y-1810539D01*
X714789Y-1812729D01*
X717156Y-1814766D01*
X719650Y-1816641D01*
X722261Y-1818347D01*
X724982Y-1819879D01*
X727798Y-1821228D01*
X730697Y-1822386D01*
X733666Y-1823351D01*
X736691Y-1824116D01*
X739762Y-1824682D01*
X742861Y-1825043D01*
G37*
G36*
X751060Y-1563575D02*
G01*
X754179Y-1563524D01*
X757290Y-1563268D01*
X760376Y-1562803D01*
X763427Y-1562138D01*
X766427Y-1561271D01*
X769360Y-1560210D01*
X772220Y-1558958D01*
X774989Y-1557517D01*
X777656Y-1555897D01*
X780211Y-1554104D01*
X782645Y-1552145D01*
X784941Y-1550032D01*
X787092Y-1547771D01*
X789089Y-1545374D01*
X790925Y-1542846D01*
X792589Y-1540207D01*
X794075Y-1537462D01*
X795375Y-1534624D01*
X796485Y-1531706D01*
X797399Y-1528721D01*
X798116Y-1525684D01*
X798631Y-1522605D01*
X798939Y-1519499D01*
X799043Y-1516379D01*
X798939Y-1513260D01*
X798631Y-1510154D01*
X798116Y-1507075D01*
X797399Y-1504038D01*
X796485Y-1501053D01*
X795375Y-1498135D01*
X794075Y-1495297D01*
X792589Y-1492552D01*
X790925Y-1489913D01*
X789089Y-1487385D01*
X787092Y-1484988D01*
X784941Y-1482727D01*
X782645Y-1480614D01*
X780211Y-1478655D01*
X777656Y-1476862D01*
X774989Y-1475242D01*
X772220Y-1473801D01*
X769360Y-1472549D01*
X766427Y-1471488D01*
X763427Y-1470621D01*
X760376Y-1469956D01*
X757290Y-1469491D01*
X754179Y-1469235D01*
X751060Y-1469184D01*
X747941Y-1469336D01*
X744842Y-1469697D01*
X741771Y-1470263D01*
X738746Y-1471028D01*
X735777Y-1471993D01*
X732878Y-1473151D01*
X730062Y-1474500D01*
X727341Y-1476032D01*
X724730Y-1477738D01*
X722236Y-1479613D01*
X719869Y-1481650D01*
X717643Y-1483840D01*
X715568Y-1486171D01*
X713651Y-1488635D01*
X711901Y-1491218D01*
X710326Y-1493913D01*
X708931Y-1496707D01*
X707725Y-1499585D01*
X706711Y-1502537D01*
X705896Y-1505549D01*
X705279Y-1508610D01*
X704867Y-1511703D01*
X704662Y-1514820D01*
X704662Y-1517939D01*
X704867Y-1521056D01*
X705279Y-1524149D01*
X705896Y-1527210D01*
X706711Y-1530222D01*
X707725Y-1533174D01*
X708931Y-1536052D01*
X710326Y-1538846D01*
X711901Y-1541541D01*
X713651Y-1544124D01*
X715568Y-1546588D01*
X717643Y-1548919D01*
X719869Y-1551109D01*
X722236Y-1553146D01*
X724730Y-1555021D01*
X727341Y-1556727D01*
X730062Y-1558259D01*
X732878Y-1559608D01*
X735777Y-1560766D01*
X738746Y-1561731D01*
X741771Y-1562496D01*
X744842Y-1563062D01*
X747941Y-1563423D01*
G37*
G36*
X10212560Y-1540715D02*
G01*
X10215679Y-1540664D01*
X10218790Y-1540408D01*
X10221876Y-1539943D01*
X10224927Y-1539278D01*
X10227927Y-1538411D01*
X10230860Y-1537350D01*
X10233720Y-1536098D01*
X10236489Y-1534657D01*
X10239156Y-1533037D01*
X10241711Y-1531244D01*
X10244145Y-1529285D01*
X10246441Y-1527172D01*
X10248592Y-1524911D01*
X10250589Y-1522514D01*
X10252425Y-1519986D01*
X10254089Y-1517347D01*
X10255575Y-1514602D01*
X10256875Y-1511764D01*
X10257985Y-1508846D01*
X10258899Y-1505861D01*
X10259616Y-1502824D01*
X10260131Y-1499745D01*
X10260439Y-1496639D01*
X10260543Y-1493520D01*
X10260439Y-1490400D01*
X10260131Y-1487294D01*
X10259616Y-1484215D01*
X10258899Y-1481178D01*
X10257985Y-1478193D01*
X10256875Y-1475275D01*
X10255575Y-1472437D01*
X10254089Y-1469692D01*
X10252425Y-1467053D01*
X10250589Y-1464525D01*
X10248592Y-1462128D01*
X10246441Y-1459867D01*
X10244145Y-1457754D01*
X10241711Y-1455795D01*
X10239156Y-1454002D01*
X10236489Y-1452382D01*
X10233720Y-1450941D01*
X10230860Y-1449689D01*
X10227927Y-1448628D01*
X10224927Y-1447761D01*
X10221876Y-1447096D01*
X10218790Y-1446631D01*
X10215679Y-1446375D01*
X10212560Y-1446324D01*
X10209441Y-1446476D01*
X10206342Y-1446837D01*
X10203271Y-1447403D01*
X10200246Y-1448168D01*
X10197277Y-1449133D01*
X10194378Y-1450291D01*
X10191562Y-1451640D01*
X10188841Y-1453172D01*
X10186230Y-1454878D01*
X10183736Y-1456753D01*
X10181369Y-1458790D01*
X10179143Y-1460980D01*
X10177068Y-1463311D01*
X10175151Y-1465775D01*
X10173401Y-1468358D01*
X10171826Y-1471053D01*
X10170431Y-1473847D01*
X10169225Y-1476725D01*
X10168211Y-1479677D01*
X10167396Y-1482689D01*
X10166779Y-1485750D01*
X10166367Y-1488843D01*
X10166162Y-1491960D01*
X10166162Y-1495079D01*
X10166367Y-1498196D01*
X10166779Y-1501289D01*
X10167396Y-1504350D01*
X10168211Y-1507362D01*
X10169225Y-1510314D01*
X10170431Y-1513192D01*
X10171826Y-1515986D01*
X10173401Y-1518681D01*
X10175151Y-1521264D01*
X10177068Y-1523728D01*
X10179143Y-1526059D01*
X10181369Y-1528249D01*
X10183736Y-1530286D01*
X10186230Y-1532161D01*
X10188841Y-1533867D01*
X10191562Y-1535399D01*
X10194378Y-1536748D01*
X10197277Y-1537906D01*
X10200246Y-1538871D01*
X10203271Y-1539636D01*
X10206342Y-1540202D01*
X10209441Y-1540563D01*
G37*
G36*
X11144740Y-1413715D02*
G01*
X11147859Y-1413664D01*
X11150970Y-1413408D01*
X11154056Y-1412943D01*
X11157107Y-1412278D01*
X11160107Y-1411411D01*
X11163040Y-1410350D01*
X11165900Y-1409098D01*
X11168669Y-1407657D01*
X11171336Y-1406037D01*
X11173891Y-1404244D01*
X11176325Y-1402285D01*
X11178621Y-1400172D01*
X11180772Y-1397911D01*
X11182769Y-1395514D01*
X11184605Y-1392986D01*
X11186269Y-1390347D01*
X11187755Y-1387602D01*
X11189055Y-1384764D01*
X11190165Y-1381846D01*
X11191079Y-1378861D01*
X11191796Y-1375824D01*
X11192311Y-1372745D01*
X11192619Y-1369639D01*
X11192723Y-1366520D01*
X11192619Y-1363400D01*
X11192311Y-1360294D01*
X11191796Y-1357215D01*
X11191079Y-1354178D01*
X11190165Y-1351193D01*
X11189055Y-1348275D01*
X11187755Y-1345437D01*
X11186269Y-1342692D01*
X11184605Y-1340053D01*
X11182769Y-1337525D01*
X11180772Y-1335128D01*
X11178621Y-1332867D01*
X11176325Y-1330754D01*
X11173891Y-1328795D01*
X11171336Y-1327002D01*
X11168669Y-1325382D01*
X11165900Y-1323941D01*
X11163040Y-1322689D01*
X11160107Y-1321628D01*
X11157107Y-1320761D01*
X11154056Y-1320096D01*
X11150970Y-1319631D01*
X11147859Y-1319375D01*
X11144740Y-1319324D01*
X11141621Y-1319476D01*
X11138522Y-1319837D01*
X11135451Y-1320403D01*
X11132426Y-1321168D01*
X11129457Y-1322133D01*
X11126558Y-1323291D01*
X11123742Y-1324640D01*
X11121021Y-1326172D01*
X11118410Y-1327878D01*
X11115916Y-1329753D01*
X11113549Y-1331790D01*
X11111323Y-1333980D01*
X11109248Y-1336311D01*
X11107331Y-1338775D01*
X11105581Y-1341358D01*
X11104006Y-1344053D01*
X11102611Y-1346847D01*
X11101405Y-1349725D01*
X11100391Y-1352677D01*
X11099576Y-1355689D01*
X11098959Y-1358750D01*
X11098547Y-1361843D01*
X11098342Y-1364960D01*
X11098342Y-1368079D01*
X11098547Y-1371196D01*
X11098959Y-1374289D01*
X11099576Y-1377350D01*
X11100391Y-1380362D01*
X11101405Y-1383314D01*
X11102611Y-1386192D01*
X11104006Y-1388986D01*
X11105581Y-1391681D01*
X11107331Y-1394264D01*
X11109248Y-1396728D01*
X11111323Y-1399059D01*
X11113549Y-1401249D01*
X11115916Y-1403286D01*
X11118410Y-1405161D01*
X11121021Y-1406867D01*
X11123742Y-1408399D01*
X11126558Y-1409748D01*
X11129457Y-1410906D01*
X11132426Y-1411871D01*
X11135451Y-1412636D01*
X11138522Y-1413202D01*
X11141621Y-1413563D01*
G37*
G36*
X740900Y-1312115D02*
G01*
X744019Y-1312064D01*
X747130Y-1311808D01*
X750216Y-1311343D01*
X753267Y-1310678D01*
X756267Y-1309811D01*
X759200Y-1308750D01*
X762060Y-1307498D01*
X764829Y-1306057D01*
X767496Y-1304437D01*
X770051Y-1302644D01*
X772485Y-1300685D01*
X774781Y-1298572D01*
X776932Y-1296311D01*
X778929Y-1293914D01*
X780765Y-1291386D01*
X782429Y-1288747D01*
X783915Y-1286002D01*
X785215Y-1283164D01*
X786325Y-1280246D01*
X787239Y-1277261D01*
X787956Y-1274224D01*
X788471Y-1271145D01*
X788779Y-1268039D01*
X788883Y-1264920D01*
X788779Y-1261800D01*
X788471Y-1258694D01*
X787956Y-1255615D01*
X787239Y-1252578D01*
X786325Y-1249593D01*
X785215Y-1246675D01*
X783915Y-1243837D01*
X782429Y-1241092D01*
X780765Y-1238453D01*
X778929Y-1235925D01*
X776932Y-1233528D01*
X774781Y-1231267D01*
X772485Y-1229154D01*
X770051Y-1227195D01*
X767496Y-1225402D01*
X764829Y-1223782D01*
X762060Y-1222341D01*
X759200Y-1221089D01*
X756267Y-1220028D01*
X753267Y-1219161D01*
X750216Y-1218496D01*
X747130Y-1218031D01*
X744019Y-1217775D01*
X740900Y-1217724D01*
X737781Y-1217876D01*
X734682Y-1218237D01*
X731611Y-1218803D01*
X728586Y-1219568D01*
X725617Y-1220533D01*
X722718Y-1221691D01*
X719902Y-1223040D01*
X717181Y-1224572D01*
X714570Y-1226278D01*
X712076Y-1228153D01*
X709709Y-1230190D01*
X707483Y-1232380D01*
X705408Y-1234711D01*
X703491Y-1237175D01*
X701741Y-1239758D01*
X700166Y-1242453D01*
X698771Y-1245247D01*
X697565Y-1248125D01*
X696551Y-1251077D01*
X695736Y-1254089D01*
X695119Y-1257150D01*
X694707Y-1260243D01*
X694502Y-1263360D01*
X694502Y-1266479D01*
X694707Y-1269596D01*
X695119Y-1272689D01*
X695736Y-1275750D01*
X696551Y-1278762D01*
X697565Y-1281714D01*
X698771Y-1284592D01*
X700166Y-1287386D01*
X701741Y-1290081D01*
X703491Y-1292664D01*
X705408Y-1295128D01*
X707483Y-1297459D01*
X709709Y-1299649D01*
X712076Y-1301686D01*
X714570Y-1303561D01*
X717181Y-1305267D01*
X719902Y-1306799D01*
X722718Y-1308148D01*
X725617Y-1309306D01*
X728586Y-1310271D01*
X731611Y-1311036D01*
X734682Y-1311602D01*
X737781Y-1311963D01*
G37*
G36*
X11149591Y-1191465D02*
G01*
X11153625Y-1191414D01*
X11157648Y-1191158D01*
X11161654Y-1190696D01*
X11165631Y-1190028D01*
X11169571Y-1189159D01*
X11173457Y-1188092D01*
X11177287Y-1186825D01*
X11181046Y-1185367D01*
X11184727Y-1183716D01*
X11188316Y-1181882D01*
X11191808Y-1179865D01*
X11195194Y-1177673D01*
X11198463Y-1175311D01*
X11201608Y-1172784D01*
X11204618Y-1170101D01*
X11207488Y-1167269D01*
X11210208Y-1164292D01*
X11212774Y-1161181D01*
X11215179Y-1157942D01*
X11217412Y-1154587D01*
X11219474Y-1151120D01*
X11221354Y-1147554D01*
X11223050Y-1143894D01*
X11224559Y-1140155D01*
X11225872Y-1136342D01*
X11226993Y-1132466D01*
X11227909Y-1128539D01*
X11228628Y-1124572D01*
X11229141Y-1120571D01*
X11229449Y-1116550D01*
X11229553Y-1112520D01*
X11229449Y-1108489D01*
X11229141Y-1104468D01*
X11228628Y-1100467D01*
X11227909Y-1096500D01*
X11226993Y-1092573D01*
X11225872Y-1088697D01*
X11224559Y-1084884D01*
X11223050Y-1081145D01*
X11221354Y-1077485D01*
X11219474Y-1073919D01*
X11217412Y-1070452D01*
X11215179Y-1067097D01*
X11212774Y-1063858D01*
X11210208Y-1060747D01*
X11207488Y-1057770D01*
X11204618Y-1054938D01*
X11201608Y-1052255D01*
X11198463Y-1049728D01*
X11195194Y-1047366D01*
X11191808Y-1045174D01*
X11188316Y-1043157D01*
X11184727Y-1041323D01*
X11181046Y-1039672D01*
X11177287Y-1038214D01*
X11173457Y-1036947D01*
X11169571Y-1035880D01*
X11165631Y-1035011D01*
X11161654Y-1034343D01*
X11157648Y-1033881D01*
X11153625Y-1033625D01*
X11149591Y-1033574D01*
X11145563Y-1033726D01*
X11141544Y-1034087D01*
X11137552Y-1034651D01*
X11133592Y-1035420D01*
X11129678Y-1036388D01*
X11125819Y-1037556D01*
X11122022Y-1038918D01*
X11118303Y-1040475D01*
X11114666Y-1042217D01*
X11111123Y-1044143D01*
X11107684Y-1046248D01*
X11104356Y-1048527D01*
X11101148Y-1050970D01*
X11098070Y-1053576D01*
X11095128Y-1056335D01*
X11092332Y-1059240D01*
X11089688Y-1062286D01*
X11087201Y-1065461D01*
X11084882Y-1068760D01*
X11082733Y-1072172D01*
X11080762Y-1075689D01*
X11078972Y-1079304D01*
X11077371Y-1083005D01*
X11075959Y-1086784D01*
X11074742Y-1090627D01*
X11073724Y-1094529D01*
X11072903Y-1098478D01*
X11072289Y-1102464D01*
X11071877Y-1106477D01*
X11071672Y-1110503D01*
X11071672Y-1114536D01*
X11071877Y-1118562D01*
X11072289Y-1122575D01*
X11072903Y-1126561D01*
X11073724Y-1130510D01*
X11074742Y-1134412D01*
X11075959Y-1138255D01*
X11077371Y-1142034D01*
X11078972Y-1145735D01*
X11080762Y-1149350D01*
X11082733Y-1152867D01*
X11084882Y-1156279D01*
X11087201Y-1159578D01*
X11089688Y-1162753D01*
X11092332Y-1165799D01*
X11095128Y-1168704D01*
X11098070Y-1171463D01*
X11101148Y-1174069D01*
X11104356Y-1176512D01*
X11107684Y-1178791D01*
X11111123Y-1180896D01*
X11114666Y-1182822D01*
X11118303Y-1184564D01*
X11122022Y-1186121D01*
X11125819Y-1187483D01*
X11129678Y-1188651D01*
X11133592Y-1189619D01*
X11137552Y-1190388D01*
X11141544Y-1190952D01*
X11145563Y-1191313D01*
G37*
G36*
X7387851Y-858725D02*
G01*
X7391885Y-858674D01*
X7395908Y-858418D01*
X7399914Y-857956D01*
X7403891Y-857288D01*
X7407831Y-856419D01*
X7411717Y-855352D01*
X7415547Y-854085D01*
X7419306Y-852627D01*
X7422987Y-850976D01*
X7426576Y-849142D01*
X7430068Y-847125D01*
X7433454Y-844933D01*
X7436723Y-842571D01*
X7439868Y-840044D01*
X7442878Y-837361D01*
X7445748Y-834529D01*
X7448468Y-831552D01*
X7451034Y-828441D01*
X7453439Y-825202D01*
X7455672Y-821847D01*
X7457734Y-818380D01*
X7459614Y-814814D01*
X7461310Y-811154D01*
X7462819Y-807415D01*
X7464132Y-803602D01*
X7465253Y-799726D01*
X7466169Y-795799D01*
X7466888Y-791832D01*
X7467401Y-787831D01*
X7467709Y-783810D01*
X7467813Y-779779D01*
X7467709Y-775749D01*
X7467401Y-771728D01*
X7466888Y-767727D01*
X7466169Y-763760D01*
X7465253Y-759833D01*
X7464132Y-755957D01*
X7462819Y-752144D01*
X7461310Y-748405D01*
X7459614Y-744745D01*
X7457734Y-741179D01*
X7455672Y-737712D01*
X7453439Y-734357D01*
X7451034Y-731118D01*
X7448468Y-728007D01*
X7445748Y-725030D01*
X7442878Y-722198D01*
X7439868Y-719515D01*
X7436723Y-716988D01*
X7433454Y-714626D01*
X7430068Y-712434D01*
X7426576Y-710417D01*
X7422987Y-708583D01*
X7419306Y-706932D01*
X7415547Y-705474D01*
X7411717Y-704207D01*
X7407831Y-703140D01*
X7403891Y-702271D01*
X7399914Y-701603D01*
X7395908Y-701141D01*
X7391885Y-700885D01*
X7387851Y-700834D01*
X7383823Y-700986D01*
X7379804Y-701347D01*
X7375812Y-701911D01*
X7371852Y-702680D01*
X7367938Y-703648D01*
X7364079Y-704816D01*
X7360282Y-706178D01*
X7356563Y-707735D01*
X7352926Y-709477D01*
X7349383Y-711403D01*
X7345944Y-713508D01*
X7342616Y-715787D01*
X7339408Y-718230D01*
X7336330Y-720836D01*
X7333388Y-723595D01*
X7330592Y-726500D01*
X7327948Y-729546D01*
X7325461Y-732721D01*
X7323142Y-736020D01*
X7320993Y-739432D01*
X7319022Y-742950D01*
X7317231Y-746564D01*
X7315631Y-750265D01*
X7314219Y-754044D01*
X7313002Y-757887D01*
X7311984Y-761789D01*
X7311163Y-765738D01*
X7310549Y-769724D01*
X7310137Y-773737D01*
X7309932Y-777763D01*
X7309932Y-781796D01*
X7310137Y-785822D01*
X7310549Y-789835D01*
X7311163Y-793821D01*
X7311984Y-797770D01*
X7313002Y-801672D01*
X7314219Y-805515D01*
X7315631Y-809294D01*
X7317231Y-812995D01*
X7319022Y-816610D01*
X7320993Y-820127D01*
X7323142Y-823539D01*
X7325461Y-826838D01*
X7327948Y-830013D01*
X7330592Y-833059D01*
X7333388Y-835964D01*
X7336330Y-838723D01*
X7339408Y-841329D01*
X7342616Y-843772D01*
X7345944Y-846051D01*
X7349383Y-848156D01*
X7352926Y-850082D01*
X7356563Y-851824D01*
X7360282Y-853381D01*
X7364079Y-854743D01*
X7367938Y-855911D01*
X7371852Y-856879D01*
X7375812Y-857648D01*
X7379804Y-858212D01*
X7383823Y-858573D01*
G37*
G36*
X9140680Y-633935D02*
G01*
X9143799Y-633884D01*
X9146910Y-633628D01*
X9149996Y-633163D01*
X9153047Y-632498D01*
X9156047Y-631631D01*
X9158980Y-630570D01*
X9161840Y-629318D01*
X9164609Y-627877D01*
X9167276Y-626257D01*
X9169831Y-624464D01*
X9172265Y-622505D01*
X9174561Y-620392D01*
X9176712Y-618131D01*
X9178709Y-615734D01*
X9180545Y-613206D01*
X9182209Y-610567D01*
X9183695Y-607821D01*
X9184995Y-604984D01*
X9186105Y-602066D01*
X9187019Y-599081D01*
X9187736Y-596044D01*
X9188251Y-592965D01*
X9188559Y-589859D01*
X9188663Y-586739D01*
X9188559Y-583620D01*
X9188251Y-580514D01*
X9187736Y-577435D01*
X9187019Y-574398D01*
X9186105Y-571413D01*
X9184995Y-568495D01*
X9183695Y-565657D01*
X9182209Y-562912D01*
X9180545Y-560273D01*
X9178709Y-557745D01*
X9176712Y-555348D01*
X9174561Y-553087D01*
X9172265Y-550974D01*
X9169831Y-549015D01*
X9167276Y-547222D01*
X9164609Y-545602D01*
X9161840Y-544161D01*
X9158980Y-542909D01*
X9156047Y-541848D01*
X9153047Y-540981D01*
X9149996Y-540316D01*
X9146910Y-539851D01*
X9143799Y-539595D01*
X9140680Y-539544D01*
X9137561Y-539696D01*
X9134462Y-540057D01*
X9131391Y-540623D01*
X9128366Y-541388D01*
X9125397Y-542353D01*
X9122498Y-543511D01*
X9119682Y-544860D01*
X9116961Y-546392D01*
X9114350Y-548098D01*
X9111856Y-549973D01*
X9109489Y-552010D01*
X9107263Y-554200D01*
X9105188Y-556531D01*
X9103271Y-558995D01*
X9101521Y-561578D01*
X9099946Y-564273D01*
X9098551Y-567067D01*
X9097345Y-569945D01*
X9096331Y-572896D01*
X9095516Y-575909D01*
X9094899Y-578970D01*
X9094487Y-582063D01*
X9094282Y-585180D01*
X9094282Y-588299D01*
X9094487Y-591416D01*
X9094899Y-594509D01*
X9095516Y-597570D01*
X9096331Y-600582D01*
X9097345Y-603534D01*
X9098551Y-606412D01*
X9099946Y-609206D01*
X9101521Y-611901D01*
X9103271Y-614484D01*
X9105188Y-616948D01*
X9107263Y-619279D01*
X9109489Y-621469D01*
X9111856Y-623506D01*
X9114350Y-625381D01*
X9116961Y-627087D01*
X9119682Y-628619D01*
X9122498Y-629968D01*
X9125397Y-631126D01*
X9128366Y-632091D01*
X9131391Y-632856D01*
X9134462Y-633422D01*
X9137561Y-633783D01*
G37*
G36*
X9392140Y-418035D02*
G01*
X9395259Y-417984D01*
X9398370Y-417728D01*
X9401456Y-417263D01*
X9404507Y-416598D01*
X9407507Y-415731D01*
X9410440Y-414670D01*
X9413300Y-413418D01*
X9416069Y-411977D01*
X9418736Y-410357D01*
X9421291Y-408564D01*
X9423725Y-406605D01*
X9426021Y-404492D01*
X9428172Y-402231D01*
X9430169Y-399834D01*
X9432005Y-397306D01*
X9433669Y-394667D01*
X9435155Y-391921D01*
X9436455Y-389084D01*
X9437565Y-386166D01*
X9438479Y-383181D01*
X9439196Y-380144D01*
X9439711Y-377065D01*
X9440019Y-373959D01*
X9440123Y-370839D01*
X9440019Y-367720D01*
X9439711Y-364614D01*
X9439196Y-361535D01*
X9438479Y-358498D01*
X9437565Y-355513D01*
X9436455Y-352595D01*
X9435155Y-349757D01*
X9433669Y-347012D01*
X9432005Y-344373D01*
X9430169Y-341845D01*
X9428172Y-339448D01*
X9426021Y-337187D01*
X9423725Y-335074D01*
X9421291Y-333115D01*
X9418736Y-331322D01*
X9416069Y-329702D01*
X9413300Y-328261D01*
X9410440Y-327009D01*
X9407507Y-325948D01*
X9404507Y-325081D01*
X9401456Y-324416D01*
X9398370Y-323951D01*
X9395259Y-323695D01*
X9392140Y-323644D01*
X9389021Y-323796D01*
X9385922Y-324157D01*
X9382851Y-324723D01*
X9379826Y-325488D01*
X9376857Y-326453D01*
X9373958Y-327611D01*
X9371142Y-328960D01*
X9368421Y-330492D01*
X9365810Y-332198D01*
X9363316Y-334073D01*
X9360949Y-336110D01*
X9358723Y-338300D01*
X9356648Y-340631D01*
X9354731Y-343095D01*
X9352981Y-345678D01*
X9351406Y-348373D01*
X9350011Y-351167D01*
X9348805Y-354045D01*
X9347791Y-356996D01*
X9346976Y-360009D01*
X9346359Y-363070D01*
X9345947Y-366163D01*
X9345742Y-369280D01*
X9345742Y-372399D01*
X9345947Y-375516D01*
X9346359Y-378609D01*
X9346976Y-381670D01*
X9347791Y-384682D01*
X9348805Y-387634D01*
X9350011Y-390512D01*
X9351406Y-393306D01*
X9352981Y-396001D01*
X9354731Y-398584D01*
X9356648Y-401048D01*
X9358723Y-403379D01*
X9360949Y-405569D01*
X9363316Y-407606D01*
X9365810Y-409481D01*
X9368421Y-411187D01*
X9371142Y-412719D01*
X9373958Y-414068D01*
X9376857Y-415226D01*
X9379826Y-416191D01*
X9382851Y-416956D01*
X9385922Y-417522D01*
X9389021Y-417883D01*
G37*
G36*
X8627600Y-415495D02*
G01*
X8630719Y-415444D01*
X8633830Y-415188D01*
X8636916Y-414723D01*
X8639967Y-414058D01*
X8642967Y-413191D01*
X8645900Y-412130D01*
X8648760Y-410878D01*
X8651529Y-409437D01*
X8654196Y-407817D01*
X8656751Y-406024D01*
X8659185Y-404065D01*
X8661481Y-401952D01*
X8663632Y-399691D01*
X8665629Y-397294D01*
X8667465Y-394766D01*
X8669129Y-392127D01*
X8670615Y-389381D01*
X8671915Y-386544D01*
X8673025Y-383626D01*
X8673939Y-380641D01*
X8674656Y-377604D01*
X8675171Y-374525D01*
X8675479Y-371419D01*
X8675583Y-368300D01*
X8675479Y-365180D01*
X8675171Y-362074D01*
X8674656Y-358995D01*
X8673939Y-355958D01*
X8673025Y-352973D01*
X8671915Y-350055D01*
X8670615Y-347218D01*
X8669129Y-344472D01*
X8667465Y-341833D01*
X8665629Y-339305D01*
X8663632Y-336908D01*
X8661481Y-334647D01*
X8659185Y-332534D01*
X8656751Y-330575D01*
X8654196Y-328782D01*
X8651529Y-327162D01*
X8648760Y-325721D01*
X8645900Y-324469D01*
X8642967Y-323408D01*
X8639967Y-322541D01*
X8636916Y-321876D01*
X8633830Y-321411D01*
X8630719Y-321155D01*
X8627600Y-321104D01*
X8624481Y-321256D01*
X8621382Y-321617D01*
X8618311Y-322183D01*
X8615286Y-322948D01*
X8612317Y-323913D01*
X8609418Y-325071D01*
X8606602Y-326420D01*
X8603881Y-327952D01*
X8601270Y-329658D01*
X8598776Y-331533D01*
X8596409Y-333570D01*
X8594183Y-335760D01*
X8592108Y-338091D01*
X8590191Y-340555D01*
X8588441Y-343138D01*
X8586866Y-345833D01*
X8585471Y-348627D01*
X8584265Y-351505D01*
X8583251Y-354456D01*
X8582436Y-357469D01*
X8581819Y-360530D01*
X8581407Y-363623D01*
X8581202Y-366740D01*
X8581202Y-369859D01*
X8581407Y-372976D01*
X8581819Y-376069D01*
X8582436Y-379130D01*
X8583251Y-382143D01*
X8584265Y-385094D01*
X8585471Y-387972D01*
X8586866Y-390766D01*
X8588441Y-393461D01*
X8590191Y-396044D01*
X8592108Y-398508D01*
X8594183Y-400839D01*
X8596409Y-403029D01*
X8598776Y-405066D01*
X8601270Y-406941D01*
X8603881Y-408647D01*
X8606602Y-410179D01*
X8609418Y-411528D01*
X8612317Y-412686D01*
X8615286Y-413651D01*
X8618311Y-414416D01*
X8621382Y-414982D01*
X8624481Y-415343D01*
G37*
G36*
X8881600Y-410415D02*
G01*
X8884719Y-410364D01*
X8887830Y-410108D01*
X8890916Y-409643D01*
X8893967Y-408978D01*
X8896967Y-408111D01*
X8899900Y-407050D01*
X8902760Y-405798D01*
X8905529Y-404357D01*
X8908196Y-402737D01*
X8910751Y-400944D01*
X8913185Y-398985D01*
X8915481Y-396872D01*
X8917632Y-394611D01*
X8919629Y-392214D01*
X8921465Y-389686D01*
X8923129Y-387047D01*
X8924615Y-384302D01*
X8925915Y-381464D01*
X8927025Y-378546D01*
X8927939Y-375561D01*
X8928656Y-372524D01*
X8929171Y-369445D01*
X8929479Y-366339D01*
X8929583Y-363220D01*
X8929479Y-360100D01*
X8929171Y-356994D01*
X8928656Y-353915D01*
X8927939Y-350878D01*
X8927025Y-347893D01*
X8925915Y-344975D01*
X8924615Y-342137D01*
X8923129Y-339392D01*
X8921465Y-336753D01*
X8919629Y-334225D01*
X8917632Y-331828D01*
X8915481Y-329567D01*
X8913185Y-327454D01*
X8910751Y-325495D01*
X8908196Y-323702D01*
X8905529Y-322082D01*
X8902760Y-320641D01*
X8899900Y-319389D01*
X8896967Y-318328D01*
X8893967Y-317461D01*
X8890916Y-316796D01*
X8887830Y-316331D01*
X8884719Y-316075D01*
X8881600Y-316024D01*
X8878481Y-316176D01*
X8875382Y-316537D01*
X8872311Y-317103D01*
X8869286Y-317868D01*
X8866317Y-318833D01*
X8863418Y-319991D01*
X8860602Y-321340D01*
X8857881Y-322872D01*
X8855270Y-324578D01*
X8852776Y-326453D01*
X8850409Y-328490D01*
X8848183Y-330680D01*
X8846108Y-333011D01*
X8844191Y-335475D01*
X8842441Y-338058D01*
X8840866Y-340753D01*
X8839471Y-343547D01*
X8838265Y-346425D01*
X8837251Y-349377D01*
X8836436Y-352389D01*
X8835819Y-355450D01*
X8835407Y-358543D01*
X8835202Y-361660D01*
X8835202Y-364779D01*
X8835407Y-367896D01*
X8835819Y-370989D01*
X8836436Y-374050D01*
X8837251Y-377062D01*
X8838265Y-380014D01*
X8839471Y-382892D01*
X8840866Y-385686D01*
X8842441Y-388381D01*
X8844191Y-390964D01*
X8846108Y-393428D01*
X8848183Y-395759D01*
X8850409Y-397949D01*
X8852776Y-399986D01*
X8855270Y-401861D01*
X8857881Y-403567D01*
X8860602Y-405099D01*
X8863418Y-406448D01*
X8866317Y-407606D01*
X8869286Y-408571D01*
X8872311Y-409336D01*
X8875382Y-409902D01*
X8878481Y-410263D01*
G37*
G36*
X9902680Y-324055D02*
G01*
X9905799Y-324004D01*
X9908910Y-323748D01*
X9911996Y-323283D01*
X9915047Y-322618D01*
X9918047Y-321751D01*
X9920980Y-320690D01*
X9923840Y-319438D01*
X9926609Y-317997D01*
X9929276Y-316377D01*
X9931831Y-314584D01*
X9934265Y-312625D01*
X9936561Y-310512D01*
X9938712Y-308251D01*
X9940709Y-305854D01*
X9942545Y-303326D01*
X9944209Y-300687D01*
X9945695Y-297942D01*
X9946995Y-295104D01*
X9948105Y-292186D01*
X9949019Y-289201D01*
X9949736Y-286164D01*
X9950251Y-283085D01*
X9950559Y-279979D01*
X9950663Y-276860D01*
X9950559Y-273740D01*
X9950251Y-270634D01*
X9949736Y-267555D01*
X9949019Y-264518D01*
X9948105Y-261533D01*
X9946995Y-258615D01*
X9945695Y-255778D01*
X9944209Y-253032D01*
X9942545Y-250393D01*
X9940709Y-247865D01*
X9938712Y-245468D01*
X9936561Y-243207D01*
X9934265Y-241094D01*
X9931831Y-239135D01*
X9929276Y-237342D01*
X9926609Y-235722D01*
X9923840Y-234281D01*
X9920980Y-233029D01*
X9918047Y-231968D01*
X9915047Y-231101D01*
X9911996Y-230436D01*
X9908910Y-229971D01*
X9905799Y-229715D01*
X9902680Y-229664D01*
X9899561Y-229816D01*
X9896462Y-230177D01*
X9893391Y-230743D01*
X9890366Y-231508D01*
X9887397Y-232473D01*
X9884498Y-233631D01*
X9881682Y-234980D01*
X9878961Y-236512D01*
X9876350Y-238218D01*
X9873856Y-240093D01*
X9871489Y-242130D01*
X9869263Y-244320D01*
X9867188Y-246651D01*
X9865271Y-249115D01*
X9863521Y-251698D01*
X9861946Y-254393D01*
X9860551Y-257187D01*
X9859345Y-260065D01*
X9858331Y-263017D01*
X9857516Y-266029D01*
X9856899Y-269090D01*
X9856487Y-272183D01*
X9856282Y-275300D01*
X9856282Y-278419D01*
X9856487Y-281536D01*
X9856899Y-284629D01*
X9857516Y-287690D01*
X9858331Y-290703D01*
X9859345Y-293654D01*
X9860551Y-296532D01*
X9861946Y-299326D01*
X9863521Y-302021D01*
X9865271Y-304604D01*
X9867188Y-307068D01*
X9869263Y-309399D01*
X9871489Y-311589D01*
X9873856Y-313626D01*
X9876350Y-315501D01*
X9878961Y-317207D01*
X9881682Y-318739D01*
X9884498Y-320088D01*
X9887397Y-321246D01*
X9890366Y-322211D01*
X9893391Y-322976D01*
X9896462Y-323542D01*
X9899561Y-323903D01*
G37*
G36*
X9646140Y-232615D02*
G01*
X9649259Y-232564D01*
X9652370Y-232308D01*
X9655456Y-231843D01*
X9658507Y-231178D01*
X9661507Y-230311D01*
X9664440Y-229250D01*
X9667300Y-227998D01*
X9670069Y-226557D01*
X9672736Y-224937D01*
X9675291Y-223144D01*
X9677725Y-221185D01*
X9680021Y-219072D01*
X9682172Y-216811D01*
X9684169Y-214414D01*
X9686005Y-211886D01*
X9687669Y-209247D01*
X9689155Y-206502D01*
X9690455Y-203664D01*
X9691565Y-200746D01*
X9692479Y-197761D01*
X9693196Y-194724D01*
X9693711Y-191645D01*
X9694019Y-188539D01*
X9694123Y-185420D01*
X9694019Y-182300D01*
X9693711Y-179194D01*
X9693196Y-176115D01*
X9692479Y-173078D01*
X9691565Y-170093D01*
X9690455Y-167175D01*
X9689155Y-164337D01*
X9687669Y-161592D01*
X9686005Y-158953D01*
X9684169Y-156425D01*
X9682172Y-154028D01*
X9680021Y-151767D01*
X9677725Y-149654D01*
X9675291Y-147695D01*
X9672736Y-145902D01*
X9670069Y-144282D01*
X9667300Y-142841D01*
X9664440Y-141589D01*
X9661507Y-140528D01*
X9658507Y-139661D01*
X9655456Y-138996D01*
X9652370Y-138531D01*
X9649259Y-138275D01*
X9646140Y-138224D01*
X9643021Y-138376D01*
X9639922Y-138737D01*
X9636851Y-139303D01*
X9633826Y-140068D01*
X9630857Y-141033D01*
X9627958Y-142191D01*
X9625142Y-143540D01*
X9622421Y-145072D01*
X9619810Y-146778D01*
X9617316Y-148653D01*
X9614949Y-150690D01*
X9612723Y-152880D01*
X9610648Y-155211D01*
X9608731Y-157675D01*
X9606981Y-160258D01*
X9605406Y-162953D01*
X9604011Y-165747D01*
X9602805Y-168625D01*
X9601791Y-171577D01*
X9600976Y-174589D01*
X9600359Y-177650D01*
X9599947Y-180743D01*
X9599742Y-183860D01*
X9599742Y-186979D01*
X9599947Y-190096D01*
X9600359Y-193189D01*
X9600976Y-196250D01*
X9601791Y-199262D01*
X9602805Y-202214D01*
X9604011Y-205092D01*
X9605406Y-207886D01*
X9606981Y-210581D01*
X9608731Y-213164D01*
X9610648Y-215628D01*
X9612723Y-217959D01*
X9614949Y-220149D01*
X9617316Y-222186D01*
X9619810Y-224061D01*
X9622421Y-225767D01*
X9625142Y-227299D01*
X9627958Y-228648D01*
X9630857Y-229806D01*
X9633826Y-230771D01*
X9636851Y-231536D01*
X9639922Y-232102D01*
X9643021Y-232463D01*
G37*
G36*
X6749795Y527055D02*
G01*
X6755381Y527156D01*
X6760961Y527464D01*
X6766524Y527972D01*
X6772066Y528685D01*
X6777578Y529600D01*
X6783052Y530715D01*
X6788482Y532028D01*
X6793862Y533539D01*
X6799181Y535246D01*
X6804436Y537146D01*
X6809618Y539239D01*
X6814718Y541517D01*
X6819732Y543981D01*
X6824654Y546625D01*
X6829475Y549447D01*
X6834190Y552444D01*
X6838792Y555612D01*
X6843278Y558947D01*
X6847636Y562442D01*
X6851865Y566092D01*
X6855957Y569897D01*
X6859907Y573846D01*
X6863712Y577938D01*
X6867362Y582168D01*
X6870857Y586526D01*
X6874192Y591012D01*
X6877359Y595614D01*
X6880357Y600329D01*
X6883179Y605149D01*
X6885823Y610072D01*
X6888286Y615086D01*
X6890565Y620186D01*
X6892658Y625368D01*
X6894558Y630623D01*
X6896265Y635942D01*
X6897776Y641322D01*
X6899089Y646752D01*
X6900204Y652226D01*
X6901119Y657738D01*
X6901832Y663280D01*
X6902340Y668842D01*
X6902648Y674423D01*
X6902749Y680008D01*
X6902648Y685594D01*
X6902340Y691174D01*
X6901832Y696737D01*
X6901119Y702279D01*
X6900204Y707791D01*
X6899089Y713265D01*
X6897776Y718695D01*
X6896265Y724075D01*
X6894558Y729394D01*
X6892658Y734649D01*
X6890565Y739830D01*
X6888286Y744931D01*
X6885823Y749945D01*
X6883179Y754867D01*
X6880357Y759688D01*
X6877359Y764402D01*
X6874192Y769005D01*
X6870857Y773490D01*
X6867362Y777849D01*
X6863712Y782078D01*
X6859907Y786170D01*
X6855957Y790120D01*
X6851865Y793925D01*
X6847636Y797575D01*
X6843278Y801070D01*
X6838792Y804405D01*
X6834190Y807572D01*
X6829475Y810569D01*
X6824654Y813391D01*
X6819732Y816035D01*
X6814718Y818499D01*
X6809618Y820778D01*
X6804436Y822871D01*
X6799181Y824771D01*
X6793862Y826477D01*
X6788482Y827989D01*
X6783052Y829302D01*
X6777578Y830417D01*
X6772066Y831331D01*
X6766524Y832045D01*
X6760961Y832553D01*
X6755381Y832860D01*
X6749795Y832962D01*
X6744210Y832860D01*
X6738630Y832553D01*
X6733067Y832045D01*
X6727525Y831331D01*
X6722013Y830417D01*
X6716539Y829302D01*
X6711109Y827989D01*
X6705729Y826477D01*
X6700410Y824771D01*
X6695155Y822871D01*
X6689973Y820778D01*
X6684873Y818499D01*
X6679859Y816035D01*
X6674937Y813391D01*
X6670116Y810569D01*
X6665401Y807572D01*
X6660799Y804405D01*
X6656313Y801070D01*
X6651955Y797575D01*
X6647726Y793925D01*
X6643634Y790120D01*
X6639684Y786170D01*
X6635879Y782078D01*
X6632229Y777849D01*
X6628734Y773490D01*
X6625399Y769005D01*
X6622232Y764402D01*
X6619234Y759688D01*
X6616412Y754867D01*
X6613768Y749945D01*
X6611305Y744931D01*
X6609026Y739830D01*
X6606933Y734649D01*
X6605033Y729394D01*
X6603326Y724075D01*
X6601815Y718695D01*
X6600502Y713265D01*
X6599387Y707791D01*
X6598472Y702279D01*
X6597759Y696737D01*
X6597251Y691174D01*
X6596943Y685594D01*
X6596842Y680008D01*
X6596943Y674423D01*
X6597251Y668842D01*
X6597759Y663280D01*
X6598472Y657738D01*
X6599387Y652226D01*
X6600502Y646752D01*
X6601815Y641322D01*
X6603326Y635942D01*
X6605033Y630623D01*
X6606933Y625368D01*
X6609026Y620186D01*
X6611305Y615086D01*
X6613768Y610072D01*
X6616412Y605149D01*
X6619234Y600329D01*
X6622232Y595614D01*
X6625399Y591012D01*
X6628734Y586526D01*
X6632229Y582168D01*
X6635879Y577938D01*
X6639684Y573846D01*
X6643634Y569897D01*
X6647726Y566092D01*
X6651955Y562442D01*
X6656313Y558947D01*
X6660799Y555612D01*
X6665401Y552444D01*
X6670116Y549447D01*
X6674937Y546625D01*
X6679859Y543981D01*
X6684873Y541517D01*
X6689973Y539239D01*
X6695155Y537146D01*
X6700410Y535246D01*
X6705729Y533539D01*
X6711109Y532028D01*
X6716539Y530715D01*
X6722013Y529600D01*
X6727525Y528685D01*
X6733067Y527972D01*
X6738630Y527464D01*
X6744210Y527156D01*
G37*
G36*
X4749800Y527055D02*
G01*
X4755385Y527156D01*
X4760965Y527464D01*
X4766528Y527972D01*
X4772070Y528685D01*
X4777582Y529600D01*
X4783056Y530715D01*
X4788486Y532028D01*
X4793866Y533539D01*
X4799185Y535246D01*
X4804440Y537146D01*
X4809622Y539239D01*
X4814722Y541517D01*
X4819736Y543981D01*
X4824658Y546625D01*
X4829479Y549447D01*
X4834194Y552444D01*
X4838796Y555612D01*
X4843282Y558947D01*
X4847640Y562442D01*
X4851869Y566092D01*
X4855961Y569897D01*
X4859911Y573846D01*
X4863716Y577938D01*
X4867366Y582168D01*
X4870861Y586526D01*
X4874196Y591012D01*
X4877363Y595614D01*
X4880361Y600329D01*
X4883183Y605149D01*
X4885827Y610072D01*
X4888290Y615086D01*
X4890569Y620186D01*
X4892662Y625368D01*
X4894562Y630623D01*
X4896269Y635942D01*
X4897780Y641322D01*
X4899093Y646752D01*
X4900208Y652226D01*
X4901123Y657738D01*
X4901836Y663280D01*
X4902344Y668842D01*
X4902652Y674423D01*
X4902753Y680008D01*
X4902652Y685594D01*
X4902344Y691174D01*
X4901836Y696737D01*
X4901123Y702279D01*
X4900208Y707791D01*
X4899093Y713265D01*
X4897780Y718695D01*
X4896269Y724075D01*
X4894562Y729394D01*
X4892662Y734649D01*
X4890569Y739830D01*
X4888290Y744931D01*
X4885827Y749945D01*
X4883183Y754867D01*
X4880361Y759688D01*
X4877363Y764402D01*
X4874196Y769005D01*
X4870861Y773490D01*
X4867366Y777849D01*
X4863716Y782078D01*
X4859911Y786170D01*
X4855961Y790120D01*
X4851869Y793925D01*
X4847640Y797575D01*
X4843282Y801070D01*
X4838796Y804405D01*
X4834194Y807572D01*
X4829479Y810569D01*
X4824658Y813391D01*
X4819736Y816035D01*
X4814722Y818499D01*
X4809622Y820778D01*
X4804440Y822871D01*
X4799185Y824771D01*
X4793866Y826477D01*
X4788486Y827989D01*
X4783056Y829302D01*
X4777582Y830417D01*
X4772070Y831331D01*
X4766528Y832045D01*
X4760965Y832553D01*
X4755385Y832860D01*
X4749800Y832962D01*
X4744214Y832860D01*
X4738634Y832553D01*
X4733071Y832045D01*
X4727529Y831331D01*
X4722017Y830417D01*
X4716543Y829302D01*
X4711113Y827989D01*
X4705733Y826477D01*
X4700414Y824771D01*
X4695159Y822871D01*
X4689977Y820778D01*
X4684877Y818499D01*
X4679863Y816035D01*
X4674941Y813391D01*
X4670120Y810569D01*
X4665405Y807572D01*
X4660803Y804405D01*
X4656317Y801070D01*
X4651959Y797575D01*
X4647730Y793925D01*
X4643638Y790120D01*
X4639688Y786170D01*
X4635883Y782078D01*
X4632233Y777849D01*
X4628738Y773490D01*
X4625403Y769005D01*
X4622236Y764402D01*
X4619238Y759688D01*
X4616416Y754867D01*
X4613772Y749945D01*
X4611309Y744931D01*
X4609030Y739830D01*
X4606937Y734649D01*
X4605037Y729394D01*
X4603330Y724075D01*
X4601819Y718695D01*
X4600506Y713265D01*
X4599391Y707791D01*
X4598476Y702279D01*
X4597763Y696737D01*
X4597255Y691174D01*
X4596947Y685594D01*
X4596846Y680008D01*
X4596947Y674423D01*
X4597255Y668842D01*
X4597763Y663280D01*
X4598476Y657738D01*
X4599391Y652226D01*
X4600506Y646752D01*
X4601819Y641322D01*
X4603330Y635942D01*
X4605037Y630623D01*
X4606937Y625368D01*
X4609030Y620186D01*
X4611309Y615086D01*
X4613772Y610072D01*
X4616416Y605149D01*
X4619238Y600329D01*
X4622236Y595614D01*
X4625403Y591012D01*
X4628738Y586526D01*
X4632233Y582168D01*
X4635883Y577938D01*
X4639688Y573846D01*
X4643638Y569897D01*
X4647730Y566092D01*
X4651959Y562442D01*
X4656317Y558947D01*
X4660803Y555612D01*
X4665405Y552444D01*
X4670120Y549447D01*
X4674941Y546625D01*
X4679863Y543981D01*
X4684877Y541517D01*
X4689977Y539239D01*
X4695159Y537146D01*
X4700414Y535246D01*
X4705733Y533539D01*
X4711113Y532028D01*
X4716543Y530715D01*
X4722017Y529600D01*
X4727529Y528685D01*
X4733071Y527972D01*
X4738634Y527464D01*
X4744214Y527156D01*
G37*
G36*
X10179989Y527055D02*
G01*
X10185575Y527156D01*
X10191155Y527464D01*
X10196718Y527972D01*
X10202260Y528685D01*
X10207772Y529600D01*
X10213246Y530715D01*
X10218676Y532028D01*
X10224056Y533539D01*
X10229375Y535246D01*
X10234630Y537146D01*
X10239811Y539239D01*
X10244912Y541517D01*
X10249926Y543981D01*
X10254848Y546625D01*
X10259669Y549447D01*
X10264383Y552444D01*
X10268986Y555612D01*
X10273471Y558947D01*
X10277830Y562442D01*
X10282059Y566092D01*
X10286151Y569897D01*
X10290101Y573846D01*
X10293906Y577938D01*
X10297556Y582168D01*
X10301051Y586526D01*
X10304386Y591012D01*
X10307553Y595614D01*
X10310550Y600329D01*
X10313372Y605149D01*
X10316016Y610072D01*
X10318480Y615086D01*
X10320759Y620186D01*
X10322852Y625368D01*
X10324752Y630623D01*
X10326458Y635942D01*
X10327970Y641322D01*
X10329283Y646752D01*
X10330398Y652226D01*
X10331312Y657738D01*
X10332026Y663280D01*
X10332534Y668842D01*
X10332841Y674423D01*
X10332943Y680008D01*
X10332841Y685594D01*
X10332534Y691174D01*
X10332026Y696737D01*
X10331312Y702279D01*
X10330398Y707791D01*
X10329283Y713265D01*
X10327970Y718695D01*
X10326458Y724075D01*
X10324752Y729394D01*
X10322852Y734649D01*
X10320759Y739830D01*
X10318480Y744931D01*
X10316016Y749945D01*
X10313372Y754867D01*
X10310550Y759688D01*
X10307553Y764402D01*
X10304386Y769005D01*
X10301051Y773490D01*
X10297556Y777849D01*
X10293906Y782078D01*
X10290101Y786170D01*
X10286151Y790120D01*
X10282059Y793925D01*
X10277830Y797575D01*
X10273471Y801070D01*
X10268986Y804405D01*
X10264383Y807572D01*
X10259669Y810569D01*
X10254848Y813391D01*
X10249926Y816035D01*
X10244912Y818499D01*
X10239811Y820778D01*
X10234630Y822871D01*
X10229375Y824771D01*
X10224056Y826477D01*
X10218676Y827989D01*
X10213246Y829302D01*
X10207772Y830417D01*
X10202260Y831331D01*
X10196718Y832045D01*
X10191155Y832553D01*
X10185575Y832860D01*
X10179989Y832962D01*
X10174404Y832860D01*
X10168823Y832553D01*
X10163261Y832045D01*
X10157719Y831331D01*
X10152207Y830417D01*
X10146733Y829302D01*
X10141303Y827989D01*
X10135923Y826477D01*
X10130604Y824771D01*
X10125349Y822871D01*
X10120167Y820778D01*
X10115067Y818499D01*
X10110053Y816035D01*
X10105130Y813391D01*
X10100309Y810569D01*
X10095595Y807572D01*
X10090993Y804405D01*
X10086507Y801070D01*
X10082149Y797575D01*
X10077919Y793925D01*
X10073827Y790120D01*
X10069878Y786170D01*
X10066073Y782078D01*
X10062423Y777849D01*
X10058928Y773490D01*
X10055593Y769005D01*
X10052425Y764402D01*
X10049428Y759688D01*
X10046606Y754867D01*
X10043962Y749945D01*
X10041498Y744931D01*
X10039220Y739830D01*
X10037127Y734649D01*
X10035227Y729394D01*
X10033520Y724075D01*
X10032009Y718695D01*
X10030696Y713265D01*
X10029581Y707791D01*
X10028666Y702279D01*
X10027953Y696737D01*
X10027445Y691174D01*
X10027137Y685594D01*
X10027036Y680008D01*
X10027137Y674423D01*
X10027445Y668842D01*
X10027953Y663280D01*
X10028666Y657738D01*
X10029581Y652226D01*
X10030696Y646752D01*
X10032009Y641322D01*
X10033520Y635942D01*
X10035227Y630623D01*
X10037127Y625368D01*
X10039220Y620186D01*
X10041498Y615086D01*
X10043962Y610072D01*
X10046606Y605149D01*
X10049428Y600329D01*
X10052425Y595614D01*
X10055593Y591012D01*
X10058928Y586526D01*
X10062423Y582168D01*
X10066073Y577938D01*
X10069878Y573846D01*
X10073827Y569897D01*
X10077919Y566092D01*
X10082149Y562442D01*
X10086507Y558947D01*
X10090993Y555612D01*
X10095595Y552444D01*
X10100309Y549447D01*
X10105130Y546625D01*
X10110053Y543981D01*
X10115067Y541517D01*
X10120167Y539239D01*
X10125349Y537146D01*
X10130604Y535246D01*
X10135923Y533539D01*
X10141303Y532028D01*
X10146733Y530715D01*
X10152207Y529600D01*
X10157719Y528685D01*
X10163261Y527972D01*
X10168823Y527464D01*
X10174404Y527156D01*
G37*
G36*
X1320012Y527055D02*
G01*
X1325598Y527156D01*
X1331178Y527464D01*
X1336741Y527972D01*
X1342283Y528685D01*
X1347795Y529600D01*
X1353268Y530715D01*
X1358699Y532028D01*
X1364079Y533539D01*
X1369397Y535246D01*
X1374653Y537146D01*
X1379834Y539239D01*
X1384935Y541517D01*
X1389948Y543981D01*
X1394871Y546625D01*
X1399692Y549447D01*
X1404406Y552444D01*
X1409009Y555612D01*
X1413494Y558947D01*
X1417853Y562442D01*
X1422082Y566092D01*
X1426174Y569897D01*
X1430124Y573846D01*
X1433929Y577938D01*
X1437579Y582168D01*
X1441074Y586526D01*
X1444409Y591012D01*
X1447576Y595614D01*
X1450573Y600329D01*
X1453395Y605149D01*
X1456039Y610072D01*
X1458503Y615086D01*
X1460781Y620186D01*
X1462874Y625368D01*
X1464774Y630623D01*
X1466481Y635942D01*
X1467993Y641322D01*
X1469306Y646752D01*
X1470421Y652226D01*
X1471335Y657738D01*
X1472049Y663280D01*
X1472557Y668842D01*
X1472864Y674423D01*
X1472966Y680008D01*
X1472864Y685594D01*
X1472557Y691174D01*
X1472049Y696737D01*
X1471335Y702279D01*
X1470421Y707791D01*
X1469306Y713265D01*
X1467993Y718695D01*
X1466481Y724075D01*
X1464774Y729394D01*
X1462874Y734649D01*
X1460781Y739830D01*
X1458503Y744931D01*
X1456039Y749945D01*
X1453395Y754867D01*
X1450573Y759688D01*
X1447576Y764402D01*
X1444409Y769005D01*
X1441074Y773490D01*
X1437579Y777849D01*
X1433929Y782078D01*
X1430124Y786170D01*
X1426174Y790120D01*
X1422082Y793925D01*
X1417853Y797575D01*
X1413494Y801070D01*
X1409009Y804405D01*
X1404406Y807572D01*
X1399692Y810569D01*
X1394871Y813391D01*
X1389948Y816035D01*
X1384935Y818499D01*
X1379834Y820778D01*
X1374653Y822871D01*
X1369397Y824771D01*
X1364079Y826477D01*
X1358699Y827989D01*
X1353268Y829302D01*
X1347795Y830417D01*
X1342283Y831331D01*
X1336741Y832045D01*
X1331178Y832553D01*
X1325598Y832860D01*
X1320012Y832962D01*
X1314427Y832860D01*
X1308846Y832553D01*
X1303284Y832045D01*
X1297741Y831331D01*
X1292230Y830417D01*
X1286756Y829302D01*
X1281325Y827989D01*
X1275946Y826477D01*
X1270627Y824771D01*
X1265372Y822871D01*
X1260190Y820778D01*
X1255090Y818499D01*
X1250076Y816035D01*
X1245153Y813391D01*
X1240332Y810569D01*
X1235618Y807572D01*
X1231016Y804405D01*
X1226530Y801070D01*
X1222171Y797575D01*
X1217942Y793925D01*
X1213850Y790120D01*
X1209901Y786170D01*
X1206096Y782078D01*
X1202446Y777849D01*
X1198951Y773490D01*
X1195616Y769005D01*
X1192448Y764402D01*
X1189451Y759688D01*
X1186629Y754867D01*
X1183985Y749945D01*
X1181521Y744931D01*
X1179243Y739830D01*
X1177150Y734649D01*
X1175250Y729394D01*
X1173543Y724075D01*
X1172032Y718695D01*
X1170719Y713265D01*
X1169603Y707791D01*
X1168689Y702279D01*
X1167975Y696737D01*
X1167467Y691174D01*
X1167160Y685594D01*
X1167058Y680008D01*
X1167160Y674423D01*
X1167467Y668842D01*
X1167975Y663280D01*
X1168689Y657738D01*
X1169603Y652226D01*
X1170719Y646752D01*
X1172032Y641322D01*
X1173543Y635942D01*
X1175250Y630623D01*
X1177150Y625368D01*
X1179243Y620186D01*
X1181521Y615086D01*
X1183985Y610072D01*
X1186629Y605149D01*
X1189451Y600329D01*
X1192448Y595614D01*
X1195616Y591012D01*
X1198951Y586526D01*
X1202446Y582168D01*
X1206096Y577938D01*
X1209901Y573846D01*
X1213850Y569897D01*
X1217942Y566092D01*
X1222171Y562442D01*
X1226530Y558947D01*
X1231016Y555612D01*
X1235618Y552444D01*
X1240332Y549447D01*
X1245153Y546625D01*
X1250076Y543981D01*
X1255090Y541517D01*
X1260190Y539239D01*
X1265372Y537146D01*
X1270627Y535246D01*
X1275946Y533539D01*
X1281325Y532028D01*
X1286756Y530715D01*
X1292230Y529600D01*
X1297741Y528685D01*
X1303284Y527972D01*
X1308846Y527464D01*
X1314427Y527156D01*
G37*

%LPD*%
D11*
G01*
X9903459Y-276860D03*
G01*
X9646920Y-185420D03*
G01*
X9141459Y-586739D03*
G01*
X10154920Y-2534920D03*
D12*
G01*
X10944859Y-2184400D03*
G01*
X4757420Y195579D03*
G01*
X4312920Y-2758439D03*
G01*
X739139Y-1016000D03*
G01*
X7388859Y-779779D03*
G01*
X10939779Y-1897379D03*
D11*
G01*
X8882379Y-363220D03*
D12*
G01*
X7609840Y-2367279D03*
G01*
X7871459Y-2372360D03*
D11*
G01*
X8628379Y-368300D03*
G01*
X10408920Y-2519679D03*
G01*
X9392920Y-370839D03*
G01*
X11353800Y-2283460D03*
G01*
X8882379Y-2311400D03*
D12*
G01*
X10208259Y-2006600D03*
G01*
X9525000Y-1950720D03*
G01*
X7307579Y-3517900D03*
G01*
X7759700Y-3520439D03*
G01*
X7091679Y-782320D03*
G01*
X11150600Y-1112520D03*
D11*
G01*
X11145520Y-1366520D03*
G01*
X741679Y-1264920D03*
G01*
X751839Y-1516379D03*
G01*
X746760Y-1778000D03*
G01*
X6854748Y-2644139D03*
G01*
X6718300Y-2854960D03*
G01*
X6570979Y-3070860D03*
D12*
G01*
X8333740Y-1750060D03*
G01*
X8336279Y-1242060D03*
D11*
G01*
X9017000Y-1506220D03*
G01*
X9347200Y-1752600D03*
M02*
