G04 Layer: BottomPasteMaskLayer*
G04 EasyEDA v6.4.31, 2022-02-02 03:50:30*
G04 0b916ec405ec4e9094bbf8359c402fb2,658f5e24285b455797eae137c281a567,10*
G04 Gerber Generator version 0.2*
G04 Scale: 100 percent, Rotated: No, Reflected: No *
G04 Dimensions in millimeters *
G04 leading zeros omitted , absolute positions ,4 integer and 5 decimal *
%FSLAX45Y45*%
%MOMM*%

%ADD10C,0.0001*%

%LPD*%
G36*
X11038662Y-1399108D02*
G01*
X11038662Y-1283106D01*
X10891672Y-1283106D01*
X10891672Y-1399108D01*
G37*
G36*
X11038662Y-1195908D02*
G01*
X11038662Y-1079906D01*
X10891672Y-1079906D01*
X10891672Y-1195908D01*
G37*
G36*
X7043839Y-3595479D02*
G01*
X7159840Y-3595479D01*
X7159840Y-3450480D01*
X7043839Y-3450480D01*
G37*
G36*
X7247039Y-3595479D02*
G01*
X7363040Y-3595479D01*
X7363040Y-3450480D01*
X7247039Y-3450480D01*
G37*
G36*
X7815160Y-3447940D02*
G01*
X7699159Y-3447940D01*
X7699159Y-3592939D01*
X7815160Y-3592939D01*
G37*
G36*
X7611960Y-3447940D02*
G01*
X7495959Y-3447940D01*
X7495959Y-3592939D01*
X7611960Y-3592939D01*
G37*
G36*
X10485120Y-634740D02*
G01*
X10485120Y-106939D01*
X10332720Y-106939D01*
X10332720Y-634740D01*
G37*
G36*
X10231120Y-634740D02*
G01*
X10231120Y-106939D01*
X10078720Y-106939D01*
X10078720Y-634740D01*
G37*
G36*
X9977120Y-634740D02*
G01*
X9977120Y-106939D01*
X9824720Y-106939D01*
X9824720Y-634740D01*
G37*
G36*
X9723120Y-634740D02*
G01*
X9723120Y-106939D01*
X9570720Y-106939D01*
X9570720Y-634740D01*
G37*
G36*
X9469120Y-634740D02*
G01*
X9469120Y-106939D01*
X9316720Y-106939D01*
X9316720Y-634740D01*
G37*
G36*
X9215120Y-634740D02*
G01*
X9215120Y-106939D01*
X9062720Y-106939D01*
X9062720Y-634740D01*
G37*
G36*
X8961120Y-634740D02*
G01*
X8961120Y-106939D01*
X8808720Y-106939D01*
X8808720Y-634740D01*
G37*
G36*
X8707120Y-634740D02*
G01*
X8707120Y-106939D01*
X8554720Y-106939D01*
X8554720Y-634740D01*
G37*
G36*
X8453120Y-634740D02*
G01*
X8453120Y-106939D01*
X8300720Y-106939D01*
X8300720Y-634740D01*
G37*
G36*
X8199120Y-634740D02*
G01*
X8199120Y-106939D01*
X8046720Y-106939D01*
X8046720Y-634740D01*
G37*
G36*
X7945120Y-634740D02*
G01*
X7945120Y-106939D01*
X7792720Y-106939D01*
X7792720Y-634740D01*
G37*
G36*
X7691120Y-634740D02*
G01*
X7691120Y-106939D01*
X7538720Y-106939D01*
X7538720Y-634740D01*
G37*
G36*
X7437120Y-634740D02*
G01*
X7437120Y-106939D01*
X7284720Y-106939D01*
X7284720Y-634740D01*
G37*
G36*
X7183120Y-634740D02*
G01*
X7183120Y-106939D01*
X7030720Y-106939D01*
X7030720Y-634740D01*
G37*
G36*
X10484060Y-2633819D02*
G01*
X10484060Y-2106018D01*
X10331660Y-2106018D01*
X10331660Y-2633819D01*
G37*
G36*
X10230060Y-2633819D02*
G01*
X10230060Y-2106018D01*
X10077660Y-2106018D01*
X10077660Y-2633819D01*
G37*
G36*
X9976060Y-2633819D02*
G01*
X9976060Y-2106018D01*
X9823660Y-2106018D01*
X9823660Y-2633819D01*
G37*
G36*
X9722060Y-2633819D02*
G01*
X9722060Y-2106018D01*
X9569660Y-2106018D01*
X9569660Y-2633819D01*
G37*
G36*
X9468060Y-2633819D02*
G01*
X9468060Y-2106018D01*
X9315660Y-2106018D01*
X9315660Y-2633819D01*
G37*
G36*
X9214060Y-2633819D02*
G01*
X9214060Y-2106018D01*
X9061660Y-2106018D01*
X9061660Y-2633819D01*
G37*
G36*
X8960060Y-2633819D02*
G01*
X8960060Y-2106018D01*
X8807660Y-2106018D01*
X8807660Y-2633819D01*
G37*
G36*
X8706060Y-2633819D02*
G01*
X8706060Y-2106018D01*
X8553660Y-2106018D01*
X8553660Y-2633819D01*
G37*
G36*
X8452060Y-2633819D02*
G01*
X8452060Y-2106018D01*
X8299660Y-2106018D01*
X8299660Y-2633819D01*
G37*
G36*
X8198060Y-2633819D02*
G01*
X8198060Y-2106018D01*
X8045660Y-2106018D01*
X8045660Y-2633819D01*
G37*
G36*
X7944060Y-2633819D02*
G01*
X7944060Y-2106018D01*
X7791660Y-2106018D01*
X7791660Y-2633819D01*
G37*
G36*
X7690060Y-2633819D02*
G01*
X7690060Y-2106018D01*
X7537660Y-2106018D01*
X7537660Y-2633819D01*
G37*
G36*
X7436060Y-2633819D02*
G01*
X7436060Y-2106018D01*
X7283660Y-2106018D01*
X7283660Y-2633819D01*
G37*
G36*
X7182060Y-2633819D02*
G01*
X7182060Y-2106018D01*
X7029660Y-2106018D01*
X7029660Y-2633819D01*
G37*
G36*
X8069839Y-1826260D02*
G01*
X8597640Y-1826260D01*
X8597640Y-1673860D01*
X8069839Y-1673860D01*
G37*
G36*
X8069839Y-1572260D02*
G01*
X8597640Y-1572260D01*
X8597640Y-1419860D01*
X8069839Y-1419860D01*
G37*
G36*
X8069839Y-1318260D02*
G01*
X8597640Y-1318260D01*
X8597640Y-1165860D01*
X8069839Y-1165860D01*
G37*
G36*
X8069839Y-1064260D02*
G01*
X8597640Y-1064260D01*
X8597640Y-911860D01*
X8069839Y-911860D01*
G37*
M02*
